<mxfile host="app.diagrams.net" modified="2024-10-08T01:41:39.776Z" agent="Mozilla/5.0 (Windows NT 10.0; Win64; x64) AppleWebKit/537.36 (KHTML, like Gecko) Chrome/129.0.0.0 Safari/537.36" etag="tCal0jDV04TG12wMtXAW" version="24.0.0" type="device">
  <diagram name="Page-1" id="D4O6nxrEXlRexEvn8xzk">
    <mxGraphModel dx="999" dy="1606" grid="1" gridSize="10" guides="1" tooltips="1" connect="1" arrows="1" fold="1" page="1" pageScale="1" pageWidth="850" pageHeight="1100" math="0" shadow="0">
      <root>
        <mxCell id="0" />
        <mxCell id="1" parent="0" />
        <mxCell id="32ch79hQAX0JlgT8ifrZ-4" value="&lt;b&gt;&lt;font style=&quot;font-size: 13px;&quot;&gt;Database&lt;/font&gt;&lt;/b&gt;" style="text;html=1;align=center;verticalAlign=middle;whiteSpace=wrap;rounded=0;" vertex="1" parent="1">
          <mxGeometry x="60" y="-30" width="60" height="30" as="geometry" />
        </mxCell>
        <mxCell id="32ch79hQAX0JlgT8ifrZ-5" value="&lt;font style=&quot;font-size: 13px;&quot;&gt;&lt;b&gt;Data mining&lt;/b&gt;&lt;/font&gt;" style="text;html=1;align=center;verticalAlign=middle;whiteSpace=wrap;rounded=0;" vertex="1" parent="1">
          <mxGeometry x="320" y="-30" width="110" height="30" as="geometry" />
        </mxCell>
        <mxCell id="32ch79hQAX0JlgT8ifrZ-6" value="&lt;font style=&quot;font-size: 13px;&quot;&gt;&lt;b&gt;AWS cloud interface&lt;/b&gt;&lt;/font&gt;" style="text;html=1;align=center;verticalAlign=middle;whiteSpace=wrap;rounded=0;" vertex="1" parent="1">
          <mxGeometry x="620" y="-30" width="190" height="30" as="geometry" />
        </mxCell>
        <mxCell id="32ch79hQAX0JlgT8ifrZ-51" value="" style="edgeStyle=orthogonalEdgeStyle;rounded=0;orthogonalLoop=1;jettySize=auto;html=1;" edge="1" parent="1" target="32ch79hQAX0JlgT8ifrZ-52">
          <mxGeometry relative="1" as="geometry">
            <mxPoint x="140" y="261.25" as="sourcePoint" />
            <mxPoint x="207" y="331.25" as="targetPoint" />
            <Array as="points">
              <mxPoint x="170" y="261" />
              <mxPoint x="170" y="380" />
            </Array>
          </mxGeometry>
        </mxCell>
        <mxCell id="32ch79hQAX0JlgT8ifrZ-8" value="" style="shape=image;verticalLabelPosition=bottom;labelBackgroundColor=default;verticalAlign=top;aspect=fixed;imageAspect=0;image=data:image/png,iVBORw0KGgoAAAANSUhEUgAAAgAAAAIACAYAAAD0eNT6AAAAAXNSR0IArs4c6QAAIABJREFUeAHsfQe4VEW29a46XHLOSA6SFBTjFRBEEVExoCBBBUkiIiAgXDICKhJFREQkx6uOOqNjBHUcndExjsMYxpyzouD/v/f+997sn33Obex7uaH71DndJyy+rzl9O5yuWrVrr1W7qnYR4R8QKBkBi4gaEFEHIsoloj5ENJCIriaiG4hoERHdTkQbieg+InqIiPYQ0XNE9CoR/ZOIPjz0+a+I6KdiHv9LRFzM4+diPvtdwb3eLbj3Xwp+65GC395KRGuJaDER5RHRNUQ0hIjOJ6LuRNSZiJocer9CydXFO0AACAABIAAEoouAIqJGRHQiEV1IRNcS0YIC8nyAiP5MRG8fel0ItzhyjsJrB4jo/UOC5q9E9HCBgBHhcH2BwOlGRM2IqHx0zQA1AwJAAAgAgaghICPcdkR0bgG5Lyei+4lIRsyfEdH/izCxey1O/k1EXxPRawVCYQ0RTSGi/oeiHccRUfWoGQ/qAwSAABAAAsFGIKeA5IWIZhDR5oKw++dEJKTlNRHifiVj+j0RvUxE+QVTIjLtcAIRVQm2CaF0QAAIAAEgEGQEhOg7EdEVBXPbDxLROxjFh0LgiBD7hIieLFgnMfbQ89OIqGqQDQ5lAwJAAAgAgcwjUPvQ/PuZRDS5YET/OhH9F0bzoSD7dCIksvBR1h/ItMycgnUYzTNvbvhFIAAEgAAQyAYCMrKXRXiTiGjboYVnbyF0HzmiT0cUyGdl58MLRHTroTUHFxxalFk/G4aJ3wQCQAAIAAFvEWhFRMOJ6B4i+jsR/TdG9rEn/FQEwkcFawtEKHY5tMZAtmXiHxAAAkAACAQYASF82Ssvo/uPQfYge49s4GBB7oMbD0ULeh+KFlQMcB9A0YAAEAACsUCg9aHtYrLI63dE9KNHzj6VESI+U/Lq/Dhg8x9E9HTBThCZUtKx6G2oJBAAAkAgiwjIgr0BRLSuIDtdHMgGdQy+2PjhUNbGe4loNBG1yGL/wE8DASAABCKFgIT1ZS5WUt0imU7wyRCCxUnDLKmaZbqgXKR6IyoDBIAAEPARAXGYZxDRCiJ6D2F9zOOH3AYktfOWgshVNR/7DW4NBIAAEAglArLKWg6OkVHTNyF3+BgBI0pRkg3856FtqHKI0jCkMw6ln0KhgQAQ8AgBkD6IsiSijMPrspAQYsAjZ4LbAAEgEA4EZF/1KiL6FiN9hPdhA7YN/N9DZ0zsLjhICjkHwuHHUEogAARSRECOwZWFfHK6WxxGd6gj2tmtDXxVMBUmQhn/gAAQAAKhREBGMnLu/R8P5V7/HxC/C+FTrQ5TozZMrU5g1akXq1MvYnXGlazOu5bVpTNYXX4TqzGrWY1bx2rydlbT8lnNeYT1jU+yXvw862V/Y71635GPTV+wLu6x9t0jP7vyNedei/ba91YzHnB+a8JG57eHL2E1cDarfhNZnTWCVW5/Vp3PYjr6FKYm7ZlqNmCyyrklw7h/TwTzNYcWxGLxYChdIAoNBOKHgIz25bCVz0D6RUhfaaZaDZladWF14nmseo9iNXAWq9GrWE3d5RD3ildZr/+Y9e5fWN/7a3QeIjhW/Z21CInp97EadxerIQtYnTvOFjbU9lSmuk2ZypWPO+kXV/8Dh84oWEtEnePnTlBjIAAEwoBAr4KT1uK7Vz+nAtNRR7M6rrdD7kMXspq0lfVNz7C+6z3Wu36ODqH7KU5EAC190YloDF/qRDxO6sfU7FimStWKI8g4vfaXgmOqy4fBKaCMQAAIRBcB2bM/NFZz+xLObtiKVZdzWPWbwGrM7azmPeYQfP5BELyfwiBx742fs775WVbj17PqP41V7sWOOMipGCch8CUR5R1aUFszuu4FNQMCQCCICMic5BQi+jSyYX6lmOq3YHXS+awumc7q+m2sJTy/8yeQfIKIg3bNP8B6zVus8n7nTC90G8jU7BgmKyfKwkAOKpJdNUhBHERPiTIBgQghUOdQatObCs5Qj45TlVF9806szhzOatQq1oueZr3lGxB90AjebXlEtC17idV1G1idN56p/WlMFatEx36dHRdy1PXOQ2cSdIiQv0FVgAAQCAACdYnolkOjflmMFH7HKfP0Z1zBauRKZ35++/cge7fkGtbvySLL5a840wh9r2Fqc1JUIgX/W5BToGMA/AaKAASAQIgRqEdES4hIwozhJH6ZF25/GquLprCadi/rDZ+C7MNK2n6Xe9t3rOc/wWrwfFYn9GWqUjOcNu/0VREC+YcW5h4TYv+DogMBIJAFBCoT0exQjvhlJX7H7vbedL1gD+bs/SbNKN9fFnUuf5nVVcvstSBUqXoYBYEIgU1E1CQLfgQ/CQSAQIgQkOQ9ow6da/5FaEb8srdeEuVcfIOTBAfhfEQ4/BIlMm2w+M+sL5vHqm3XsOUskHTDMo1XI0T+CEUFAkAgQwj0JaJ9oSD+KjVZnXYJq2vvZr3+IxCeX4SH+5ZuW1u+ZnXNelYn9Weq3iAs0YHviWjCocW8soUX/4AAEIg5As0OZRh7MPDE36AlqwuvZ73gKSTUATGXTsyZxif/V9YbvmRr4n2szxjD6qgOTKSCLgjeLDiCO+buD9UHAvFEIKfggJ7gruxv0t5evGfP5WfaqeP3gkWyIWkPa8t3bC39O1sTH2B9fh6r1rlBPgvh30S07VCa4frxdIGoNRCIJwI9iOidQI76hfQHzXMOpQmJ049Uzn5g7o3w2fYjWyv2sTXjGbYmPcS67xRWzY5jkgRTwdtR8xMRXU1EKp7uELUGAvFAoBIR3UpEsjI4OI6o9lH2oTAY6Ufo8B8ICUdI7NjP1sq32Zr5DFt5e9m6Np/1WdeyanJMcPrfb77gz0TUJh6uELUEAvFCoNuhvP3vBYb4cyqy6jbQWbkvKVxBGMAgyjaw/Se2lhdEBEQI5O1lPWoDq5MvZapcI0hi4BciGoNoQLzIAbWNLgJyatjywIz6W3RmNWK5cx59lB0+6gZBU5wNbPuBrVvfYGuGIwLsqMANT7C+eB6rVqcwybbW30bk2Xz+BBHJ0d74BwSAQEgRaE5EL2bdoZQrzyq3vzPaL84p4rWyyXLbt6zXvc965evOSXizH2Y1eTursWtYXXkLqwEznWNzz7jSwVrwlmOJO/WyH9TxdKZWXX57HHU0U4OWvz2S32uXe/h79vdzL3bu2WMIq3Oudk7gk6OOx6xmNWkLq5kPsl64106ao+98h/Xmr8quT8zb3Nr8DeubXnamBQoiArYYGH8vq27DmCoFIirwHRHJ9mD8AwJAIGQI9CciWdyTvVFEjfrOKv61/wIhlER4m76wc9LL+geb0IcvddIWC9l26sXUpH04U9KWK89Uq6FdfltESH0kHbPUb/J2ttd7rN6HTI13f8bW3OePFAI3PO7sIqjfOnv91/EdslPgdiKSXUP4BwSAQMARkJD/2qwSf5MOTpIeHJ3rENzqfXb0wx4xCwnm9ndG4hUqZ9u5B+P3Jed+qy5OlEHwGbPaEQibvoyHcNz9C1ur3v1toWByREDWCgxZwarVydnOLSALBDElEHDnj+LFGwE5rvfZrJG/OPHx61lLytSSRrxRff3uD1nN/gOry29i1WuYfR4B1Wkc1G1fwSD+VKJT1WrbJ/XZC0YHzGI1ZSfr2//BOooLR7d+z1Zx0wKJRYMj17M65mwmbWWr/b4kopPj7WJReyAQTASOJaKPskH+6tiezogtquSeXK9d+51jZGX+XQjphHOdUHcqZIbPeEdcMsUgOSNkakGmFeY8wnr9x+EXnpJV8M4P2ZpVsG2wSDTAXicwdjurzn2zJQT+DxENCKYLRKmAQDwROD8rJ/fJYrF5j4Xf6SYTfPJziWQs+SurkStZdR/E1LhdkLO6eUeuYRYqdZuyOvE8+0hffeOTrOWI3+Q2DctzSSR00ytHrg1IFgRXb2V1TO9sRJlkXcA8bBWMJ9mg1sFCYDgR/U9GR/6ylW/mQ+F0rKURwNZv7UiGkhXuMrIP93nwEAQiZKxyTqSg90hneuqOf4bHbiUacMeHTjbBZOIv+nzURlZtu2ejve8mIjlBFP+AABDIAgLjM7q/v1YjZ4FWVOb4N37OatJWVn1GMzU7Nkh7sLPhzOPzm/Wasep+GatRq0KRctra/C1b818oPRogiwWvvINV44xnGMzHDoEseH78ZOwRkBBcZpx2hcr2PnMte9FLG0EH/T1ZOLb4ebZH+LLFzsrJDH6Zaif8jrv2lJMmJUIg2xO3fBNMG999gK1l+8oUAdb0Paz75TFVq+cOC3c29CgRSZpx/AMCQCADCNycKfJXx/dhHaawaVERcs8nzv763iOxWM+dc88kkWT/tyRFtSRPGrrQFos6/2CwBIEsEJzxdNlCYPLDrE66NJNRracPnTNSMQO+Dz8BBGKNwKSMkH/NBs6caVFCDcPfd75jb8ezM98F8/S17BMdxEBqbVCvOat+E1kv/nNwhMDGr9ia/aeyRYBMC4y4m9VRHVKrq7lNPIzpgFhzEyrvMwJyZKeswPW1Q8s+9tClc5X5/PHrnex5IH1f7cNv+wvs/WXtwLnjWN/6QvbFwLYfWM//a0oiwJ4WOHMck2yd9Nl3ENFOItI++0HcHgjEDoHLfF/wJ6P+vPuz79xSjTJs/sohfVmxj/n8TDh3/EaCQCUHwYBZrFe9mb3+svMX1ov+lpoIkJ0Dozexatg2E20omUjxDwgAAY8QkOxb/9dP9a5OvYj1hk+z58xSJf38A6xm/Z6lvJRTIRPODL+RID1cj7QFiTa1PZXVuLuyk3NA0gjf/GrqImDak85hQ/6fOjjRI9+H2wCBWCPQkIg+9438rXLOgqdUCThbn5NUu4PnM9VvcaQTBjEBkyDYQOXq9mmJetlLmRXS+QedI4aL5gco5W89dCVT1dp+2o3kJjk31p4blQcChgjIqlr/jvOt04T1oqcz66zSFRBLX7S3aFFORT+dFe4dBAKNUhkkS6ZsK8xUzgwXIsCa8ACrFif6afs/ElEbQx+IrwOB2CLg36l+HU9nveGzYJJ//kFWeb9jOWPAt8hHlMgGdQmunTRq4yQc2vGD/30t/wBbt7yW+nSARAimP8XqpEv8xO8NIqoQWw+OigMBlwic49eKf3XGlcE8h12If1o+U8vj/XRI4b23rHmQsG2dZvbWLtXyJFbte7I6/nxWp17GuscI1mdfx/qcyc6j3wzWF811HhfPZz1o6W+PK1azHr7WeQy787fX5TOXLvztexfO+e1+51zPuudoVrmDWXW5gFXHM1m1PpVVk2NZ1WvJVL0+U4Uq4cXXTyElWTSHL2W9/Xt/hYAkuyrlREH7MKFipgZ03ylMupxfbbfEpQ/E14BALBGoR0Rfez76VYrVkAX+OqB0Q/wFn7eJv3knvxxQcO8rTrdaPYfQj+7K6oSLWZ8+gvV501gPvIX1yHvYmvA7tqY9md7IrhgnX5Lz9+X1SQ+xNXqzfZa9FiHS62o7MY3q0ItVk05MtRrHcxGn7LQZdivrHT/61w93/pxS6uCi7a4vu5WpQmU/+sr/HjqmvGcsPTkqDQRcIPCg9+SvnTz+LgnatxTANz/L1L6rH04nOPesWI1Vo/bOiLnbMNYXzGQ9bA1b190fLlL3Q1Rc/wfWI9ez7n+jE1047jxWTTszVasbnPbzIzIgCYYmbGLfMg1u/Z6t2c+mbV9il1Sxmh/Yf0JE1V34QnwFCMQKgQs8J39tsRq3zr8RhxtRIdn6cvtn4yhTP5ybc8/qDVjJKL7r5XY+djmcxZr4YNpOuOjILLZ/T/mjnclOy/SFTD10PItV3RZM2vKvDf0g+9Lu2aqLfQKlLwL7ni/YykshbXBRYTdqo187BJbFypOjskAgTQRkscz7ngoApVlN3Bwc8t/1sz0XSpWqhteJCwHVbe7Mv8uI/tJFTpi+qCPF3/6In2lPsB61gfX5eaxO7M+qyTFM5SuF155kaq7HENbrP/a8n1or33bXBiICKtXwGtP/R0Tt0/SJ+DgQiA0CMz0lfyJn4ZGbEbof31m0l6lJxvKSe+e8qtZh1eEMZ4Hd8LVs3fC4O6cKQeAfbtP3sDVmix15UcedZy+UJFLe2UBpo3iv3qtay0ko5GXfk0WBC15yhbsedidTec/XBOyJjTdHRYFAGgjUJ6KDXgoANXC25yMKV6HKXfvttKmhCd3WbMTqmLOd1e+jNrCVt8eVA41t6D4oQuf6h+3dDfauBYkShCRdtDr+bNbr3veu7279ga2Zz7iyYT1oCZPl+e4AJAhKgxjw0Xgg4OkRv6rbQO8ciMmIZPnLTEFf3V+lFqtj+9hb3+wV90EhMJTDFWmVKLxkTcGgJaxOHsBUu2mwowPV6rCausu7PrzqXddY6nOu9xorSW6Gf0AACBQgIKtj93s2+m92LOtt33rnPFwKAFnlHMh94TLn2rCtvZ9dX76K5bS0EkkDJBxdbK7ZYUd5JJeCD6FuT0hT9R7Jetd+874sSYLmPe+6Le1pFa+mOpz7YFsg6A8IFCCQ5xn5V67OevU+c4fhkvTtKYKdP7HqM8YTB+gZLnLmwdFd7TliSYEKwt8LDJLF3dRHWQ+4mW2i82cbnPv+0L4r63UfmPdpe1eAy3a/4XGvTxJ8Et4fCAABIsvLw37U2DvNHYUJ+W/5hlXns9w7Oy9HGTLSb3IM67OuZZC+S8efTJJxeT79KWftwDFnBycyUKsR6yV/Ne/bC90tCLQFs+wMKFfey77dAQQABOKOQB+vRrmq85n+JRZJRRTc9R5Ts2O8dBCu7qUatWN95ji2xt+LUW5cSNuvesq6gQtmsWqd62eq3NTsvEoN1vOfMBMBJlGAvL2sz/A0sifrnvAPCMQage2eCIDylVivfdfMOaRC8iV9ZvU+prpZXFiVU9HOia9H3A3S94sM437f8fex7j48u1kKcyqwmn6fWT93uS3QjgLI4UH1W6cmWMqO5n1GRDrW3h+VjzUC1YjoVy8EgLr4BjOnUBKxp/L62neZ6rfwyimkd59aje0scZbkno87QaH+mbGB6Xvs5E+qxQmclVwD5crbp2W62pIr/XntR0Y42WcGlE3uqfbjM2PNAKh8rBG42Avyp2p1WG/+KjsCQML+DVqm2tk9+5xqdbI9T4s9+pjbz6rwG73JPhkx4zkGyldiNe8xd31+9wHXeQESWMtJlJ74LqLbY80AqHysEbjDi06kBs5y5whSGd2X9pnt3zO18cwRpORQZNRl59jHaNdoFJdw5Lh6JKDG7bbTEnu8SK70PlGpGuvlr7jq+9bSN43sRw9dWXrZUo8Q7Is1A6DysUbgLWMBUK4867s/dOUEXIcQRRTkH2RJNmRc/hQdBYjfI6KCcDIivjIFU6aFQKM2rDd9kX7/v/szYxwkl4YH/f/fRNQw1iyAyscSATF6MX6jTqS6D0q/85c2qk/xPXXlLUblTrXe4mT0FauNnVWZjhvECIy9tAERAh3PzEwfOeHc9Hf/7DrA1gwXJwUmYaT7TvGqfkNiyQCodKwRkHzYxh1ITbs38wJgxatMORWNy15q/StWc/bvT38KxJTkdCFkwhUJkVC5quf/Alk1ZnX6fmDR38z61qSHvDqaeUmsmQCVjyUCk0slwFTEgWz92/Zd+h0/xVF+sVMEu/YztejsH/lL8p7jzmNrIrL1gezDRfYltpccX9zran+TClWsknYGUNdHBScJUtXsOC98wR9iyQCodKwRWGcqANRxvTNL/vf+ah8vbFruEr9ftQ7rISvMRiVJzqlEh4zPAONs2MC4Xawa+5coS53ULz1/sPZjYzvQPUd7IQDeizUToPKxRODZEokwldE/EauLp6bX4U1G/vLdTV8yVavtRYc/4h6qeRe2rrvP2CGB9CMyas4GQWfiN6c9yarbMCaljugDpv5Avq/mPpqyT7A2f2Pc3+zjglP0V6XU77+JqHwsWQCVji0CxjsA1KStKXf2YsP5aQoCSTZUSid29562nEQ+eTiRD+IlPuLFTqZTuaa7PlMa4bY5KXWfsOsXYwEgZ2x45BMaxJYJUPFYIvCpacfRtzyXemdPk+yPEAzbvmOqWsurzu7cx8phfckCcyeUiZEbfgPt5LUNjNvJVKuxt32KiPXCvan5hfxfjXcCiGj16Cjlo2PJAqh0bBHYbywAVr2ZWkc3JX+Z+x+z2ltHlVOxIJNffEZ9GOGjrY+wgevuY1XP20yakp/jCAFfgg+wZj1rLOyoej0vfMMJsWUCVDyWCMi8l1HH0es/Trmjp+oQSvoctepiVNZCdZUtfsPWGDueI5yp1yM03A9tlAkbmPAAqwZtvOtfkhxsw2cp+QZrzvPGbeyRgOkZSxZApWOLgHGHd5UBrISRQEnEb7++7n3vFi3pcqyHLDd2OiB/jKYjZQMTH2CqeZSxT0gIbXXdhtQEwLwXjPuiRxkBe8eWCVDxWCJg3NkzJQC8DP/rPpOMHU6kHH8mRpj4jVDYnBxl7dWhQqrrpRAAsaQVVDosCIRHAOT2Ny6rjExUq1MYp/dh5A4BV7IN6DOu9qSvyXbdUqN6BZFACxGAsPAFyhkxBIw7eqYiANTIg/lJXY6tq7eGYiQGgiqZoICNz9hMe5KpTjNj3yCCW9/1XpkiAAIgYqyC6oQGAeNOnhEBIEf+asu4rKrTOSB/hOJhAynYgD4/z7i/2RG3mQ9CAISGDlDQuCFg3MkzIgCWv2JcTns0cvkqOP8UnD9G2D6PsMPQBlMfY6pQxbjfqauWQQDEjVVQ39AgYNzBMyIAFu01LqckCrGmPQkBEAbyQRkDYaeqda5xv1MDZ0MAhIYOUNC4IWDcwTMhANTMB43LKduEMLLFyBY2kLoNqNzB5v2u3wQIgLixCuobGgSMO3hGBMDUXcblVE07QwBgZA0bSMMG9OlXmfe7PmMgAEJDByho3BAw7uAZEQBzHjEup6xqxugv9dEfsAJW6oSLjftdKqeFYhdA3GgH9Q0KAsYdPBMCQA4ckkV8Rg+l2br+9xABaYwAIQLiLQJUo/ZmfU7ybgxdiAhAULw9ygEEiiBg3MEzIgDu+KdxOe1dAP1mQABAAMAGUrGBcbuZlDbud2rsGgiAIk4XfwKBoCBg3MEzIgDyDzBV9GBLUuOOcP6pOH98JvZ2onKHGPsGW3QvehoCICjeHuUAAkUQMO7kGREA9/7K1OZk47LaDumSBbF37gjtxzu0X2b7j7+PKaeieX9TivWWbyAAijhd/AkEgoKAcSfPlABQfcYYl9VeQ1CtHluTHoIIwCgfNlCCDag2Xb3pa0cdXSb5y1kBWAQYFDpAOeKGgHFHz5gAyLvfuKy2AJCFSW2740CgEpx/maNDfC/SwkH3Hu9dPzv/OgiAuDEK6hsqBIw7e6YEgN72HVP5SsblPSwCThsaaUcOIkeYP10b0AMXe3LmxuE+NvdRCIBQ0QEKGzcEjAk1YwLg3l9Z5ZrvS044J7mqrldABGBEDxvI28t6wM1M5SoY+4PD/atmA9a79kMAxI1RUN9QIWDc4TMqAOY/blzeww6qIK+A6nIhW9P3gAQgBGJrA/qShUxWjqd9Sw2YlRL5Yw1AqPgChY0YAsadPpMCQJwFNTvGuMxHiIDOfdm64YnYEkC6oWJ8PjrTC7rvFE/2+xfqU1YO67vegwCIGFmgOtFDwJhMMy0A1MTNxmUu5KwSkYBG7di6ZgdEACIB8bCBKX9k1amvP33pzKtSJn9EAKJHKqhReBAwdgCZFgA6/yBT21ONy12cCKAKlVlfODseBACij287j97Eql5Lf/pQxSqs130AARAeDkBJY4yAsRPIuAC491fWC55iUsq47MWKAFkceHw/tq5/OL4EAXEQzbafvof12dd5u9ivyBkdauDstMgfEYAYsw+qnnUEjEk0KwJAdgScPdq47CUJAPv1KrVZn5+HfAEQA5EQA/qqu1gd1cHfPtOkPesdP0AAZN2towBAIDUEjB1CtgSA3vYtU6PWxuUvVQRINKBpZ9Yj74kECWDxXnQW76XclpMeYnVif+8X+hUZ+VO58qyXvpg2+SMCkJqjxqeAgB8IGBNo1gSATAXc9AxTjod7l4s6tcTfupztRK3x90EIICIQDhuY+ijbWf0qVTfu42WJZHlfXbnYFflDAPjh1nFPIJAaAsbOIasCQKYCxq83rkMqDs7+jFWO1fHns3VtfjhIAGQdv3a64QnW50xmqlY3Y/1C9RjqmvwhAFJz1PgUEPADAWMnkW0BIA5EXTDJuB4piwCJCpSrwOqkS9gaf2/8CAaiIphtLiP+s8YxVa2d2b7QLpf1jh8hAPzwzrgnEPAZAWNnEQQBoPMPsOp5uXFd0hIBthAob++l1sPXBpMUQNbRb5dr8+2U1lSlVubtv3kn1hs/NyJ/RAB89vC4PRAoBQFjpxEIASDrAXb/wqr7IOP6pC0CCtYJqIZt7dCrNfXR6JMOhEXW21hEpzrmbCZdLjs2L0f93v2hMflDAJTinfEWEPAZAWPnERgBICJg189ZFQG2eKhcg1XuYLau3pp1kkh5pTgIPRxtNekh1mdPYKrb3LjfuhW69veaHZt2sh8h+pIe1rwXjPEXAW5UJ0fI9/bZ3+L2QCBQCBh3mkAJAHEy+QdZDiLxwBmY36Nuc9Y9R2OtAASGe4KTuf1LF7Fq35PJytJovyDKJX1KHduT9eavSiTzkki+tNchAALFCShMjBAwJrnACYCCkYYauTIQDtMWIkqzat6F9blT2Zr0kHsyAJHGAztZyS+k3/FMppyKxn3UKzGsegxhvfMnT8lfhAEEQIwYB1UNFALGziWoAkAci5Ljg2vUN66jVw7Uvo9sJWx1sp2S1Rq7LR6EBuFSdjtPfJD1BbNYdTyLqWK1gNlsDqurlnlO/ImoAARAoDgBhYkRAsaOJsgCwHYw695napdrXE9PRUBSSJVqN2V18gDWg5biSOJYCYU9rK9ax7rHCFaNj/E/U1+yzaXzvPZRrBebN58LAAAgAElEQVTt9Y38EQGIEdugqoFDwJgYAy8AEosDB85msnKM6+ubEBCnXL4Sq6O72RnchBys6U+VPXKMFWmGPJXv2O32+RKqc9/M79dPh/QLPqty+7Pe8Kmv5A8BEDhOQIFihIAxIYZCACRWIC97ial5J+M6+yoCkh21CIImx9i7CuwIAbYYhkcQycl7ozbYW0Pt7Xo1GobH7ipXZzVmte/EjymAGDENqhpIBIydUqgEgAiBHT84uwQycYZAMpl78VzWD4ggOOUy1hfMtAnGmvZkeEgxytGKcTtZX7KQdfdhrFqfylShinHfypjQTLJN1fVST7f4JUi+tCvWAASSG1CoGCBg7KRCJwAS0YDV+1gdf7Zx/bPhpAv9piSCqdvcTgqjz7qW9eWr2Jr8CESBX2Jj2pPOyP6iuay6CdnnMlWuGX47atCS1cyHMjbqTxYEEAAxYBpUMZAIGDuu0AqAAiGgpuzMyLHChUg7acTly+tKMdVqbI9E5cwCSR6jL7uVrbHbGRGDFNcRjL+P9dCVrM+9wZ6CUe16sKrfmuXYW1/azG+bKOn+VWqwunyRHRlLJuVMPocACCQ3oFAxQMDYmYVdANiObtd+tvMG1KhnjEfgyUGSydRuUiAOLmU7anDRXCdycM0OtqY+Fv3ogUybjL+X9bA7WV+6kHWfSaxyh9jJdmySL18p+nZQrjyr869jveGzrIz6kwUGBEAMmAZVDCQCxo4uEgIgMS2w5RtWQ25kqlbHGJfAC4GSRoTyeqXqrOq2YNXyJFbH9mF12lDWva9j3W+GnaDGHhmPuJstEQxBSGw0+WG2rt3thOavuJ31wFtYXzjbJnZ7Tv748+1QvWpwtLP6XiIkpdU/yu8J8fceyXrNW1kn/oQIgAAIJDegUDFAwNgRRkoAJITA1m9ZXX4TUxwiAl6RXYXKTNXrsarXwlmo2OIEVvIQEdG+52+PzueyEkKWx4n9nfB67mA7F8Lh1+W95O+0PtW5l9yv2XGsGrRhqtnISZgTZzJPp+1yKrDqM4b1ne8EhvghAGLAMKhioBGAAEiQfnHXHT+yGr+eqUkHY5xiO+JMh6TwWe/tTLb0nTuO9dp/BY74IQACzQ0oXAwQMHY4kYwAFBUDcsDQzAdZdT6LCSNOY5uBGCL/MWzSwdnLv/37wBI/BEAMGAZVDDQCxo4oFgIgWRDI9sGLpmB6AKN1477juRCSMH9uf1ZzHrFPxUwQbNCvWAMQaI5A4SKMgLETi50ASIiBnT+xun4bqxPPi97WMJC7cb/wnNxLa5M2J7EaviQQK/rdiA0IgAgzDKoWaASMHV1sBUBCCMh105f2WgF1wrnBP2+gNCLBe8b9IWPE36S9ndFSr/p74EP8ZYkCCIBAcwQKF2EEjB0eBMCvhR3whs8cMdCpF9YLQFAY969CgqJeM2dB360vFLa5ZDEawucQABFmGFQt0AgYOygIgCICINkBr3mb1RU3szq2J6YJIAbS72uy4LR5J3vNib7luUiRfnJUAAIg0ByBwkUYgfSdUhFHDgFQigBIFgPbvrMXZ9kLCBu3M8a90MiwSJvgvQyssvcL84pVWKaS7NP41r4bWdKHAIgwq6BqoUHAmIggAFIUAMliQJ7LboIxq+1V21SpqnE7gPRDSvpKM7XqYo/y7dX7u/bHgvQhAELDEShohBEwJh4IAJcCIFkQyF7tG59kNXi+PfqjarWN2wWCIKCCQM4ZaN/VIfxp94Z25X4ygZs+xxRAhBkGVQs0AsZEAwHggQBIFgOJ5xIhGL/eXvQlI0SSkaJfYWfc1z9sazZwQvpDF7JesCerp+6ZErVf34cACDRHoHARRsDY8UEA+CQAEkIgcZXdBXn3s7psDqvci50jjCEKjO3XU1FVqxGr489mdeFkVhM3B+rAHb/I24v7QgBEmGFQtUAjYOxAIQAyJAASQiD5uvMn1stfcSIFF01xpg9wgJGxTZcpCqwcJtmH32MIq6ELWU2/j/XdH8Zu7t4L8pd7QAAEmiNQuAgjYOwsIQCyKACSxUDy8zvfYTX7D6xGrWLVbyKrky9ganYMU4Uqxu1dJjlGZTpBSL5hK1bH9bZP0VNXLmY1LZ/1ytdY7/oZZJ9sb4bPIQAizDCoWqARMCYECIAACoDSHLKMVBfudaIGA2ayOn0wU8fTmWRrYpUaxvYQGoEgi/EatGRql2tPqagLr2c15nYnj/4d/wTJl2ZDHr8HARBojkDhIoyAscOHAAiZACjLee/4gbUQ4KK9rKbuYjViBatLZ7DqNcyZYmjf1U5OQ/WaM1WpGZxsh5WqMdVpbIfmqe2pzshdQvRC7MOXsJqwifX8J1ivfJ31lq8xgi/LDjL4PgRAhBkGVQs0AhAAGXR0Xs2ZBu4+W75xzptf8SrrRU+zmvV7VpO3O49r73byHUjOg9GrnDlzmTeXxyV5znY4Wb9w8dTC741Y/tv3xt752/3yfsd6wVOsl77oLLLb9EWoTr4LXNsFwP4hAALNEShchBGAAAiAAwQpRCyKAptKK8ICARBhhkHVAo0ABACcdVrOGmIFYsVrG4AACDRHoHARRgACAAIAAgA2kFUbgACIMMOgaoFGAAIAzj+rzt/r0STuF74IBQRAoDkChYswAhAAEAAQALCBrNoABECEGQZVCzQCEABw/ll1/hixh2/E7nWbQQAEmiNQuAgjAAEAAQABABvIqg1AAESYYVC1QCMAAQDnn1Xn7/VoEvcLX0QBAiDQHIHCRRgBcwGAQ1BAoBBRsAEDG7Dm/pmtvL1GD1W3hbEvI6LeEfb1qBoQOAIB405jp1Y16PwYsYVvxIY2Q5t5aQPWrGeMyF/EA1WtY+zLIACO4Ae8EHEEjDuNvukZjH4ggGADsAGXNnCQrbynzQVATgVjXwYBEHG2Q/WOQMC406jx6112fIyivBxF4V6wp1DawM6fjcnfGrfb2I8VnGKJKYAjKAIvRBkB446j+k2AAMDoDzYAG3BlA9amr40FgL50kbEfgwCIMs2hbiUhYN5xOnRz1fFDOVqBk0dbwwa8tYG1HxkLANVtmLkfI5J7IAJQElPg9UgiYN5xrHKsN3zmrVOAkwWesIFY2IC14i1zAdCwrbkfgwCIJMGhUqUj4EnHURM2xsJZIWqBeXbYgMc2sOBFMwFwbT4TKU/8GCIApZMF3o0eAp50HHXCuRAAGLHCBmAD6dmAvQDQbAeA7jXWEx+GNQDRIzfUqGwEvOk8SrFe9ff0Oj+cJfCCDcTbBtZ9ajb6n76HqWYjb3wYpgDKZgt8InIIeNZ51Hnj4+3MQGZof9hAWjZgLX7dSADoSxd65r8QAYgct6FCKSDgXQcqX4n12nfTcgCYT/V4PhUEBPsLiw1I+H+mSQbAPay8W/yX8IPYBZACaeAj0UEgYfieXNWZw+GAw+KAUU7YajZt4I73zUb//WZ44rMKRv6Je0EARIfbUJMUEEgYvjdXbbFe9hIcazYdK34b9hd0G8g/yEYnAE55lKl6A298ljP3n7gXBEAKpIGPRAeBhOF7d21xHOtd++GEg+6EUT7YaLZs4K5PjEb/6sT+3vkrCIDosBlqkjYCvnQkddkcONdsOVf8Lmwv0DZwkPX8v7oWAPryVUzKs33/Rf0fIgBpUwi+EGYEinYAb/4uV571zX+CIw60I8YCRCxCzYIN3PWxa/K3Jj3k9ba/ov4OAiDMbIayp41A0Q7g3d+1GrJe9wFEAEQAbAA24NjAzl/Ymv2cOwEwfQ+r1qd6558Kh/4T94UASJtC8IUwI5AwfH+uHU9nvetnEAAIADYAG2BrxT535J+3l9VpQ/3xUYWFAARAmNkMZU8bAd87lTp9MOv8AyAAEABsIMY2YG36hq0Z7tL+6n55Xub7L83nQQCkTSH4QpgRKK0zePae6jsWzj/Gzh9z7VmYaw+Sve06wNa8512N/vWli5i05ZkvKrLvv+h9IQDCzGYoe9oIFO0Avv2tBs+HCAiSU0ZZYI8ZsgFryd/dkf+Q5UzlKvjmk4oRAxAAaVMIvhBmBDLZuVhdNAVON0NOF6PumI+6g2Jna92t+tcDb8k0+YsvhAAIM5uh7GkjkFEBIIpbXTCJdf5BCIGgOGiUA7bokw1Ym752le/fDvuXK59x3wQBkDZ/4AshRyAbnYxVr2Gsd/4Ex+uT48XoH6P/rNvAth9dbfnTfSZlcs6/qP9DBCDkhIbip4dA0Q6Qub/b5bK+5xOIAIgA2EDUbGDnz+ln+5v+FKvcwZnzP4W3/yV+FwIgPf7Ap0OOQMLws3Nt1Ib1bW+AAKJGAKhPfG161y+sF7yU3qK/6x9m1To3Oz6osBCAAAg5oaH46SGQ/U5XqSqrSVvi6zBBlmj7qNjA7l9YL/pbeuQ/aiNT3ebZ90OOEIAASI8/8OmQIxCUjseq90isC4gKEaAe8RM1Lshfn5/HlJPRbX5l+TsIgJATGoqfHgJldYjMvt+qC+uVr8XPeYIw0eZhtoGd+1nf+GLqI/9JD7HqeGZmfUvhUH9Jvw0BkB5/4NMhR6CkjpC913Mqshq6EOmDw0wIKHt8BI2s9p/3QsrkrwctYapWL3v+pXQhAAEQckJD8dNDIKgdkUkOElq9Lz6OFKSJtg6ZDVibv2Frzp9TI//JD7PqcmGmcvq79WsQAOnxBz4dcgTcdpTMfK98JVYDZrHe8SPIIWTkkPV96MDL3z5z18dszXgmJfK3E/tUr58Zn1H6CL+sMkAAhJzQUPz0ECirQwTj/UatWc15xF+HBsIAvrCBsm0g/yBbK95Kifita/NZtTs9GD4kNWEAAZAef+DTIUfAvHOWr2R+j1Q6p1Ksug5gvebtsp0UHDkwgg14bwM797N18ytlk//kR1h1vTyDufwVkzepgyEAQk5oKH56CBiTt17wFFPdpsb3KeZkruLvWa48q3PHsd78lfcODqQBTGEDxdvA+s/Zmv2n0sl/+h62t/ZVrV18301F6Kf7Gasc634zWDVs68VvQgCkxx/4dMgRMO40etMXrNf+i6nZMcb3SlkEiJOoUZ/ViOVYHwDCKp6wgIs3uOQfYGvlW2zN2Fsq+esBN7Gq3zqzPqBCVdaDl9nlggAIOROh+FlBwLjD2gJAnO3Wb1kdf7bx/dISASIE6jRmNXwphAAIzxvCA46HcbRP85v/l9KJ//JVrJp2zny/r1qH9Yi7D5cNAiAr/IEfDTkCxh33sAAQx7nzJ1Y9hhrfM20RIEKgfgtW16xFNkEQ2GECw04El6ci2qP+t9ma8fRhgrXyCkcA9KClrJp0ykpfl0iDNf7eQmWDAAg5E6H4WUHAuAMXEgBCPvkHWQ2am70jPSUicOViOyIBAnBJABAR8RUR93xZcmIfmeO/eL5X8+2ufI9q252tyQ8XIn8RJxAAWeEP/GjIEXDVCZNH6EcIgALyUPMfZ6rV0Pj+yb+V1vOqtVhdOoP1+o/j68xB5Gj7VG1gx09s3frGEcRqj/ynPsa67xSm2k2y159lsd9Z17KVt6fYMkIAhJyJUPysIGDcoUsSAPbo+55PsrMuIHklsewayO3PeuFekEGqZIDPxcdWdh9gvfo9tmYWk9Rn/L2sug1jqlzD2E+kJd6T+688r16f9RWriyX+xNQEBEBW+AM/GnIEjDt2qQJAiCT/AKvL5mRvSiDZmbQ5idX4e1jv+CE+Dh5kjrYuzgbyf2V992dszXu+CLHusVfWS6idlDb2D0bET8R2yP/63xcpY+H1CJgCCDkLofhZQ8C4g5cpAAqcjzMl0Mj490wdiv19mR7oew3rpS+CHIojB7wWabuwNnzFesFLhUl1/L2se45iqtU4GH20XPlSQ/6JkX/iighA1jgEPxxiBIw7e6oCwJ4S2PQlqzOvYlLK+Hc9EQISHWh1AqtRqziteoAgI02QUV08am36hq2bX/2N+G94gvUlC1i1zg3EaD/Rp1WTY9kavfm3chbZgZAg/eQrBECIWQhFzxoCxkTsijgle+BRRxv/dsJheHLNqcDqhHNZjV+PHQQQOJESONaW79ha/LqTzEdW8sve/RP7M1WuGbg+qHuOZmt68Qv9kgm/6HMIgKxxCH44xAgYOwBXAkAIZtt3rC6YxGSVMy6DJwIgea1ApaqsegxhNfNB5BWAGAitGLA2fs3WLa/ZK+f18LWsThnIVK1e8PqbzPW3PpWtcbvTGvUniwAIgBCzEIqeNQSMnYFrAZAglqUvMrXqYlwOz0VAQhBUqPxbZGDLN6Elg6iGtVGvorkeDrJe/znrBX91Rvq5g4Mzr5/oU8nXKjVZ95vumvgTIgACIGscgh8OMQLGxGssAEQI7PrZnoen6nWNy+ObEBCnVb4Sq5MvYDXuLtZ3fwgxkBBxuGbfFnb/wnrlPtaDF7M67rzghfeTSV+ey/bcfhPstTfWvBcgAEJMIih6eBEwJlxPBECCQOQ8gQGzmHIqGpfLVyGQcGZN2rO6aAqrOY+w3rU/+ySQwBHX+LTF8tdYD7yR1dGnMVk5oeg3stZG3/6Pw20EARBeAkHJw42AscPwVAAkiGvNW6y6DgjWboEE6Zd0rVKT1SkXshq5kvXK1w47N4Soi4ao8beRTaz7gNV1G1h1H8xUMyDbakvqE0Vfb30iy/HhResPARBuEkHpw4tAMAVAQgjc9AxT21ONy5iRaEBRZ1erIavug5wDila9eYTTK+oE8TeEQbE2sP5jVlN3sTrnaqajPDnzPvP9qU4TW7TIOSHF1RECILwEgpKHGwFjZ+BLBCAhABLXBXtYHdPDuKxZEQIJYVCjvrOYcMAsZ8oA2QiLJYPiCCJWr63eZ29FVb1HMjVpH64oWMLWE9e6TZ2jurd/X2pbQwCEm0RQ+vAiYEyqGREABUJAzf0jU8fTjcucVSGQcI6yzqHtqazOHeekJ5Zpg/wDpTrKWBFhQvxF+br2X6xu2M3qkunOmRlVArYvP2Gr6V4btnIiXymui4EACC+BoOThRsCYTDMpAA4T4IKnWHU+y7jsgRACyc61UlWmDt3s1dF2QqIlf2G940eIgrCLABF2q95kNWWnvchVFsFRzQbRs9/G7ZxQ/66f07JZCIBwkwhKH14EjJ1QVgRAghBufpbVSf0ClcbUc1EhiZLEsZ52CatBc+35YH3bG9h1kLCBIF1ljnvN26xmP8xq2K2seg2zU01ThcrG/cxzu0oWnqbPWx7P6vptriNYEADhJRCUPNwIGDumrAqAhPOXeVPJKhiVEGoqDlmEQaPWzrqCfhNZjVnNcuCSEJCWPeEJbHD1Hov1H7EW8Smr8SV8n9ufqXknO09EoIk6FbtK9TNWjr1TRy8yP2YbAiDcJILShxeBaAiABMlJeuExq5maHWNcr1A7ctkP3qAlq2N72qNQOY5ZjkG2BcLK11lv+9Z7Uky0QdivMuWy5i3WC/fao1p1+U2s+oxh1eUcZ1Fe+Urxtq2aDVgNmMl63fue2RAEQHgJBCUPNwLGziwQEYBiSEfITp16UTDPGkh1lOXn52S9gUwtiEiQcw8kijB0ob14S0271yZAe6phw2eeOfqsRSW2fsv6jn+yvvlPrGY84KyylxB9/2mOQBJyb3YsU41g5skPhBhtczKrCRt9ORsDAiDcJILShxeByAqAw2QjK62H3MjUOKR7qP0UAaneW45vlumVes0domx/mj0ilmRNsl3NzoYoZCoC4oqbnemIsWtYTd7uLHyb84i99VEyJiYeQsZ68fNHPGSnR+Izh6/T7nXude3dzr2HL3F+a8BM57fPuZrV6YNZnXS+s0uk5fF2BISq1Q5NdrxAkHxRe6he196lom99wVcRCAEQXgJBycONQPQFQHJ0YPkrNmEE/syBoo4YfxvbaSAJNojtKjn65Vjsydt9Ge0fFuZJ/RICINwkgtKHFwFjxxrUKYDiHM3h13b+xGr6fc7irXLljTEAuRAwDCKZp1OmVl2cpD33fOLraP9wH4QACC9roOSRQcDYcYdSACQ5H33PJ6xG3caqUy+sF0iHMPBZ476TdeHYvBOrgbPZXuuR3Ccy/BwRgMjwCSoSMgSMnVjoBUCys9v0hbNATLZ1VaxijE3WHTxIGm1Y1AbkBMsBs7JO+smRAAiAkLEGihsZBIwdZKQEQLIY2P69M03QYwhT5erGOEEMYJogKzagLaZ2uU54/673Mh7eTyb6kp5DAESGT1CRkCFgTGyRFQDJYmDHj6xmPsTq/OuYmnQwxiwrRFB0JIi/o9uOchJlz8udbXsh2MYJARAy1kBxI4OAsROMhQBIFgPyfP1HzrY0ObGtVsjOZAfxG9t84ARc+Ur2GhbZhmlvrSzh2N2SRuDZfh0CIDJ8goqEDAFjZxhLAZAsCOSgl8XPsxqywDmyWE75A8kCAz9tQGmmFp1ZXXh9JI6WhgAIGWuguJFBwNhRx14AJIsBeS4noYkgGL7U2WZYva4xxhAUMV8/IIcJyTz+RVPsdSl64+eBnMt3G0mAAIgMn6AiIUPAmJwgAH4t2xnLYUXj19tZ1ahVFybJrOfnCBH3Dje+Neo7yXgkpL9gT+SPhIYACBlroLiRQcDYUUIApCAAikYJJPfAzAdZDZ7PKvdiJ20tRIGxLYZSVNWox+q43qwunupk31u9r2xBWdSeQv43BEBk+AQVCRkCxk4XAsCFACjOYW/5xh7t2VMHsriwXS5TTgXj9gklKUY1giGr8yXN7oBZTig/hmRf3DQBBEDIWAPFjQwCxgQDAeCRAChOFOz4wVlPMHEzq0tnsDrtkvidOx82MWCVY2rU2iH6CyaxGruG9YKnWG/6MnYj++LIvrjXIAAiwyeoSMgQgAAojniD/prsPFjzFqtZv3cWG/YZbR/rS3WbIp1xpgRDzQZMckSu7LeXHSBTd7Fe8WrGDtApjkjD+hoEQMhYA8WNDAIQAEEnezfl2/SFEzmQ43hlN4KsHpf0xrIAUY71zRRJhvV35ICoBi2dlfe5/R38xqx2wvZyhPHWbzGad2OXJXwHAiAyfIKKhAwBYzLAFICPUwAlOEzjkd7mr5zR6o1Pspq8g9XIlawGzmJ1ztWOUOjYnalJe6Ya9aKzY6FSNaZGbZjansrqpH6szryK1SXTHYE0YSOr2Q+zXvYS67s/BLn7ZXcl3BcCIGSsgeJGBgEIgBKckjHJRuW+Mt0gR8TKgrUlf3EWKkpaZIkujF3jEKjsZpAow9mjWfUYYosIiTiozmc5Geo69XJOW2x9ohOFkEiEPBq2ckbaMtqWR4vOhd5Xx/Qo9H11yoXOvbsNZNV7pJMIR4TLlbewkhH6pK2s8u5nNe8xOwKib/8H63UfRH4bXdhtFQIgMnyCioQMAXMBENADRsLuFFH+EEZWoiL6MlwPa86f2crba/Sg2k2NfRkR9Q6Z/0ZxgYARAsadRi9/BSHTDDtMiAOIgyjZgDXzWSPyF/FAlT1Z2wIBYEQn+HLYEDAXADc+CQEAAQAbgA24s4H8g8bkb03fw2TlGPsyRADCRl8orykCxp1GjV7lruPDYQI32ABsYMdP5gJgzGZjP1awMwYRAFNGwfdDhYBxx5GFX1EKR6IuCK/DBjJoAxu+NBYA+qK5xn4MAiBUvIXCeoSAecdpcRwEAEaysAHYgDsbWPOBsQBQJw8w92NOzgpEADwiFtwmHAh40nEkKx1GTRkcNYFsYG8RsQFr2T5jAUC1Gnvix7AGIBykhVJ6h4AnHUcSyUAAQADABmAD6dqANe95IwGgR23wxIdhCsA7UsGdwoOAN52nVRcIgIiMyNJ14Pg8SN+1DWz/0Yj8ZfufOnWQNz4MUwDhYS2U1DMEPOs8+uZnIQIgAmADsIHUbeDOD80EwNRHmSpV98yHYQrAM17BjUKCgGedR3UbmHrHh5MEVrAB2MCivxkJAN13imf+C1MAIWEsFNNTBLzrQEo7ueLh2OHYYQOwgbJsYNsPbM0wSP879TGm6vW981+YAvCUWHCzcCDgaQdSx58Nx1eW48P7sBHYAFu3vWs2+u852lPfhQhAOAgLpfQWAc87kZrxABw8HDxsADZQsg3s/oWtOc+5FwDj72OqUMVz34U1AN6SC+4WfAS870S1GrHe9EXJnR+OEdjABuJtA6vfd0/+svK/bXfv/RamAILPViih5wj40pHUGVfG28GB4ND+sIHibSD/AJsc/6vPn+6Lz8IUgOfcghuGAAHfOpOatKV4BwDHCFxgA/G1gdsN5v7HbPEr9J/wg0gFHALSQhG9QyBh+N5fy1fCrgAQXXyJDm1/ZNtL4p+Zz7oL/09+hFXdFt77KSf0n7gvBIB33II7hQCBhOH7c23YivXGz490BHCOwAQ2EDsbsG55zR35T9/Dqt3p/vgoCIAQ0BSK6BcC/neqNiez3vpt7Jyd6/SoIEbYShRtYN2n7shfFv15d9pfWf4OEQC/mAb3DSQCZXUIT95XnXqx3vEjHHsUHTvqBLsuywa2/cjWbHehf91jhCc+qGCRX1n3ggAIJE2hUH4hUFaH8Ox91fVS1rt+hrMsy1nifdhIpGzgIOtFL7sa/euzJzCR8swHpSACIAD8YhrcN5AIZLJzsTrhXNY7foCDj5SDx2l4mO4p2QaslW+7I/8zrs40+YsvhAAIJE2hUH4hkFEBIArcThe8/XuIAIgA2EDUbeCuj12Rv+p2Zcb9EvIA+EUxuG+QEchOR5OFgXd/CAKIOgGgfrG1cWvT12zNfCY9ATDtSVZdLsyOT0ImwCDzFMrmEwLZ62y1j0KeABBkbAky0tMGW79na3aauf4nPcSqeZfs+SMIAJ8oBrcNMgLZ7XCVqrGafh9IAEIANhAVG9j6Q/qpfkdvZqrdNLu+CAIgyDyFsvmEQPY7nVKszh3Hetd+kEBUSAD1iKct7/iRrbnPpxX21/1v9Du9bzo+DosAfSIa3DaYCKTTOfz9bPuurNe9H0/HCcJEu4fdBrb9kB753/A4qxP7++tTCmf5S+W3IACCyVMolU8IpNIpMu5mTP8AACAASURBVPeZKjVYTdgIMgg7GaD8sbJha/O3bM1Jfc5fj9zAqkGbzPmV1IUABIBPRIPbBhOBIHZCVrn9cYYASDRWJBraRYEbvkr9gJ/pe1ifdS2TlRNIv4M8AMEkKZTKPwSC2hGZ6jRmlXc/SABCADYQVBu46xO2ZqS41W/URlaNjwmuv8EiQP9YBncOLAJB75BO9sA73wEJBJUEUK742Wb+QbZW/DO1xX5TH2XVbViQR/3JPhBTAIGlKhTMDwSSjT+4zytVZTV8Cc4SANnGj2yD1uY7f2brpldSIn894Gammo2C61eOXBsAAeAHy+CegUXAvHPWzeD+3SbtWc14ACQQNFJAeWJhk9bmb1Jb6S/h/lanmPuWIwm6+HvmVGSqVL3491K9B6YAAktSKJh/CBh3Gr16H1P7rsb3SeGkrsO/oY49g/XSF2PhdEO7OAyiIEL2eZD17e+yNePp0kf+ks1PtvZp63BfTadfu/psldqsh69l1bCtF7+JCIB/XIM7BxAB406jN33Bevv3rE69yPheaTkAbbHqeTmLAAFJlnwaG7ABNkY2sO1Htm4q4zjf6x9m3X1Y5hP61GnK1jU7bFECARBAdkGRAo+AMWnbAkBGe/kHWQ2YZXy/tESAhO2sHFY9hkAIYMQNIeilDeT/yvrOD9maVcoq/yl/dLb1Va6Z8X6vGndka+IDhyMSEACB5xoUMIAIGHfcwwKgwPmo4UuZlDa+b9pCIKcCqz5jWN/xTxCBl0SAe8XPnrbLqL+UhX4y4j9jDFPlGpnv53KkeIcz2Lrh8cPkb+XtxRRAAMkFRQo+AsYduKgAkHCjyvsdU7XaxvdOWwTYEYFyrLoPYr3spfg5bpA12tzEBvIPsr7jg5JH/dfdzyp3SOZD/YmFfEqzPn0EW3l7CpE/BEDwiQYlDCYCxiRdnACw5xzXvsvU9lTj+7sSAeIw5JChLuewmvuoPT1hNA9q4lTxXZByGGxAMvrN/8sRxCrkao3ZzKrLBUzlymevP1etw3royuLLhwhAMNkFpQo8AsYdukQBIE5v18/OuoBsTAkkRg1ybdSGZWpCb/0WZBQGMkIZM2enssjv1jeOJFZJ2ztoKavWuUykjP2EayEvIf9mx7M1/r4jyyjipOCBNQCB5xoUMIAIGHfsUgVAgSOXlL5ZmxJIFgKVq7M6bzzrla9lzsGCzIB1EG1g1y9srXz7yFS+E37H+oyrmWo0NPYNJqRvfzcR8p9+ZMg/QfyJKwRAANkFRQo8AsadPBUBcHhKoGN3498zdioJQdAul9U1axEVCCI5oUz+iabdB1ivfp+t2X86PHq2pj/FkrVPtTudySoXjD5avUGpIf8E8SeuEACB5xoUMIAIGHf2lAWAOHXZKjh6FVOlasa/65kQkDTDZw5nvWAP1gqAeP0j3mxjKwv87vqYrXkv/Eb8Y7aw6no5U7V6wemPsnbnxIvZmvzIb+VMCvUnCL/oFQIggOyCIgUeAeOOn5YASDjBdR+wOuVC49/2TAQkogJyAuG54xwxkCgrrtElxTi0bf4BZz//3OcdQh1/r713XzWRk/myO7d/RP+t1Zj1kBVpEX9CCEAABJ5rUMAAImBMwq4EQIHjVZO2MNUI0OgjIQTk2qQDq0FzsV4gDiQZxTpKqF+29M17nq3r7md9zvX2YjrZHXME8SbbfTaeSzKvblcesbc/Qe6pXCEAAsguKFLgETB2BiYCwF4bsOEzVj2G2tv2AueYEs6wcVtWF9/AevGfMU0QRbKMUp127Gdr1btsXZfP+sxxrJocG+y+dfQprK/Z5mrUnywMIAACzzUoYAARyL4ASDjfm5/Nbt6ABNmXda3blNU5VzunEm77DuHxRPvhmlVbsDZ+xfq6Hay6D2PV4Gjjfu27GJd+NGGTLagLrUtIYb4/mfgTzyEAAsguKFLgETB2FMYRgCLEoabfx9SgpXG5fHdgIhRyKrLq1IvV0IWsFz+fVQJAoqMYHvpzz8esrr6L1cn9mapmKfNmWYK56PsVqti5QeQAsYTNQgAEnidQwIgiYEy0XgsA2yns2m8n7qEq2ck17lo81GrIKrc/qzGrWd/5zmEHl3B0uMaQpIsIXCMb2PYtqzmPsOo3iVXTY7Jz5kZRQk/1b6WdQ7vu/vCIfgEBEFF2QbUCj0AwBUDCaW74lFXfsdlNQZqqgyvuc7J2oM8YVpO2sl77ryMcnxEZJDDCNbq4bv6K1cwHWfWfxtT2FCYdkD36xdl6Ka+p4/uwXv5yie0EARB4nkABI4pAsAVAgtzWf8TqoilM5SsZl9f16L4UB5fyPSVCcMK5zpSB5B3Y+VOJThHiIIbRgnXvs5q83d6KSq26hGuEX0z/kOkxfdMzZdo4BEBE2QXVCjwCxoTqyxRAgviLXtd/7JwtEKREQsU4vpQFgRyu0qqL7fDV+PWsl7/CWvZtF603/o4eJkL20++z7VlEIdWob9wXU7Y7E5st67uSyOeEc50dMynaLQRA4HkCBYwoAsZOJ6MCIOFQ7vnE3pYXqIyCZTnGVN+vVJWpY3dW513Lauwa1jf/ifU2HGIUWlG0a78t7GQaSLaS2mRfKwB59lO1x1Q/py1W3QY6IjbRT1O8QgBElF1QrcAjEE4BkHAsm75gddkcpig61GTHK6cpNmhpZ09Ul+Q526ckJ8GWr6M3Mk60bdiuO350iH7qLlZDFrDqPoipeafwrl9Jtr/SnleozOqsEaxX/d21LUIABJ4nUMCIIhBuAZAgCdk1MHFzOPIIlOZM3bwn4qfj6ax6j2R15S2spu5iveQvnJXITKI9onqVrWsrXrVzQKhRt9knS8oCN3vbqraM+1IgQvip2mD9FqyuuNkTO4MAiCi7oFqBR8DYaQWOaBY/z+qMK+w9+qFyqKk63nQ+V7m6PQpVJ/VzphREIEzYyPrGJ50RGxIZ/TZqlQWZa99lvWivLaLUVcvshaeq6wCmo0+Jzhx9OvZT9LMyvy95L6bd6+laFQiAwPMEChhRBKInABKjT1knMORGpjpNjOsYaSEhIqFJeyeKcNolzrbFATNZjVhuTzWo2Q+zvvUF1qv3sd7wGWuZ005gHOTrpi9Yr3mL9bKXWM9/gtWUnaxGrbKnjOz1Fd0HsTqutxOmr9kg2OlyixJxpv+uWMW2C73yNV/aHgIgouyCagUeAWNyDFwEoCgp7f6F1ew/OHOyFSob1zfSYiBVYpHtmLJqvVFrZxeDjAqP6+0kQeo6wJmO6DPaGUH3n2Zve5RsiYUeo1fZCZMkaVKhx+U3Ff6cfE8EyUVTWPW9xrn36YOd3zqhrz0itUfoImLqNA7WUdOp4hnEz0ninmPPYHt3ylZ/F6FCAASeJ1DAiCJgTIiBFwDJgmD7984+6069MOILIumgTMb90VigHnW0k6pXIj7JfcfH5xAAEWUXVCvwCBg7nFAJgGQntvZf9kjTHsWCeIztwJh40AbZa4MqNezIipbkVPkHM0b8CYEBARB4nkABI4qAsdMJrQBIiAFxeDc/y+rCyU5IG0RkbBMQAxR8DKvVYdVrGKu8+1nLFsZEf8jCFQIgouyCagUeAWNHFXoBUNThLX/FiQy0y8U0AcSQcf8IlBiqXtc+kEcyEAZpMScEQOB5AgWMKALGDi5yAiBZEKx52zmV0BYD2hirQJEByD0e7VmvuZ1qOlvh/VQiCxAAEWUXVCvwCBg7wUgLgGQxIAcSXbeBVY+hTLJtDAQKDIJoA7JlT3ZHXLWM9crXsxraT4X85TMQAIHnCRQwoggYO/HYCIBkMSDPV+9ztq/l9meS/P1BJAOUKfrtImmi5UAp2SY555Gsz+enSvrJn4MAiCi7oFqBR8DYQcZWACQLAtleKLkGLpjE1PpEJiuc57ZDxIRg8Z6IukZtWJ05nOWAIb3h01CM8pMJv+hzCIDA8wQKGFEEIACSidyr55Jid8EeJ6GNHPVatZYxziDnkJCz11EXEZOJI6Mnb2e9/uPQEz4EQETZBNUKHQLGxIQIwK9lO+TdvzgnxUnWux5DnNS7XhMF7mdsy4EQWZWqOvn2B8xyQvpyAJFXwjSg90EEIHS8gQJHBAFjpwkBkIIAKM7xbvrSiRIMX/qbKJD5XBB5fDCoUpOpXa69St9Oubv8FU8P2QmLcIAAiAiboBqhQ8DY2UIAuBQAxYmCLV+zXvCUvYLbPtFQzpO3cozbCKIiy9MHStlHBqvci1kNns9q5oOs130Q+ZF9qgIEAiB0vIECRwQBY3KBAPBQABQnCnb97Ow4mPOInZNA9R7pHIBTq6Fx20EYeCwMypW3p3dUbn9nVf6Y1XaUR2/5BmRfnG0XvAYBEBE2QTVCh4AxiUAA+CwASnGc9gpwWWw4dg2rC69ndcqFTK1OYKpRz7hdIQ5KEAey5bNJB2evfZ8xzrHJs//Aes3bWcmjn+ooO8ifgwAIHW+gwBFBwJgoIACyKABKEweyeOy2N1jNfpjVNWvtE95Uz8tZHdODqWErJjnSF+sNCmMg0y21j3Lm5bsNtM+HUCNXsp06d9lLrGXdRmmY4z1X+EAARIRNUI3QIVDYAbogBAiAgAqAVMho27es7/gn65uesUlOjbvL2brYb4KTM/74Pkwtj2eq25RJFqyFbZFipWpMMlXStKMtfJSQet9rWF02h9XoVaym7nJC9JIxb+PnrsgLgsDc/iEAQscbKHBEEDAXAHCc8SIOyXFwzyf2ugS95C/OToaZD7GavN2ZipBdDUMXOo+Lpzpz4ZKlTh69R9nHztrrGGQtw2mXsD1fLnPm8pDT6eT1xKPfxMLflwV0cu8rb3GyME7aap9mp+Y9xnrx86xv/4ezuE4WU6YigPCZQOAEARARNkE1QoeAuQC4851AOBE4fPORGDAEhtmwAQiA0PEGChwRBMwFgMyNYiQFDGADsAGXNgABEBE2QTVCh4CxALAPIHHZ8SEcMOKEDcAGIABCxxsocEQQMBcAw27FyAcCCDYAG3BtAxAAEWETVCN0CJgLgJ6Xu+74GP1h9AcbgA1AAISON1DgiCBgLACoQUsIAIz+YAOwAdc2AAEQETZBNUKHgLkAIGK9/GXXnR8jQIwAYQPxtgEIgNDxBgocEQQ8EQBq0DwIAIwAYQOwAVc2AAEQETZBNUKHgCcCwJ4GyD/gqvNj9Bfv0R/a37D97/mE1bR8J0HSGVfaZxRQx9OZWnUJzUM1aseqYVujB+VU8MKXvUdEr+IBDAJgA08T0cNEtI6IphBRXyKq7rXC8KLT2Pew86VjBAQRBBvw3wZWvsbq4huYmh3DJEcNu0jhje+UcNgTsIQ9BdcG/ueQEHiJiGYRUTMvxIB3jd3xdP8dH8gFGMfVBvIPsrphN9PRp3jXZ4Pr6FBHtA1soHQb+F8ieoKIepoIAU9BVjMfAkHFlaBQb99sX8191D7QCKN2jNphA7CBYmzgOSI6zo0Q8FQAULNjWWMtgG9EgPlyw/nysImUjZ+z6n6Zt3209FEFfgv4wAbCaQP/TUQriKhiOkLA88ZWo24DAYaNaFDe4NnsoqeZ6jXzvH8WM3rAb4TT4aPd0G7F2cAbRHR0qiKguBuYvVaxinPGPEgleKSCNglFm6iJm5nKlTfrh3COwA82EFcb2E9EPVIRAf4AJAsCMRUQCrLBtEKwphXUiBVMSvvTL0EIwBU2EBcb+A8iuqgsEeAbGGrALBAgRtywgYQN7NzP1uZvWW/8ivWGL4t9qNGrsa0PBOWbT8b0T+wWEP4XEfUpTQT4Z2xKs8q7HwSQIABc42ULu39hvfYjtha/ztbs59jK21vqQw9czKQt//ojiBXYwgbiaAO/EFGnkkSAv4BUqcF65evxcvwg+ni3946f2FrxT7ZmPlsq4RcSBNfuZqpUw9++COcPfGEDcbWBd4ioanEiwH9A6jZlvfbdeJMCREH02z//V9Z3fMDWrGdSJ347KrCHVdPO/vdDOH9gDBuIsw1szI4AEKNr1Jr1+o+jTwIg+ni28c5f2Lr51TSJ35kS0H2nxNkpoe4gZdhAZmzg30TUq6gIyBz4rbqw3vBZPAkCwiC67b5jP+sb/+qK/K3rf4/Qf2acX+b8HOoDrINrA/uIyEoWAZltrMbtWK97P7pkAKKPV9vu/MU9+eftZX36VZntf8F1TMABbQMbyIwNDMqeAJAKNmrD+s534kUUEAbRa+/8X50V/mWs7i+02C/5s1P+iNF/ZhweiAU4wwZ+s4E3iUglREB2gKnVkPUtz0WPFED08WnTNR+6C/sXiAB9/vTs9L3fHAF+H1jABuJpA12zKwAE9AqVWU3ZGR/CgDiITltLUp/ZaWzzSx75FzxXzbt47nw7tSOefS3xtuXET24h3rMVD2AAGwiEDdyj+amV5VN6PLasPG+emcOTLyvHLRspz/0EEa3LvgAQESDJggbOQtpgiINQiQPrtneMRv/WxAc8zfjXsQ3xE5uJ+QM8gAFsIKg28O+/lud/P1cxrcf/PFuRt8/J4aPqeioEvktMA/ihLtK+p+p8Fut7PgkVCSCHfrBy6GesPXYfMB7964vnp91HSkrjen4v4gNvwukH1emjXLDNwzbwDyst8k8WC18+WIFPaufpGSHHSRTAM0dkfK86jVkv2AMRgGhAsG1g3admo/+8vaxOuNiTfnfqccT/8RYc7GEHiwgIokBBtoH3if/95/QiAMki4JvfV+DmDTyLBEwKlgBITAmcO471jh+DTQIg6di2j7XkTXMB4EHmv5xyxO/tBfmD/GEDYbKBf/8t/WmAZBHw9CrPjgm/J3gCIBGRaHYs62UvxZZkMhbOhpBJ28aseS8YCwCqWts4AjBiABx/mBw/ygp7tW3gjXKupwESQuD0zp5MBfw5uAJAhEC58mwfKYxoQNokBQHh0/oEmf/Pe9pMAEx7wpj8Zbrt8U1wqCBV2EDobGCf+3UACQGwelKOFz7kk2ALgEQ0oFEbVnP/CBLEaD37NrDtBzPyly2Akx7yovPy/tfh/EPn/IM8P42yZWb9xNvaOALw8npPpgF+CocAKBACqvsgpBGGCMiqCLC2fGcuAMbtMhYAlSqC/EH+sIFQ2sC7ylgAyI4A40X3RP/tjQDo0M2LwqR2jwpVWA2czXrbd1klAoTYfQqxB1zgWJu/NRcAY7enZuuJCFgx11o14PxD6fwxys7MKDvIOP/LXAD8+EdPBID4IfNtgLJ/X501wtippVWWOo1ZjV+PBEIBJ8yoCSUIAAgPCA/YgJENRE4AbPrCHo2r4UvtzH5pEbmpAGnSgdXk7azzDyIiADHguw1AAMD5Gzn/II9MUbbMRCeiKgBktCdkTDkVMxsNEBHR7BgIAQgACAA48cw4ceAMnN3aQJQFgC0C5j7KVLl65kWACIE2J7GaugtTAxADvogBRAAQAUAEADZgZANRFwD2vO+qN5ladM6OCBAh0KAly5SE3vGDL0QQtblt1Ce1RY0QAHD+Rs7f7agR34tOxCEWAkBGoDt+YHX26OyJABECsljw8kWsN3wGIYCogLENQABAAEAAwAaMbCA2AqCAcCQkT1VqZFcI5FRglduf9U3PGJMARsupjZajiBMEAJy/kfPHSD46I3m3bRk3AWATQbanBCQakHi0P43V+HtYb/8eYgBRgbRsAAIAAgACADZgZAOxFACJKYHzxjNp6zcyTpByNq5VarDqM5r14ufTIoEojmxRp9SiGhAAcP5Gzt/tqBHfi07kILYCIDHavOkZpiYdgiECEsKjRWdWw5cg1XCijXAtVhRCAEAAQADABoxsIPYCQMhl135WQxcy5XiW0tAbQaE0U7tcZwfBhk+LJQGMllMbLUcRJwgAOH8j54+RfHRG8m7bEgIgiUCWv8J09CnekHdiNO/VVRYOntTPWS9QkO0wiqSGOiXZYxmRDwgACAAIANiAkQ1AABRxuPkH7BF31ncKlCYcrBxWnc9kNXoV67s/RGSgDKKMqqiAAIDzN3L+bkeN+F50IgcQAEUEQIJMNnzKqu9YJisnmBGBhECQaYI2JzunEt7yHLIOJtovBlcIAAgACADYgJENQACUIAASBHLbG6xOPC/YIiAhBuRaox6rHkNYTdzMcjJiVEe/qNevDAEA52/k/DGSj85I3m1bQgCUIQAKhICa9xhTi+PCIwQSokDSEPce6RxOhLUDkRJEEAAQABAAsAEjG4AASE0A2CNOWR8wbh1T/RbhEwIiCCTngRxQdMEkVjfsZr3+40gRYtyiAhAAcP5Gzt/tqBHfi07kAAIgDQGQmBaQbYMiBBq1CacQSEQH5NqoNauel7O6+g7Wy19mvfsXiIJEOwf8CgEAAQABABswsgEIABcCIEEMu39hNWFT8BIJJRN8us8rVHFyD5x3LavrNrBe+ToWFibaO2BXYwEw/SnWg5cZi9haNeCEjZwwRtTRGVGHrS0hAAwEQIIQZGpgys7sHjmcLtGn8/lKVR1R0HsUq1G3sb7xSdZYT5D1SElaAmDCAzbZ6zPHserUl1XDtkzlyhuTv5xpAQEAAQQBFFIbgADwQAAcFgIHWeX9jlXns5iU8sS5Hj40KB3CztRn6zRhdfzZrM6/zs5JoOY+yvqu97JOjHFZC3CEAJi+h61rdrC+7FbWZ41jdXw/Vs2OZ6pSy1dbhAAIqfMP22gV5fU+UgIB4KEASAgBucr2QckjUKmar843kAKhYhWmVl1YdR3Aqv80e32Bmv0w61Vvst75EwRCsp2k+3zHj/a0jJr5IOsrb2V1ymWs2p3Oqn5rpnLZSWUNAQABgAhASG0AAsAnAZBw7Fu+ZjViBdNRR8dPCBQXiZDERbWPYpJjkEUgnDee1ZWL7bUUesFTjkiI69HIIo7WvMV6wR5Wk7ayGnarE13peqk9BWPjFsDIEgRASJ0/RtTej6jDhikEgM8CICEE8g+ymv0HViedz2SVgxgoThwkvybrDmS7pWQ57HIOqx5DWfWbwGrwfFZjVtt5DdSs37Ne9DTr5a+wXvsu681fBSO6kH/AWSOxeh/rJX9hPf8JVtPutRdVyimP6pLprM4awerkC2whRI3bMlWrHVqbgACAAEAEIKQ2AAGQIQGQEAJyXf+RPbqj5p1C6/QDOfWQEBBVajBVrcXUoKXzaNWFqdUJrDr1cs5QyO3PquhDtkJKwqSiD4lSFP2srHvo1MsWJzLVIVsp7d+qVodJpj8S5YjJNSoC4D/fJv7n48QP3Em8fCbx3OuIp4wkvnqwP49Z44jX30z8+QshJY9iRrsH3iR+5SHinSuJl0wnnjeBeOooB78bRhPPn0i8NI949yri1x8m/nVfdOpelgj6r3eIn9pCfNMU4gnDiAPR/hAAWRAAyWJg+SusLprCVLNB7IgjbkQZ1fqGVQD873vEf9pFPGc8cdcTiMtZlJU+qBTxRb2J33kyfGT46Z+JNy8hHtafuHnj9PGTurdpTjxqIPGOFcRfvxg+DMoi/v/3LvGKWcR1axWPT1bbHwIgywIgIQZ2/ezsIDjtEqacillxRFElKNSreMfjFS5hEwAfPEM88xripo38xSVdfKtUIr5/TfAJcP/rxFuXEffuRizklW49S/u81sTdTiS++ybiX/4efCzKIv8fXiXueUpqGGWl/SEAAiIAEkJArtu/ZzX9PvtQH6pc3dMOVlrnw3updVTgVBinsAiAfY8RX3lx9kb6qdiNZRE/uiGYxPfhs04ov0L5wu2fSr3cfEYI8foRxF/8JZh4lEX+//EW8Wld0sMq4+0PARBAAZAsBnb8yGrOI6zOHYdpgpjMqbtxltn8TtAFgIzCxgwiltFlNnFK9bclVCyj7LIIJlPvf/Y88RUXZU84ieC4Zijxt38LDiapYJ831p29ZbT9IQACLgCSxYCkHp73mJNfoG7TUDizVJ0ePufOWQQBtyALAFmMVtLcaxCwK6kMsi4hFZLx8zMyd71qDnG1KsGwzZrVnfL8z7+yj01ZuMtahkoV3eOWsfaHAAiRAEgWA/J89T5nS1xuf8ZUgfvOVpITxuupYRpEASDh14nDUyt/ENu5RZPsktxbTxAf2zaY+OUeT/zxn7KLT1kC4M4FZthlrP0hAEIsAJIFwa6fWS9+ntXQhU7SGEm4g5A5MMiADQRNAHz1V+LjOpg54CD0HQm9l0U0frwvC/xk/j0IGJRUhupVie+7Izv4pIL54H7m+GWk/SEAIiIAksWAPL/nE1YTN7PqPYqpaUcmCIJAO7SSHF0YXg+SAHhvL3HLJubONwi4v/i7zBKcbIu89vLwYCc7ECRXQyqEnOnP9DjZHMeMtH/ABMB/mXY8ve79YGSDK0rI2f57yzfOYsIBs5wkNhUqgxAzMDo2tecwfD8oAkC29zWsZ+54g4L5yw9mjtwkSc2g88OJ3VWXEv93wNYFnHisOZZ7tmag/QMmAL437Xx6xasQAKmIjV37Wd/0jJOH/5QLmeo0gSCAIHBlA0EQALLoqnUzc6dr6n+8/P43L2WAAD4glgyIfbqHG7uB5xIHaXEgBIAre6KPTDuQHKQSl+NgPa/nhk+dKMHli+yDeuwDjDB14IoUTe04TN/PtgAQAjupkyuHE9i27dQuM+QvYX8hzzDZW0llla2emQ71l/R7EACubIreLKlxU31dXX0HBEAqEYBUP7P1W9aL9rIauZLVmcPtnPokB/VgtBxODGo0ZNX6VFanDmJ9/nTW/W80rke2BcB1V7pyNsb19rMPSOrYksjFy9dlf72f9cj0vYOyJgACwJVd0aOmBqPOuRoCIFVyN/ncXe+xmvsoq1Gr7CRFqvNZTPWaMwXwuFpTmwrd98uVZ1WvJau23VnlDmZ97g2sh61ha/LDbOXtLfwYu92YALIpAB66y5WjMa6znzbRqimxbGP0kuiLu5ccRORnPbJxb1kY+OBa/7ErDs/k1yAAXNkWrTA2mtYnQgCYELvpd7d/z3rJX53z7OXo3rNH28f5UpMOjMiBq05RvJOuUY9Vy+NZ4hKjiwAAIABJREFUte/J6pTLWPeZxHrQUrbG7WQrb09hki9K+sl/h1gAyMlzjRt4iGkAolqy/e6NR/wnMEmLXDngW/3ccoEkDPooy3kCIABc9Usa47bRD39PadbrPoAIMCVyv76/6QvWS190zjoYsYLVhdc76w3ad2Vq3JapWu3iCS8AzvmwjflZFomgyMmQLTqzOqEvqzOvYiU7N8asZjXzIdYrX7PPipD1H9bmb1Mn+mTST34eYgEgR/VmpE38bO+kezeqT/zSA/6Tv6yZ6NA6WtgVtQNJFiTrG5JH5Zl8DgHgyr7o9KIN6eZvrAMIeW4DSWokIm7Z31jN/SOrCZtYXbWM1SV5rHqPZHXKhc5WxjYnMTVpz1SvGVOVmkzaChYhyFZLIfNGbZhadbHLrE67hFWfMawGzHTqNGGjQ+yLn2e99l+sZXdGiuIrzgLgk+eIc8q5cjLBshEilhHrDaOJf3otM4S18Ppo4FYWN9y1MDN4FicsIABc2RhVISLjXADUoVvKTjRVZ4vPhURU7PiB9YbP7DTJMhWhF+51djbIgUpTd7GavP23xzVrnZG1jK7lceUtdiZFyaZ4+CFrHBLvJ64iSOQ+Mx6w7y2/IVkY9fKXnd+VKMfuX3y3wTgLgPFXuHIwKZO/rMIfeiHx5BHEi28gvnWa949NtxI/u5NYcu4XRyJ+vCYn+pnkqC+LdBPvy7qQs7o6iYVmX+tgN2sc8dghxL1yM3O+gJThu5czh21ye0EAuOqfJP+eTxiRydV2yCmOpEDuISF3tGchURFXASCnwvlBYvXrEC+Znv3542Qi8fr5gL6uHHNKwqlebWKZlnn192WH3yVxzwv3EouQq1HNvzKNuxwCoFQbClgiIBEAN5oQf+K76owrCjlLkDxIPmo2EFcBsHK2t4RRziKW09dkUWGpzvKDcL//9pP+HIksI+3bZhP/n33u8Pn5DeJFk/05f0COEv7yr+7KZWILiAC46qN2BMCTdQBk5bC+7Q2IAIyaI2sDcRUAXTq6ci7FjmLlqNtH1meeIEzIxe13h/X3DrfEQKt/H2KJyLgtU/L35PAbmTZI3Nurq0zjJP9OJp5DALhqR1sAaCL63IvGl8ViURv1oT6IZCRsII4C4N2nXDmWYklFTpT7x6OZJ4dMEFDR35ATEiXS4YVflXvIfnuZLvn3+97iJ+l888Z6V04pq2ytzHR0BwLAVRvaAkD+W+KZoc5/HCIAUYBI2kAcBcCaG105liOIT2vih2My8hcxsHymN7glyH/jYm+Jv6hgWTbDu/JKmbcs9be8RcsPAeCq/Q4LgI5eCQCq34K1pLMFCQKDiNlAHAXApR4tYps4PLOEUJQgMv33cR1cOeQjhJP4ZRETmSi/l5EAmVrIRJkTvwEB4MreDgsAefKyVyJA9R0L8osY+UHQxTMR0FH1XTmWQkQmof9sbQ9LEEQmr7L4zytfKgcHZarsksjHqzUBEvHJ1OmKgg8EgCubKyQABnpltJKfXuXdDxEAERApG4hbBOCXv7tyKkeQ37QxmSOxTJFlab+zep43uNWpSfz9K5nFThYGVq3sTfl33Za5skMAuGqzQgJAFgP+yzMRUKmqk0YVJBgpEoxzJCBuAuDlB105lSMEwIu/yxwRlEbMmXpPVup74UezlVnPq8yFmTwuGALAlc0VEgDyx0gvDPfwPZp2xHoACKDICKC4CYD717hyKoXIT5L9ZDNHfKZIP/E7skq/dk1z3GTqRc4QSNw3k1fJE+BFsqCjW2Su/BAArmzuCAFQnog+OEzgSQdnuH1NdT6T9c6fIkMCcR4Bx73ucRMAkjrXbb9PfK/rCZkjgUySZEm/9cVfzDET7OZel13cJKNfog3dXmUdgNtkRSXhW9LrEACu2usIASAvXOi2wUv6njr5gozkao87QaH+/uYsiJsAuH2uK6dSiDhkF0FJTjuKrz+93Rwz8aOykDCb+Dyf7009/p6Bo5YFJwgAV+1VrACQFx8viczdvq7OGsE6/wAiAZgSCK0NxE0AeLGXXbLhZZPIMv3bdy5w5YgLiSYJ/2e63EV/T84OkN0bbv194nv3rs5MXSAAXLVViQKgDRH9Z6IRvbqq7pexlqNnQYLAIIQ2EDcBIIvQTPt+n+6ZIYCiBJatv+UkPlPMLjknGJj1PMW8LitmZaYuEACu2qpEASBvzDU15OK+r3L7p3UGO8SCv2Ft4Js6vnETADtWuHIqhQhQjvnNFhln43cl4VFxfi+d12ZcEwzMZBV/OuUu7rM3TsxMXSAAXLVVqQJAtgU+V1yjmr6mOvVivelLjIJDOAqOs2CImwB4fJMrp1KINCQf/g+vZoYEskH4RX9zxABzzDI1ai5a9qJ/zxpnXpcbRmem7SEAXLVVqQJA3mxJRAdMCb/Y7zdqzXrV3yECIAJCYwNxEwAfPOPKqRQSANL3ty7LDAkUJbBs/H3ZeeaYrVsUDLwW32Bel7FDMlMXCABXbVWmAJAPjCiWwD3YIkjV67Ke/0RoCCDOo1/UPX6pgOWkODnf3bT/98rNDAlkg/CL/qak7jXF6+6bgoHXrdPM63L14MzUBQLAVVulJADkQ2tMjbrE72uL1YBZ/7+9M4GWorrW8F/NcAEVISCKs+CAOCQijiBRg4pGVBzw4YtRUSOJGJ4aRXHMy0ucwClqEnAgOGEcE4gTosExKIqoUdFojEMGFSdMNImy3910F9yq211dXXWquurUf9fqVbe7uk6f89euvb8zc4YAWwIyD4JFawHQ4DZoi0iOpV0Q1O4Ef7C08T0BwGsvBACf3S92ZNm8LrFeS2a3tHu+asbX4Ip6aADoCGBuxB8JlVln0AgpXfNW5oMAa8LhB83ZplURAeDko70OPaoP2GITyKfP+5zhH+17TwDw2gsBwGfjOQUAJYVeAF6L6gBCXddrXXHOnEUIYGtAJm2giAAwe5rXoYd6jmvUOnR6my6Va2PN3y0TAcBrLwQAn73nGAAUAgYAeDeOE6h7re4kqNsJz3g3k0HAtlotyxO+RaOIAKC1dlO7w+mzP/5wiI4tcAOmbUcCAAEg0KZzDgAKAYMAfFQ3kNeoBYS+ru/GUvrhHEIAWwMyYwNFBAB1ZrqaX+jnNsRzv9cukA+ethMCCABeW2ELgM/OLQAAhYCdAHxq0ilUTUtbA4aNkdK0NzITBFhjDl9jtk2rogLAnF96nXrVZzVE4G97ne51f8kZkH+95HOQOR8XQADw2goBwGfflgCAQsBeAP7Z9qFO7P/uvcX53i+kNHMpQYAtAk2zgaICgPbb64p+STzfa/aG6Ipzs6ZC3pjXvC1wA5ttG4ASAoDXTggA9gKAQsAwAB8n4Riqptl/Wyn98P6mBQDbarQsT2OtGUUFAA2ON13idexVn88GWwFqpdGjO2TDdSE6c0C3E9bV9XRRmt9MhXz4jM+hNhCcTQX5oHQIAF47IQD47NWiFgAFAP3bNvGBgT7H4gzaW0qXP08QYGtAqjZQZADQgXub9/c691oBPMnPO3SADN4KctZ4yOI5PueaARggAHhthADgs1ELAUAhYCCAt5J88Nul3amLOPscL6Wpr6caBFhrbqzWbJNeRQYArfWa2uu+3bPsA/xGzu/4Ncj1UyC6fW1QzTytcwQAAkCgrVkKAAoBawN4spGH18h3W7qJs/d3CQJsDUgcBIsOAOrYxoz0Ongjz3AMAHB/v996kGk/af4UQwKA1z7YAuADU4sBQCGgK4Bb3Icy1WPXVcU58FTOGCAIJAYCBADIkgWQDdbxOvlUn/M6sLDNQMgTt/mcbopdAwQAr20QAHy2aDkAKAQ4ACYC+LIpjqFTS3nq4KWLEgsENjVrsyzhuzQIAGVn9shMiG7z25Tnuw4AaJ5KJcjE45rTLUAA8NoFAaB4AKAQoH8jASxpmpPo0FGcoYdK6fxHCQJsFTBiAwSAlc7s8rO9jr5pz3kAEAzZFvLmIyvzHNg3a6iVgADgtQsCgM/+CtACUIn/yw/rAXi06c6h3zbiHD9VSjd9aCQQsNYcvtZsk1YEAK8zm/Rdr7Nv+nNeBQbWWgOycJY330mCAAHAaxMEAJ/tFQwAlAJ0J8ELACxruoPouZY4h5whpZ+9QhBgq0DDNkAA8DozXSBI1/Zv+nNdJfC3zZOuK6DdFkkGfjdtAoDXHggAPrsrIAC4LQJ7APhz2wezaf+XOoiuJeCcfBNbBQgCoUGAAOBzZpVm8/NP8Tr9pj3XASCw2iqQBXdVz78bvE0cCQBeWyAA+GyuwACgINAdwNWZaA1wncXqfcQZOUFKk58MHQhsatZmWcJ3ZxAAfM6sTb/5dRdAunX1Ov+sgUCfXpBX59YuAwHAq40JsCMAeDWVggOA2xqwJ4A3s+YgsO4AcQ6exFUG2SpQFQYJAD5n1gYANHi+eF9yewaY8hW6vPA/ng8uRxwQYAuAFwIJAD5bIwC4DIDVAfwUwBemHm5j6TiOYMBO4oy9WEo/f7VqMGDNOXzN2RatCAA+Z+YDAA2c/3wBcs73IS2dvYHA2LPpttzFOI49pH45okIAAcB73wkAPlsjAKwAAPefrwF4LEsOol1e3JaBi58hDBS4dYAA4HNmVQDADZy6Tv/+wyGO4w0I7Z6tGIE8Tlq3Xxm+LG6ZwhwJAN77TQDw2RkBwI37nmMJwLEA3o/zUKdy7fpbinPgRCn9aK6Ubv6YQFAgICAA+JxZAAC4wfK535aXD+7cyRsYUnlWA+Bivb6Qpc81Xh63XLWOBADvfSYA+GyMAOAJ/P43XwEwBcDnzXYQoX5/1Z7i7HywOMdPk9LUPxEGLIcBAoDPmYUAADdQvr8AcsW5EF2cJyurCJ76nejlccvlPxIACAB+m/C8JwD4Y37V9xsBuClTswUCahPLYcEpCTb8qjj7niDOxNukNP1vBALLgIAAYCZgfvwsZNZUiAbg/b4B2XQjSKeO3sARCsDrPZN1zuushb/PN1Mm18kTALz3kS0APvsiAFQN+LU+HAzgwTScgfHf6NBRsOkOyzcocs74tZSm/5VAkHMgIAD4nFkDLQBugAw66gDCd5+E6PiBh2+GzLwMcvLRkP7re4OKyWf1tHFmy5RlAFB9b7sCMu4wyDd3g4wYBjniQMi150O0hcZ/bzgNsL0mfo0afk8AqBXrAz8fCmCWyQc/9bRKHWT5NMNhY8Q59nIpTX6KQJAzICAAJOAQQ0LE72+H7L6TeRDovqrZaYFZBYCrz4P07VNbv1W7Qc4aD/n3yyvvMQFgpRYNB/padk0ACAz09U5+HcBDqQfvOk2JkfPTY83yioSHTCp3G0x9nVCQYSggACTgEGs5yhqf3/kzyOqr1Q5kUZ7FGy82V66sAcAXiyE67TGsLkMHQ957qqwHAcCcXawACAJAvRgf6vwwAPfkaoxAWIjotY44241cviCRc9KNUtJtjTnbIBNg1DAAnHKvlMZOk9LISeLs+F/i9NtesFrv0M64ltPuuXoCjqlGwF3huDJ0/qX7IJtsGD6o1dLR/XyvXczpmTUA+J+jGtdp8/6Qvz4BIQCYs4sVzxEBIFSAD/ulLQFcm5tZA2EhwP+9lm6CfoPE2fVwcQ4/T5zT7yivVkgwSBUMagLAD+6R0tirpXTA2VIadpQ4A78hTp/+Ah0H4r+XBt4XHQDUmb4xD7LGVxoPbtXuh85K+GSRGWefJQB48Ibo+mw9APKDY6Jf7+rMQYA+uyIAhI3tDX2vL4AfA1jiGl4hjh07l8cVbL+fOPufJM64q8Q5+24pXfEHKd30UarB0ZbV/mqW48YPpMN5j0tp9PlS2nOCONsfIk7/HQQ91hboDBADgT1sGgSAslPVgYKmphTOnuZz1BFbPLIEAMO2ixfAS6V416s9EwB8dkUAaCiwN/rlbq17DIwF8FRYZ2rt97T2ucYGgoG7iLPrt8TRcQYKCKfdLqWL5ktp2hsEhLbjDa55a/mGUNq64hx3ZVmvr/+3YPMhgl7rph7kg+ySALDSqR43Jn6QUq11tsGKZtqIwV+vzwoAvPN4NlZhJAD47IoA0GhMj/x9nUKoOw9+GuRMC32uU0sZEjbbURxtRRh+dHna4hEXiDP+6nJXw3kPS+mnL0jp2relNPOT/EDDDe9LSQdV6myLc+4V58QbxDn6knJgH3Hc8gWclgf3vv0FnbumWoOPa3MEgJVOVfuqVzGwC+FuO65MMw4IZAUA7vq5GTCKa6sEAJ9dEQAiB/SoF/ZoXWJ4PFsFDDmELqsIevYVrLOpYOPB4my1mzg7jiqviDh8rDh7HlPujhh1ijiH/a843/rx8mmPOvXR85owXZwTr2//OuEa7/f0uiMuLKd18OnltEeME0d/a+ihZXDZajdBv20Ea/UTdO8tULBJsUk+7d8iAHid6uEHxLfttft404wKAVkBgJ//KL4mJuyaAOCzKwJA1Dhu5LrNW1M5F8CfTBg308iGkynafSAAeJ2qLm5jwgZ0hcKogd+97rD94uflkjPi52PG5Pj5MKHpSWPjl8XVNui47ZbxyzvnlynklQBgJJDHTaQDgBEAbgSw1IShM434DyA1DKchAcDrqD9aGE63evb16lxvukEBp9a5Rubc18rP2SfEz8djvzKjSa08hv1ct4aupZXJzwkAke533DhqxfVdAIwEMAPAJ2ENm9+LZHBGampF154A0D6o6Ip+ce1i4az26TYapKLMu/fne8zI+Pn4z2JIj+7xNfHnrdH3JlozwtwDAkCke21FADdZiK4ADgIwkzAQyaBiO+FGHUwRv08AaB8gN+sX317n3dw+3TDBp+13Ljotfj4G9I+fD82T7nPQ7OdDByO21Sep/wkAke61ydhpXVraTaB7EJwP4OVmP0j8/UgG3nQHmMR9IwC0DyomNgx6ZGb7dBsNWDdfasZO334sfl50g5911jSTn6h2/Pzd8csR5h4QACLdZ+uCdpIF2grA6QAeBfCfqA8Er4tkqFYG8qi2QABoH1R0a9+oerrXPWugC2DR7Pj50PxcbGAgoAZO3USpaxczeXJ1CnvURZp0B8IwATzudwgAke5xkvHS6rRXaQWB4ZXWgQVhHwh+L5KRxnbstulOAPAGlb/PN2NXrz3kTTdKUPrXS5DOneLnZ4tNIMtejZ8fLYOObm8GBGhQjqJhlGsIAJFszuognWbhNgBwDICbWo9v2xZwWJ5ID1di4EIA8AaW6RfGvz+67O0/nvemGyUQ6TU7fDV+fvSZ050Po+bBf10zIOD7R5jLv788/vcEgEg2l2aMLNRvrQ3gEACXAdAWgmUMopEMNLEgmuf7QQDwBpZRe8a3rQ3W8abpDzCNvDc1+E53PPz8RXP5ShsC7rjKXN7r6U8AiPQMFCooN7OwawIYVekyeJAzDCIZK2GgsrohAWBlYFk8B9KpY3x72nPoyjTrBZt65x+YET8/LqBOPM5cvjTfaUGAjskw1aJST289TwCIZHPNjImF/u0SgC0AHAngqsoyxZ+5Dz2PkYy5MIBAAFgZFA8aYcZWzhq/Ms0wASfoOzoHv3dPM/nSronfTDWXN813GhCgrTJBGpk+RwCIZG+FDsJZK3xHAAMBjKm0FNwD4B3CQCTDzhoMfA7g2coYkYvj3lMCQDm43HK5uR3vHrzBbMDSNfDj3mf3eq1N68p+JoNm0hCw1WaQ954ym+eg8hMAItlb1mIg81NFgd4AdgVwHIBLANxb2cuA4wqyt+GPLiv9TGUhqbMqi0ptBkDhzv3r5zr2qEcCAOSZ30BMTP3Te6Aj5D/7g9lg9dSdkRxyTWjQHQ/vudZsHpOGgK0HpAcBBIBI9ub6JB5zqEA3ANsAOBTAJADTAMwF8DrXKYj0MNR0vr5A/TGA5wDcCeDC1laaYyuApgM/w/wRAP4YL5Dpgj19epm7x6P3iZefWjXT7bY2l0e1wQ4dID+cANEuhlq/2cjnHzwN0W2QffZt9H1aEEAAiHQfw/grfieHCnRq3dtAA42uVXB06wN+DoCpAGZXgtd7ST70OU77XwDeBPA4gNsrLS4TWpvvD6jAVk8DtkAAiAgAOsf+wolmBv21tVHTfexuEL7V0C6FbfOq/391c8hDN0aHgC9fgVw/BbJm70hBo2FASAMCCACR7qUBd8Yk8qqAboK0cWW5Yw1w3wFwJoBLWz+/AcD9lX7rPwP4yO+EcvT+AwCvVIL6LADTAUyptJocBWAfAFsD0JkaafwRABoEAB1NfsMUiInlfv12u9YakH+/HD2YusG+2lED7ZabRnLMoYLs0MHlQP5pyPUL3n0SMvl0yEbrJpcnv77u+6QhgAAQ6Z6m4e/4GxYpoDVgXfRIA+YurbMXvllZ70DhYRyAiZXAqvsnTAbwCwDXtg5u/FWV190A5lR5/brKd6+rpKVwommfW/mtEyvgMrqyvfOQ1pq7LtmsedS8OhnU3goA+MvjkPm3l0eUa1+yyZf2deviPv93EmT/4eb6+t1g1PaoLQrVgrepz2ZPi+SYQwGAW46WzpCvbw855VjItJ9Abr8Sct/0MjTpbnzjDy+DiOMknxc3T9WOSUKACQC44NT4dqwbSr18f0A3zWJHls3rEuu1ZHZLQ/ZR7V5UPsuge2SWqIDdCuQWAHRddw2YukxtgFPJzblePSBLn0sWABQk9t3dDr1M3PPN+0P++oR5zU0AgInyuWnoQN1vjyrDgAcmCQB2e3eWjgrUUSCXAPD0ryG6Wp7r4Gw4TplkPhB5nH2lq+NPv4N0X9Uu7eLc/yRaArIGAK4+uiGStmSt2NeBAFDHPfI0FbBbgdwBwOO3JtsM7zrLNI/aN59U3381CLjmPAJA2/s7aAuzOwVmFQDcMms3zHK7IADY7d1ZOipQR4FcAYAu5qID5VxHZsNRV9d7+OZ0av9tYeCw/ezSMa4tHDPa3D3IOgCoVjquRQgAddwjT1MBuxXIFQCceJR9Qcvksr9tA3y9/3UMxeCt7NMzKggoiC2abQYC8gAACtJLF3IQoN3unaWjAsEK5AYAdN69bX3Xu+4A+cLQQjr1An61828/BtmwCdPwogbppK8ztWVwHgBAtZxxIQEg2D3yLBWwW4HcAMDc6+2qrQ7on97StNWCv/vZKw+ktwhP0gE8bvo6K8DVJc4xLwAwZl/EmgKoUwg5DdDuAMHS2a1AbgBA55THdfBZuX7tPhAdjR8nyJi89vXfQfqtZ4++Ue+z7sNgQte8AMD2WxMA7HbvLB0VCFYgNwBw6Zl2BChd+W7xHDOBxkSwctP488MQnRIXNXimfZ0uJHTEgZAuLebyrNPkdMVEV5Oox50HmctTkroO3JgAEOweeZYK2K1AbgBg5mX5cKpBDlsXLXrr0fgBJmpgqnedLkR00Ijs66y7EereBloeXWVQa+5Buoc9t15fM/cmDxqqJsN3JgDY7d5ZOioQrEBuAECbzMM68ix+T4PCRwvNBJh6gTzu+V9eBNEgm0UddVdDXd62bRnvNwQBY0Z60237G438f/4p2dTOfz8njSMABLtHnqUCdiuQGwBQB6wLtvidWNbfr7ZKeU38RgJIFr6rQTbp7XkbuXfdupZXsau1/bAJCLjzZ2YAQAdW6rTCRsrXjO8+fQdnAdjt3lk6KhCsQK4AQLfKbYajjPqbuu6+9q1nIaBHzYN2vTRzgKAG0kO/CXljXn0d40CAtiysWCK3wR0iq2l7+AHZttUD9uBCQMGukWepgP0K5AoA1NHqwK+oATmt676xM0R3YqsWGPL4mS5TfPV5kE02TE97HZB3yN6Q537bmI5RIGD11dp3K8S9T+8vaC44Bdn6mr0hbz5CALDfvbOEVCBYgdwBwOcvQg7cK71AFORI257TPvNv7Q954rbGAlbcQJPm9VpD1kF3Op7B1MC7thrq/9racPYJ8QZLPnQjpHfPcDbSpxfk0VuSuWd/uDd7Cy317QPRzbSW2w2XAg72jjxLBSxXIHcAoI5LA5FOC/xKj3BO3h9kTL3X5VR14NiMyels5ZtmsK/3W58sgtx8ablFJs5qgp07QYYOLgf9p+40F4i162X0PrX74rVrQfdDSHpWxrtPlrfibfaYAJ02qXro6o8r7i0BwHL3zuJRgWAFcgkArgPTUfXXT4EceVB5wJouwJLES5v09x9eduS6napOQXvxvjaO1ECfsVumvB7feRxy73WQyadDJhwJOXgEZPgQyJBty/dk950gI4aVgeHM48tdCgvugmiLTpJlfu0hyOVnQ449tNylMO4wyBXnhhtTYDJfr86FXHBqufVE1wlIwk79ae60DWTUnpAfn1zDXgkAwd6RZ6mA5QrkGgBMOmimlWwgpr4Z1JcAYLl7Z/GoQLACBADW3hOtgTPwZzDwuzZPAAj2jjxLBSxXgADgOkMeCQJFswECgOXuncWjAsEKEACK5vRZXoKOawMEgGDvyLNUwHIFCACuM+SRgbFoNkAAsNy9s3hUIFgBAkDRnD7LS9BxbYAAEOwdeZYKWK4AAcB1hjwyMBbNBggAlrt3Fo8KBCtAACia02d5CTquDRAAgr0jz1IByxUgALjOkEcGxqLZAAHAcvfO4lGBYAUIAEVz+iwvQce1AQJAsHfkWSpguQIEANcZ8sjAWDQbIABY7t5ZPCoQrAABoGhOn+Ul6Lg2QAAI9o48SwUsV4AA4DpDHhkYi2YDBADL3TuLRwWCFSAAFM3ps7wEHdcGCADB3pFnqYDlChAAXGfIIwNj0WyAAGC5e2fxqECwAgSAojl9lpeg49oAASDYO/IsFbBcAQKA6wx5ZGAsmg0QACx37yweFQhWgABQNKfP8hJ0XBsgAAR7R56lApYrQABwnSGPDIxFswECgOXuncWjAsEKEACK5vRZXoKOawMEgGDvyLNUwHIFCACuM+SRgbFoNkAAsNy9s3hUIFgBAkDRnD7LS9BxbYAAEOwdeZYKWK4AAcB1hjwyMBbNBggAlrt3Fo8KBCtAACia02d5CTquDRAAgr0jz1IByxUgALgdx0GoAAADwElEQVTOkEcGxqLZAAHAcvfO4lGBYAU2BCBxXqt2AwNH0QIHy2uHzb/syLJ5XWK9/nZXSyz/UfE9Xwa7KZ6lAlQgCQV6xwn+7rVLnyMECIOiHUGxSPfxpVKs4K/wsPAaIwDwURLOjWlSASoQrECLG8TjHB/7FQGAAEAbyJ0NvBAfAKZP6mSiBeCtYDfFs1SACiSlwJI4wV+v/cExdP65c/5FqumyrNVbZxZ1jN0CcMAuHUwAwPyknBvTpQJUIFiBJ+ICwGqrQP4+nxBACKAN5MkGls3vFAsAFl3XIqVSvDFEFd8zI9hF8SwVoAJJKXBNXADQ60fvA1n2KgNAngIA81pse132SEtkAPjsgS6yw8CSidq/pnF6Us6N6VIBKhCswJEmAEDT0K4AQkCxgwqhIif3P0b/vwb/0bsZafp3AWJIsIviWSpABZJSYH1TAKDpjNwd8sa8nDhB9g1X7xumLtbrsuz3nSPV/p+9tsVkzV8BYCmATkk5N6ZLBahAfQWeMQkBXVog3x4FufUKyAv3QN5fAPngab6oAW0gEzbw+5Ismd0S6qXz/LWvX0f764A/Q33+bs1fj7fUd0/8BhWgAkkqcKJJAGBaRgZGtXWS/D/mglW0ycza5L5JOjamTQWoQH0F+gD4J51kZp0kAYAAYKMN6Px/Nv/X98/8BhVIXIErCAAEANoAbSBFG5iQuFfjD1ABKhBKAR0M+FmKD7+NNRqWiTV12kA4G/gLgG6hPBO/RAWoQCoKnEsAYA2QNkAbSMEGDkvFo/FHqAAVCK1AFwCvpPDws5YUrpZEnaiTjTbwAAAntFfiF6kAFUhNga3ZFcAaICGQNpCQDejeI9rdyD8qQAUyqsD3Enr4bazNsEyspdMGwtnAFwBGZNTnMVtUgAq0UeAiQgBrgbQB2oBBGzihjX/hv1SACmRYAe2jm2bw4WctKVwtiTpRJxttgBv+ZNjZM2tUoJoCCgGcGcCAZGNAYpnSsWtt9h9XzbnwMypABfKhwNFcKZBNwWwNog00aAPvsc8/Hw6euaQC9RTYEsCiBh0Aa1np1LKoM3XOmg3oVL916zkVnqcCVCA/CnQEoBsHfUwQYG2QNkAbqGIDusIfF/nJj09nTqlAwwp0b10rYCIAndObtZoH88N7QhtI3wb+VvEJXN63YXfKC6hAPhXoWqH9uwF8ThggDNEGCmUDSwHcAkC39OWufvn04cw1FTCigJL/Hq0p6ayBmQAWAniH3QWFCgiseadf805D8w8BvAngSQDXA9ApfUNMBv3/B4RQRjuNjaNHAAAAAElFTkSuQmCC;" vertex="1" parent="1">
          <mxGeometry x="60" y="200" width="80" height="80" as="geometry" />
        </mxCell>
        <mxCell id="32ch79hQAX0JlgT8ifrZ-9" value="" style="shape=image;verticalLabelPosition=bottom;labelBackgroundColor=default;verticalAlign=top;aspect=fixed;imageAspect=0;image=data:image/png,iVBORw0KGgoAAAANSUhEUgAAAgAAAAIACAYAAAD0eNT6AAAAAXNSR0IArs4c6QAAIABJREFUeAHtnQfcFMX5xx96b4ooTQQ0FkRFsIsoWFAEIypgAbEhIioqiA0b9ijGklhjSezdxKgJxkQNNjT/2BUFBRVLbFiwwvwZfA+O4+693Zlts/N9P5/73Ht3W2af+c3v+c7s7qwIf0SACGQ9Am1E5NcicrGIPCwis0TkcxH5SUQUL2KABnKvgQUiMl9EnhaRG0RkvIhskHXjonxEgAiYRaCBiIwQkYdE5GcMPvcGD8gBsyYamCMiZy6Bgi5mNsNaRIAIZCkCOvEfKSJzSfokfTSABgJq4EcRuVFEumfJzCgLESACwSPQV0ReCdjgTXoLrEMvEw3kWwPfLbGbM0SkUXDbYUkiQATSjEC9JTvXjZah/nybM8mX+k1KA/8RkbXTNDX2TQSIQPUINKu5sC8pY2A/JCE04IcGvhSR7atbEEsQASKQRgRaicgzDPlznhcNoIGYNPC9iOyRhrmxTyJABCpHoImIPB5To6eH50cPj3qmnoNo4AcR2amyFfELESACSUfgVpI/vT40gAYS0oA+HcA1AUm7PPsjAmUicHhCjT5I74Bl6EWiAT808AJ3B5RxY74iAglGoLOIfA0A0PNDA2ggBQ2cnqDXsSsiQARKInB3Co2eHp4fPTzqmXqupgE9T0C3Ek/iIxEgAglEYBMRWQwA0PNDA2ggRQ1cn4DXsQsiQARKInBXio2+Ws+A3+k9ogE/NKCnDebZASXmzEciEGcE2omIbniYLDFAA2ggbQ1wLUCcbs+2iUBJBI6JIvmvu3prdcne26hXTh2uvp52qFp0xVhexAAN5EUDFwxTi6cMWOH106n91QfHbqseGL6xGtFjdVW3Tp0o4OHtEn/iIxEgAjFGYLoNAOhGf9bum6kfLhuD2efF7DkOtFyqgTIAUAoEzx+6ueraukkUELBejH7HpokAEaiJgH4y17c2AHDt/ttjlqVmyWc0kTcNBAAADQQfHdc3CggYh0MTASIQfwR62ST/0Vuuh9Hnzeg5HjRdTgMBAUBDwHOHbmZ7OoC7AeL3fvZABGS4KQA0qFdXzTt7JGZZziz5Dl3kTQMhAEBDwPAeq9ucCpiBNxMBIhB/BE4wBYD+63bE5PNm8hwPmq6kgZAAcP/wjW0A4P34rY89EAEiMNUUAE7YqRdmWcks+R5t5E0DIQHg/Qnb2gDAAqyZCBCB+CMwzRQAfrPnVph83kye40HTlTQQEgD0LYKm3iIii+K3PvZABIjAJaaNdNpeW2OWlcyS79FG3jQQEgD0dQCm3lKzHu5MBIhAzBEAAPJm1BwP8BGHBgCAmK2YzROB5CMAAMRhlmyTJJw3DQAAybszeyQCMUcAAMibUXM8wEccGgAAYrZiNk8Eko8AABCHWbJNknDeNAAAJO/O7JEIxBwBACBvRs3xAB9xaAAAiNmK2TwRSD4CAEAcZsk2ScJ50wAAkLw7s0ciEHMEAIC8GTXHA3zEoQEAIGYrZvNEIPkIAABxmCXbJAnnTQMAQPLuzB6JQMwRAADyZtQcD/ARhwYAgJitmM0TgeQjAADEYZZskyScNw0AAMm7M3skAjFHAADIm1FzPMBHHBoAAGK2YjZPBJKPAAAQh1myTZJw3jQAACTvzuyRCMQcAQAgb0bN8QAfcWgAAIjZitk8EUg+AgBAHGbJNknCedMAAJC8O7NHIhBzBACAvBk1xwN8xKEBACBmK2bzRCD5CAAAcZgl2yQJ500DAEDy7sweiUDMEQAA8mbUHA/wEYcGAICYrZjNE4HkIwAAxGGWbJMknDcNAADJuzN7JAIxRwAAyJtRczzARxwaAABitmI2TwSSjwAAEIdZsk2ScN40AAAk787skQjEHAEAIG9GzfEAH3FoAACI2YrZPBFIPgIAQBxmyTZJwnnTAACQvDuzRyIQcwSMAWCfTburq/bdjhcxQAM+aGBoH3XVoPVCvUREWbxitj42TwSIgDEAWDRsG1NgXTtTJX7EzxUN4M5EgAjEHAEAgITgSkKgnH5pNWbrY/NEgAgAAH6ZKkmU+nZFA7gzESACMUcAACAhuJIQKKdfWo3Z+tg8ESACAIBfpkoSpb5d0QDuTASIQMwRAABICK4kBMrpl1Zjtj42TwSIAADgl6mSRKlvVzSAOxMBIhBzBAAAEoIrCYFy+qXVmK2PzRMBIgAA+GWqJFHq2xUN4M5EgAjEHAEAgITgSkKgnH5pNWbrY/NEgAgAAH6ZKkmU+nZFA7gzESACMUcAACAhuJIQKKdfWo3Z+tg8ESACAIBfpkoSpb5d0QDuTASIQMwRAABICK4kBMrpl1Zjtj42TwSIgDEA9NliKzXq4DFOvnTZTZ9muH6Pnk4es6t1VSh3x06djetswM67UmeWbXW/0WPUsFHhXqZtrGa93LhzExE5RETuEZGXRGQ2L2KQEQ18adpIp154ifpkoXLypctuetyHj5/g5DG7WleFcvffaaBxnd3+wMPUmWVbnbtgsXrj03Av0zaWJwAYuCT5v2cZCGPhs18hdjENGwIAbsJPIaG69g4ApKs3ACD8gMT+IvIzSZgknEcNAADpGrJrCdy2vABAunoDAMIBQE8R+T6Pxs8xATRaAwBAuoZsm1BdWx8ASFdvAEA4APgLiZJEmWcNAADpGrJrCdy2vABAunoDAIIDQFuG/kn+eU7+jACka8a2ydTF9QGAdDUHAAQHgEF5N3+OD8BhBCBdQ3YxiduUGQBIV28AQHAA0Lf8cfU5Mci1BgCAdA3ZJpm6uC4AkK7eAIDgADAWAACA8q4BACBdQ3YxiduUGQBIV28AAACQ6x5t3hN21McHAKRryDbJ1MV1AYB09QYAAAAAAKc1lmkAAEjXkF1M4jZlBgDS1RsAAAAsM/+oe5Nsz71TJgBAuoZsk0xdXBcASFdvAAAAAAAwArBMAwBAuobsYhK3KTMAkK7eAAAAYJn502N3r8cedZ0BAOkask0ydXFdACBdvQEAAAAAwAjAMg0AAOkasotJ3KbMAEC6egMAkgGAW0SkGy9ikJAGrjcdGQAA0jVkm2Tq4roAQLp6AwCSAYArg++GJYmAdQQuAQDCnc45fPwEni1v+Wx5EwABAAAAa7dLaAM2EwEBAAlVErtZGgEAIORpHQAgnUQEAKQT9wKsMQIQPGMAAMFjxZLpRgAAAACcGNEAAACAdK0y+N4BgOCxYsl0IwAAAAAAQAqnNAo9a1feGQEIbtQAQPBYsWS6EQAAAAAAAACoqgEAILhRAwDBY8WS6UYAAAAAqpp/FnqpnALgFEC6Vhl87wBA8FixZLoRAAAAAACAEYCqGmAEILhRAwDBY8WS6UYAAAAAqpo/IwDp9r6zEH8AILhRAwDBY8WS6UYAAAAAAABGAKpqAAAIbtQAQPBYsWS6EQAAAICq5p+FHijXAKQ7CgEABDdqACB4rFgy3QgAAAAAAMAIQFUNAADBjRoACB4rlkw3AgAAAFDV/BkBSLf3nYX4AwDBjRoACB4rlkw3AgAAAAAAMAJQVQMAQHCjBgCCx4ol040AAAAAVDX/LPRAuQYg3VEIACC4UQMAwWPFkulGAAAAAAAARgCqagAACG7UAEDwWLFkuhEwBoCOnTqrjXv1dvKly276GOS2q7Vz8phdratCuVu0bGlcZ93WXoc6s2yrPTfprXpsHO5l2sZq1kvXGS32DgBYBI9VE42AMQBYNm5jM2e/QuxCjtqgGSc1k6gRRrkzACDKaLKtOCMAAJBMAAo0kEUNxOl7sW4bAIg1vGw8wggAAJh/Fs2fMqHLCG0u2U0BAMnGm72ZRwAAwGhJtmggixowd7WU1wQAUq4Adh84AgAA5p9F86dM6DKwiWVtQQAgazVCeSpFAADAaEm2aCCLGqjkWZn/HgDIfBVRwJoIAACYfxbNnzKhS2dNGgBwtuq8KzgAgNGSbNFAFjXgrBkDAM5WnXcFBwAw/yyaP2VCl86aMQDgbNV5V3AAAKMl2aKBLGrAWTMGAJytOu8KDgBg/lk0f8qELp01YwDA2arzruAAAEZLskUDWdSAs2YMADhbdd4VHADA/LNo/pQJXTprxgCAs1XnXcEBAIyWZIsGsqgBZ80YAHC26rwruDEAjDvmeDV9xvNOvnTZTZ8QN3TYvk4es6t1VSh3ny22Mq6z86ZdTp1ZttUHH5+p7vlHuJdpG6tZz1kzBgCcrTrvCm4MAFMvvER9slA5+dJlNzWnw8dPcPKYXa2rQrn77zTQuM5uf+Bh6syyrc5dsFi98Wm4l2kbAwC8y0MccEoRAABCDv8CAOlAHwCQTtwLAAYABHdoRgCCx4ol040AAAAAONE7BgAAgHStMvjeAYDgsWLJdCMAAAAAAIDl8Hihl5znd0YAghs1ABA8ViyZbgQAAAAAAAAAqmrg3S/Dnf/X1wtwDUBIcxGRK9PNB+zdswgAACHbKNcApDMUzSmAdOJeGNWY/QUAEDQ3MAIQNFIsl3YEAAAAoGrvr5AE0nwHANIFgFmfAQBBzRoACBoplks7AgAAAAAAcAqgVg18+I0KfQsgpwBCGkvN+RJOAaSdEv3aPwAQsp1yCiCdnigjAOnEXY/6mFwACACENBYAwK/Mm5GjBQBCtlMAIJ1EBACkE/ePFyplMvwPAIQ0FgAgIynRr2IAACHbKQCQTiICANKJ+7yvzIb/AYCQxgIA+JV5M3K0AEDIdgoApJOIAIDk4657/2+GnP5XJ/7Cqyanmd4OmBGLDF8MLgIMHzPWSCcCAAAAUOsFYGle+V+8bwAgWQDQyf9tg1v/CsmfEYCQxsIIQDoZ0PO9AgAh2ykjAMkmogIEAADJxv0dg4l/ipM/ABDSWAAAz1NxOocPAIRspwBAsokIAEg23rrnH0XyBwBCGgsAkE4G9HyvAEDIdgoAJJuQAIDk4v3Rt0q9/fnyc/ilPfqwn7kGIKS5MBWw5+k4+cMHAEK2UQAguYRUSP76nVMA8cX9429r7vU3mO2vNigAAEKaCwCQfAb0fI8AQMg2CgDEl4iKE37p/wBAtHHXSf/9r38Z7re50h8AWDmDcBfAyjHhm2xGwBgATjl32tKrhPWVwq69dNlNeycHHTHBueN1rX7KlXe7AQON6+z6ux+izgrt9PPFxhP71Jbsy/1m2sZq1sumYwYoFQAQIEgskokIGAPASWdPW3a/b7nGn+XvdNlNzenAsROcPe4s10m1svW1AIBr73iIOiu6P79arKP63bSNAQCZyA0UwoMIAAAhTwEAANFdJBYm0QAA6cQ9TB2VLgsAhDQXrgHwIOVm6xABgJBtFABIJxEBAOnEvTSph/kMAIQ0FwAgW9nRg9IAACHbKACQTiICANKJe5iEX7osABDSXAAAD1Jutg7xItNGOvH08509r8o1AO4lEwDArTp7af53xtfZiMjP2bLJcKXhIsBw8WLp9CJwhikAuNwTBgDcSia6ZwkAuFVn01942wYAvkjPEu33DADYx5AtJBOBY00BYIOevRgBSOHK6tJhVl8+AwBuAcC5l/3BBgDeScb+4tkLABBPXNlq9BEYYgoAderUUfc+9ryTEMAIgFvJhBEA9+qr95bb2gDAo9FbXXJbBACSizV7sovAuqYAoNfbbKvt1Ksf/egcBAAA7iUURgDcqbOLr73VJvnrdX9nZ2vprg0ApBt/9h48AnVF5FMbCBgxeqx67ZOfnYIAAMCdZFI4xQEAuFFndzzylGrStJktABwQ3MKytyQAkL06oUSVI3C3DQDodfvtuJt67P/ecQYCAAA3kkkh+XMKIPv1pUcCp1xwuWrUqLFt8tfrd6hsV9n/BQDIfh1RwuUR2N8WAPT6DRs2Urv+epg659Lr1A33Tlf3/GNmZl8HjTve2KQGDd03s8eV5Zjblm2TzbYyrrMp519GncXQHm9/eIa6/Ma71ZhjTlSdu3Qzrp8S/3lmuTW5+R8A4Ga9+VrqJiLyZUkjjKoxs53wc4EQM2LmswbGuW7EAIDrNehf+X8LAIjPpsuxAx1Z0IDuiLR23X4BANdr0L/ydxKR74EAIAANoIEUNXBmHqwXAMhDLfp3DBek2PCz0PugDPSC0UB6GvgoD71/nTYAAP+SZx6OuJmIzAUC6AGiATSQggb0xci5+AMAclGNXh7EdiLyUwqNn55Xej0vYk/s09bAHXlyWwAgT7Xp37FMBgDoAaIBNJCQBl4XkZZ5slkAIE+16eexcFcAvcK0e4XsP/8a/EBE1sqbxQIAeatR/45HTxF8TUI9AIw+/0ZPHVPHpRqYJyLr59FaAYA81qp/x1RHRPRtOYsBAYaD0QAaiFAD/xURfetxLv8AgFxWq7cHtZuI/C/Cxl/aE+AzvUM04I8G9Miinn00t38AQG6r1tsDW0VELhWRRYAAPUE0gAYMNPCWiOzqg4MCAD7Usp/H2EtE9NMDAQF/emz0zqlrGw3MFpExItLQF8sEAHypaX+PU1+5O0VEXuIaAXqDBr1Bm4TCutkHks9E5GYRGSgi9XyzSQDAtxr3+3hXF5G9RORUEfmjiDwoIo+LyPO8iAEayLUG9KN7p4vInSJyUU1Pf1MR0XcRefsHAHhb9Rw4ESACRIAI+BwBAMDn2ufYiQARIAJEwNsIAADeVj0HTgSIABEgAj5HAADwufY5diJABIgAEfA2AgCAt1XPgRMBIkAEiIDPEQAAfK59jp0IEAEiQAS8jQAA4G3Vc+BEgAgQASLgcwQAAJ9rn2MnAkSACBABbyMAAJhVfTsR6SEi/UVkfxGZICLnL3le9I01E03oCSf0S08+oSeZeUVE9DSTc0XkcxH5uOaz/k6/Xlwy9/SzRRNVXCci02pmsDt4yTZ2F5HeItJRRBqYFZm1iAARIAJEgAgsjwAAsDwWxf/pKSG71zwQ4lgRuVJE/iEi74nITylPJ6r3P0dEHhUR/bSqE0VknyXgsQFwUFyF/E8EiAARIAK1RQAAEGklIjvVTA97z5Jk+qqI/JBykjedQ1yXW895f5uInCwiuyx5Ml6b2gTAb0SACBABIuBnBHwDgPoiop8Sd4SI3CAir3nytLhZInKLiBwjInr+a+8eeuFn8+aoiQARIAKVI+ALAAwSkftF5FtHe/amIwKV1vtiCQj8WUSOqwECrx+IUbl58AsRIAJEIL8RyDsAtFjS43+ApF/1MbD6okR9AeMwEWmdX7lzZESACBABIlCIQJ4BoHHNlfWVesF8X/5Z3foiQ/2IXH1nQ+eCUHgnAkSACBCBfEUgzwCgn/lMkreLweIlFxI+LSLHL7lmoku+pC8NRaS9iHTjRQzQgBca6CS/XPSdMyszP5y8AoA29u8AgEgBSMPAEyKi5yVoaS65VNasIyKb1cyr8OCSY5jnycWfALAdABO/fMZPz8Wi52i5YsldU0N9hoK8AsAYkn+kyb/UCPXFlDeLyI4iopNrVv/0xEln1iT80mPgcz7NnXqlXsNqQHcWbxeRAVk1srjKlVcAuBoAiBUAihuYvsVQ302QpfkGVqmh++/RQWI6KNYE/5OEXdWAPuXpDQjkFQD0RDiuCtDVci9cctHgH2puK4wLWINsVw/pfUj9o380gAYsNKBziJ7yPdd/eQUAPY++q4k0D+XW0xTvnHDLaV4zjJeH+HEMtF80kL4G5ovI9gn7WKK7yxUAKHVGXTVvUt+zJ273EACQCQD6b83DkvQMjHH+teWWz0zUN0kr/aRFHURbB/q26IPiNK80t50LAFBzJ/dQc088Q82dPFvNnay+feM41aZVYxpCtA3BJp5vi8hoEYkDBNYSkTcAPgAADaCBmDSg74DS86Lk7s9ZAFDvTe6p5p1wkZo3ea5O+qWvK6buZJOwal23UcN6qnOHlmrzTdqr3Qd0VwcP20idetTW6tIzdlS3XT5ETb9l+NLXM/ePVM8/eKB6ZfohavaTh6u5Tx+hPn/pGPXh8+OXftbfzfrXmKXL/Pue/dWDN+ytbr50sLr8rJ3U1Il91dEH9VZ77bqu2mrTjqpT+xaqfv26tZYrJvFHuU99weDICJ9FoB/k9KYDxx1lDNlWdsCWuvCnLjQEjMobASQJAPp2MX2luJ6MwejWMfXOGY3V3BP3UXMnTy9N+KWfF787WR2494bGDbRu3TpqrU6t1M7bdVVHje6tNFD8/ebh6t2njlB626X7S+LzondOUO89M07947YR6spzdlbHHrqZ2nX7bqp7l9aqTh2n6F/32PXFejZ/+vkF+nkGxnXMusQODaCBEBr4UUS2tDGtrK2bBABsVXNxln4ATcGsF4iIfvRuoAss1NwTe6u5k69ScycvCJNodcLUPemGDeoV9lv2XSfPX3VbRY0c2mNp7/u5P49S3806PpUkH+b4ipdd8OoE9fid+6lLThugRu21odpw3dWUhpiimGfx/ydFZAvDRnFaxo8ti/GmTMs9iFgQCxMNvJuxW54N7fOX1eIEAD2P/B0BTPo6EWlQehRLL+ibO3lwkN5+cSIs97/uNZ9x7Laq35adl/aW1197VTV4x7WXfvfwTfuoz148xqlkX+4Yy3335SsTlp5WOHHclmrbzTopfeoiQH0kvYweWtOTcHQt1UAtnzcWEX1xTtJlZX/EHA2ggStr8SanfooDAPRDeE4N+ejdewunBdRbRzVScyePUnMnv14uqfGd+ekHPaqhT2Mcd9hmaoN12mbNyPQ8ArpXr/VT7U+PHGSt/JSHOkEDfmhgkYj0rmZSLvweNQAMWXKR12wTc16jXbNJat7kqWru5E9J8uZJPkzs9EWJV5+3i9pth+5VT5OY1KnhOvqOgd1qaTwDDbeLOfthztQz9ZyEBvT1R87/RQUAa4jIXTbG3L5d80U/zp6Uy6H4MEk5rWW/eHmCumnaoKWnRjJyquA+EdFz+Zf+6UmGkmjg7IM4owE0UEkD+tRlz1Jzcu2zLQDoq/n1JAn66UqVAhX4+8du3xcAKHNLY9JQoC8o/MNvdlV9N++U9t0FX4rIoYXTQyLyqyWnCXTDC6yp2pat36CuWq1Dc9W+S0texAAN5EQDq3dpqtp1abjSq0mLyK+B0jPOOv1nAwD6sarTazPYsL9dfGp/ACADAFAMHG8/cbiacvTWqkvHlpEk3bCaqFle60xP+HOK4forlH3zHbuo8+4coh6ef4Sa/ul4XsQADeRIA/d+PFj9cf5GZV8XzlhX7Xn86qppy0hgQD9zRN+O7OyfDQCsYKpRGPNZx/cFADIGAAUY0LdU6omKdunXNa1Rga9F5AMbnTVu2kBNuX4gZp8jswfgANhSDdQGAAUwuPzFDdQ6mzWLIoc5fTFgpgBAT25TSDi8J3MhoEmc3/znYUtnKWzZvFEUDSiRbdSrX1ddcM8eJH+SPxrIuQaCAIAGgevmbKi69Wpq6z8Tne3+i0imAOA/D40GADI6AlAOFPS1AhectL1aY7VISNq2Ida6/r4TemP8OTf+0p4gn/0cHQgKABoCLn5mPVW/odWEaTcDABFclNWrx+okf4eSfzEQ6PkFfn/2zqpr51a1JmGb4XubdRs1qa/unzMGAAAA0IAHGggDABoC+o9a1ca3ZgIAlgCgp+L91x37AQCOAkABBn6aPUndePGgpc9QsEnYUa+79a5dMX4PjJ8ev589/tJ6DwsAk+/sZgMA8wEASwC48OTtSf6OJ/8CBOh3PZ+DnmCofbvmNg0rsnX3O64PAAAAoAFPNBAWAK54aQMbr9EXJzv7l+o1AK1bNlr6+Nzi5MH/2b34L2zdfPP6cersiduptC8WHDt1W8zfE/Mv7Q3y2b9RgbAAcNP7G9kAgJ6XxNm/VABAD/nrJ+999MJ4ev456vlXAoRP/3v00rsG0no64RFn9wUAAAA04IkGwgKAvg7A8rQjABA0gL17rqGeuu8AEr8Hib8UCJ5/8EC1TZ9Oto0t9PoAgH+9QHr+/tY5ABCcRxIbAWi7ShN1/W92U4vfzc8Qd2mC43P1utX1r3WwapsmoRN5UMgsXQ4A8DcZAAL+1T0AkDEA2GfQeurj/xxFr9/DXn8lKPrsxWPUmP02SQQCAAD/kgCJ3986BwCCA8A5pb2lKD93at9C/fkPe5H4SfwVNaCnF16zQ7zPGQAA/E0GgIB/dQ8ABAOACVE+Wa0UHA4etpHSM8VV6gHyffXhcl9i9NVrx6pDhltfiFNxNAEA8C8JkPj9rXMAoDoATC5N2FF91rf23XrZYBI/vf7QGrj3mj2VvlYkKi0WtgMA+JsMAAH/6h4AqAwAdUTkooIxRv0+YJsu6v1nx4U2fl96uhxn9VEPfa3I7gO6RwoBAIB/SYDE72+dAwDlAaCeiFwXddLX26tfv676zSk7cIU/vf5I4E/fKTBtSn/VoH7dSEAAAPA3GQAC/tU9ALAyANQXkTviSP56utfH72Qef3r31Xv3YWP073v2Vx3XaGENAQCAf0mAxO9vnQMAKwKAHvaPpeffd/NOav7MIyPp9YVNDiwffcLNYkz/939Hq52362oFAQCAv8kAEPCv7gGA5QCgk//VcfT8d+nXVemnv2UxaVCmfMHBz3NOUEN2WtsYAgAA/5IAid/fOgcAlgPAhXEkf73NsQf0Ivlzzj8xDUw4pA8A4Mlc7iRvf5N3FHUPAPwCAFPjSv4AQL562C6MmAAAJIUokgPbyL+OAACR2O7zL0AFIwBAQJLgAADk37hJztRxFBrwHQBGxDnDHwBA4k8y8Rf2BQCQHKJIDmwj/zryGQD6isj3hSQd5zsjAIBAITkn8Q4A5N+4Sc7UcRQa8BUAuovIJ3Em/eJtAwAAQBKJv7APAIDkEEVyYBv515GPALCqiMwqTtBx/w8AAACF5JzEOwCQf+MmOVPHUWjANwBoLCL/jjvhl24fAAAAkkj8hX0AACSHKJID28i/jnwDgJtLk3MSnwEAAKCQnJN4BwDyb9wkZ+o4Cg34BABHJZHsy+0DAAAAkkj8hX0AACSHKJID28i/jnwBgM1F5IdyyTmJ7wAAAKCQnJN4BwDyb9wkZ+qrutgxAAAgAElEQVQ4Cg34AABtRWReEom+0j4AAAAgicRf2IcNAPTarpMafvSmvIgBGvBAA3setbba/cjVQr0q5bmA3y+ffD+B/+qKyCMBC2Y8f3q17QMAAEAhOSfxbgMA1bTM7xKbTxBbYuuBBhJI+8t3cVZUAW3cqL5xwwcAAIAkEn9hHwAAiSQq32M7aCliDSzPzjH/N0BEFkVR+O5dWqupE/sCADzRL7En+hWSuck7AIBpR+F7bAMdxaCBmNP+L5tvJSJzoyh8y+aN1CvTD1FXnrMzAAAAAACCKUbhK2wDHXmqgUQA4JYogtugfl316K0jlpo+AMAwvklvPI11GAEguUThf2wDHcWggdgBYGhUhb7q3F2W9fgAAAAgjWRusk8AAOOOygPZDlqKWAOxAkAHEfk0igJrEy02XwAAACjWQ5b/BwAw7Sg8kG2goxg0EBsA1BGRv0ZR4C17dVA/vD0RAOCc/woayHLSLy4bAIBxR+GDbAMdxaCB2ADg0CgKu3rbZuqD545cyfgZAWAEoDjJZvl/AADjjsIL2QY6ikEDsQCAfsTv/2wLW69eHfX3m4evlPy12QMAAECWk35x2QAAjNvWC1kfDcWkgVgA4MYoCnve5H5lkz8AQPIvTrBZ/x8AwLyj8EO2gY5i0EDkANBXRBbbFrTv5p3Uz3NOAAA4719RA1lP/IXyAQAYt60fsj4aikkDkQJAQxF51bagrVs2Uu8+dUStxs8pAEYBCgk26+8AAOZt64msj4Zi0kCkAHBKFIW89bLBtSZ/bfgAAACQ9cRfKB8AgHlH4YtsAx3FoIHIAKCLiCy0LeDIoT2qJn8AgORfSK4uvNsAwM677q6mTD2fV8gYDBm6j/FU4Rv36k28Q8YbjUbTRk888zx1/GnhXpY5NzIA+KNlQVSH1ZurL16eAABw3r+qBr55/Th18an91da9O6rmzRoam72tZuNef+qFl6hPFipeIWNw2dU3GGtixMjRxDtkvNFoNG107oLF6o1Pw70sPSgSAOgVxZP+7rl6z6rGX+jxcQrA31GAx+/cT7Vv19zY4C0bTKL7BQDMjBUAMIsbiTzduLkKANNtTXXPXX4VOPlzCsDf5K8fBtWwQb1Ek7Cttm3WBwDMDBkAMIsbAJBu3FwEgIE2BqfXbdWiUdnZ/gq9/XLvjAD4BwGfvXiMWrVNE2+Sv24bAICZIQMAZnEDANKNm2sAUE9EXrIFgOKn/JVL9uW+AwD8A4CTx2/lVfIHAMzNGAAwjx0QkF7sXAOAg2yTf5+N1lCL3qk84U+55K+/AwD8A4Bua7YGALg4K9AFegBAekkMgDCPvUsAoHv/s2wAoE4dUU/ctX+oc/8FIAAA/AIAfXeIjdZcXZdTAGZmCgCYxY3knW7cXAKAA2xNdf9fb2CU/BkB8Cv56/qe9a8xAAC9/0C9f53EAIB0ExkgYRZ/VwCgjoi8bAMATZs0UHOfrn2630Jvv9w7IwB+QcDrjx0KAAAAAAAaCKwBFyHEFQAYapP89bpTJ/Y17v0zAuBX8tf1DQCY9ShcNMEoyswIAHqJQkdJb8MVAJhpAwCrrdpUffXasQAAM/4F1gAAgKGHMWMAAL2E0UtWlnUBAHa1Sf563UvP2DGw8Zcb/mcEgBEAWw26sj4XAZolMgDALG5ZSYS+lsMFAPiXjXl27tBSff/WRACA3n8oDTACgKGHSQoAAHoJo5esLJt1AOghIottAODaCwaGMn5GAPzr7ZercwAAQw9j0gAAegmjl6wsm3UAuMom+a+9Vhv10+xJAAC9/9AaAAAw9DAmDQCglzB6ycqyWQaA1iLyjQ0AXHN+NL1/rgHwb1TABgDW675qaOAoNwph+t2EQ/oY38LINQBmiQwAMItbVhKhr+XIMgAca5P8V2/bTH036/jIjJh5APyCAAAAQw+TFAAA9BJGL1lZNqsAoCf+edMGAM4/sV9kyZ8RAL+Sv65vAABDD2PSAAB6CaOXrCybVQCwuvWvZfNGSs/lbjqEWm49RgD8ggAAAEMPY9IAAHoJo5esLJtVALjbpvc/6fAtIk3+jAD4lfwZAcDMwxo0AIBmwmomC8tnEQBaichCUwCoW7eOmvPvsQAAV/5baYARAAw9jEEDAOgljF6ysmwWAeAw0+Sv1xvUv7uV8Zcb/mcEgBGAMJrkLgD/kgEA4F+dZyWJ25QjiwBgNfPfX67fGwCg92+tAUYAMPQwxgoAoJcwesnKslkDgDVFZFGY3lbxsmt2aKl+nnOCtfmXGwXgIkC/RgEAAAw9jEkDAOgljF6ysmzWAOCk4oQe9v9zJm0XS/LnFIBfyV/XNwCAoYcxaQAAvYTRS1aWzRoAvBI26ReW1xf/vf/sOACA4f9INAAAYOhhTBoAQC9h9JKVZbMEAOsXkrnJ+4BtukRi/OWG/xkBYAQgjCa5CNC/ZAAA+FfnWUniNuXIEgCcEMZkS5e94aLdAAB6/5FpgBEADD2MsQIA6CWMXrKybJYA4MnSpB70c+NG9dWXr0Q781/pSAAXAfo1CgAAYOhhTBoAQC9h9JKVZbMCAKuIyE9BE37pciOGrB9Zz6808Rc+AwAAQKnuKn3mFIB/yQAA8K/Os5LEbcqRFQAYWclMg3x/3zVDAQCG/yPVACMAGHoYYwUA0EsYvWRl2awAwF1BEn25ZZo0rq++feO4SM2/0OsvfmcEgBGAcvor953LIwDljofvRBEDYoAGItGAlP41FJEFpsEdstPasSd/DQIAAAAQVKMAQCRGQdIV4hi0zbGcM1opzf+yrU3lXf+beK/+L4wCAAAAQFCdAgDOmBGQAWSggWQ1sBIAnBLUWEuX05P/fPTCeEYAOP8fuQZ8vQagtI3xGZhBA2ggQg2sBACPmG58694dIzf+Qo+/9J0RAEYAguqUEQAMM6hWWA6teKaBFQCgvoh8ZRqA0ydsAwDQ+49FA4wAYMymvsR6aAcNVNTACgCwuU2gnrhr/1jMv7T3rz8zAsAIQFCtMgJQsfFzvjXZ863Em3hnTQMrAMCkoKZaulzTJg3U929NBAAYAYhFA4wAkMRLPYfPaAINWGtgBQD4i2lAd+nXNRbjL9f7ZwTAr96/rm8AwLqhZ63nQXnoDaOB9DWwAgB8YgoAF5y0PQBA7z82DQAAAICpN7Ee2kEDFTWwDAA62QTp6ftHxmb+5UYBuAbAr1EAAKBiA6YXlX4vijqgDlzVwDIAGGwKAA3q11XfzToeAGAEIDYNAAAAgKk/sR7aQQMVNbAMAE4zDVKfjdaIzfjL9f65BsCv3j/XAFRsvK72Oig3PWY0kA0NLAOAe00BYNyoXgAAvf9YNcAIABBg6k+sh3bQQEUNLAOAd0yDdMNFycz/XzwawDUAfo0CAAAVGzA9qWz0pKgH6sFFDSwFgNYistgUAF6Zfkisvb/ixF/4HwAAAILq1eWJgKZeeInKyrPKXSrHZVffYGzGI0aOJuYLFTFIIQZzFyxWb3wa7hXUBysstxQAjJ8A2LBBPfXT7EkAAKcAYtWAryMAAIBZIgIAzOLmEuTlsaxpAcDoCnRQlaJ7rrdarMZf6PGXvjMCwAhAUM0yAuBfMgAA/KvzPABBWgBwVlAzLV1u+OD1AQB6/7FrgBEADD2MwQMA6CWMXrKybFoAcHNpYg/6+Yxjt43d/Et7//ozIwCMAATVKCMA/iUDAMC/Os9KErcpR1oA8HRQMy1d7s7f7wEAMAIQuwYYAcDQwxgrAIBewuglK8u+82W4CwD1BYOlOTnk56UXAX4UcqVlO33xkYNjN39GAPzq7ZerbwAAQw9j0gAAegmjl6wsO/vz5AGguWny1+steHUCAMAIQOwaAAAw9DAmDQCglzB6ycqyb36WPAD0NAWAls0bxW785XqDXAPg34gAAIChhzFpAAC9hNFLFpad/40KPQdAFKcAdjYFgLRuAQQAAIAwmuUiQP+SAQDgX51nIYnblOFdg0mAogCA/cKYafGyg/p3ZwSA4f9ENMAIAIYexlwBAPQSRi9pL/vxt0qZDP9HAQDHFCf1MP+PPSD5hwAVTglwG6BfowAAAIYexqQBAPQSRi9pL2ty+59O/lEAgPEkQKdP2CaR3l8h6Re/AwAAQFBY5RSAf8kAAPCvztNO4qb7/+gb895/FABwVVAjLV3usjN3BAA4BZCIBhgBwNDDGCwAgF7C6CWtZfXQ/1sGV/4Xev9RAMDdpYk96Oc//Xb3RMy/uOdf+J8RAEYAguqUEQD/kgEA4F+dp5XETff78UKl5nwR/ra/4uQfBQA8HtRIS5f76417AwCMACSiAUYAMPQwRgsAoJcwekl6WZ38Z0eQ/KMAgP8rTexBPz913wGJmH+h11/8zggAIwBBdcoIgH/JAADwr86TTuKm+5v/tVKzLIf9i0cBgvpgheXktQo/LJvut9Lvb/zzMACAEYBENMAIAIYexnABAPQSRi9JLPvhN9H1+qMEgNmVEny17+c9fUQi5l/c8y/8zwgAIwDV9Fn4nREA/5IBAOBfnSeRxEPt41ul9Ox+cxco9bbBHP/FSb62/ws+Z/gu7xuuqD56YTwAwAhAIhrwdQTg5HOmqVmfL+YVMgbnX3F91RHMSr43dL/RxDtkvNFoURv9bLGaVXOPfm2JO6rfKuk44Pfyv4ALrtSgPnvxmETMv9DrL35nBIARgKC6dXkE4KSzpxnNDx6Vubi6nfMuNweAPfcdTcwTTGCuaiwr5Q7qgxWWk68q/LBSwi9d7uvXjgUAGAFIRAO+jgAAAGa3SQEAZnHLSlKjHMHrrzQvh/ws34dcYRkY/PD2xETMv7jnX/ifEQBGAILqlhGA4GaSF+MFAPyr87xoN+xxBPXBCsvJogo/LEv0lX5f9M4JAAAjAIlogBEADD2MMQIA6CWMXlxetlJ+Dvi9/BBwwZWA4Pu3GAEojEjwHu+IhMsAMHHM5iu1naBt7rhTz+F8tMH5aAAAAHA5qQct+3/f+8bYW0TkRxExvwZgwasTEun9lUuunAKIN+GWi3ma37kMAGcet61xI933oCMAAAAADRhoIGgSdXm5h55+zdhbROQzDQCfBu2NlC73yX+OAgA4BZCIBlwGAP3QrNK2E/Rzl27rYP4G5s8IACMALif2oGU/9bxLjb1FRN7SAPBBUDMqXe69Z8YlYv7lep6MADACUKrHSp/TvgjwoZv2sWmk6g93PQIEhIQAAAAACJpEXV3u1Y9/Umuvu4GNtzykAWBOJeOs9v3bTxwOADACkIgGXB4BeGfGWJtGurSR/2fuV0BACAgAAAAAVxN70HJPOuMCK18RkWkaAN6olugr/f7qo4ckYv6MAPjV2y9X3y4DgD6eTu1bWDXWvgMGKiAgeFIDAILHKmjCYbnsxPTia29V9erVs/IUEdlTA8CLlRJ8te9f+OtoAIARgEQ04DoAjNprQ9vGqtZZf0P1xwceYyQgwEgAAJCdZAU4RFcXT7/5idr/0PGqTp06tn7ys4i00QDwZLVEX+n3v988PHLz19MLP/LHYeq2y4eov964t5o/88iy+4jjGoAvX5mg9DHpfT94w94qzYcdlesF5/G772Ydr568e/+lMX/gur1UpVGlOADgx9mT1Ix7D1C3XzFE3XfNUPXiIweX1VoUcf/L9XvbNthl66/XY2N1yPhJasr5l6mzpl3Fq0wM9HS+lXyr2vebbLYVMS0T07i1du5lf1BX3/6gevzl91KD3Odmf66uv+fv6oLf35QpDUw4earacbdfq8ZNmhrrukT3f9PJX//dV/JD4B3cfOngyAxTm+/uA7qrevVWJJs6dUT127Lz0iRRbMRRAoBOLnvvtq5qUL/uSse+Za8OS6GgeN/8b39K4uP/HKXGH7ipata0wUoxX6drG3XDRbupxe8u30+UAPD5S8cofW9+y+aNVtp3l44tldbWz3OineTqp9mT1Optm620P9O2x3pCLCWfMdC920232EbdeN+jiYGAvp1up92HqvoNVvajnLa1A2ryv1xreoDTpvSPBABuvHiQatSw9vMZdevWUedM2m7Z/qICgLuu/LVq2qT2StcQcuK4LVdISEDA8uQcNhbPP3ig6rhG9XPiQwf+Sn3z+nFL6zwqAHhl+iGq25qtqyaPXfp1VXpEKOyx1bb8Wcf3rbpf07bIevlMhj7XqwaBw489Wb3+v0WxgsC0a29TjRs38alt6icANyoAwLmmIjvpyC2tDVIP++rkHrQMuuemTTYKALhp2qCVRhxqK8fUiX2tj7e2BOHDb3P+PVa1XSV4Y9OjPxoCogCA/z5yUKh9awiIciTgi5cnqFYtVh51qE1z/EZi910Dcc6Ged2dD6t69esHzj85qYujC8lfvx9nelCHDN/IKiHqpwm2WzX8OY1jD93MGgD0ef7S0w3V4qCXr3SO2ofkHcUx7rxd19CNbdvNOqmZfzkw9HqF+tTzAIRN/oV1rzp3FyuNl8ZMj5oVts07yR0NVNeAvtr9r0+9GvkowIsfLFTtO3b2rT3OKu79awAYZSrCwTuubWWONma4brdVjCtu7bXahE7+hRgdNKyn1TGXJgSfPv/nIfMLs2zqe9U2TUL1/At1rd+7dm4VaX3rawE22aCdsXaLy8b/1ZMHMcpHjIaNPCxyAJh6yTW+tcPFSy76H1Dc+9f/72raSDbfpL2VOfbfuotzFaBHLHxK2lEeq6vnwPV1A1HGQZ/OaN6soXPaN/UJ1stHEk6zHtu2WyNyAOg/cIhvbfDC0uSvP29qWrG2yVBfcW267zTXi/risCiTS5a3FcW98GnUu75FMOq46lsP9cWlaRwP+yTuLmog6omw1l6vh0/t758i0qAcAOjJAIwDYfNEwPbtmhvv16bMtuum+RCkqBNRktvbdw+reatT08odv9sjcgDQcbc5BWarYdY39zxil07s7v7bk4Pf+1r1i+rVpGnTeZ7UpZ7sr1W55F/47nPTQOhbukyTiD6FYLrftNbTtwwueifae8RN4+faepMO38K5+tY6e/r+kcYar1ZHF526AyMBFh2QtHyA/SYOAV8XklWE7//woB5niki7ajF73jQQeiizmslV+v3k8Vs5lxD0ZEWVjofva58b4G9/GuZcfbdu2UjpC/firNtbLhtcdS4K0/bJeoknKuc07ohG7q2WxAx+P9GRYzfV1AMi0jxIXO40DcTZE5dPzhPWJN+ZMVY1bFD7BECm5YprPT1NcdjjZPlfwEDfU7/BOm1NxZzKenoCqCTqT19ouOG6q6VyjHG1FbYLfESogR2DJLKQy7QXkW8iLGNW2u/3Nbf31wkaj/NNgzB6H7vb4ly6MnyvXddNJBkkkXDS2sdjt++r6peZctlUf3Gu171La6Un70kqVvrZBOef2I87BDglkJVEkpVy3B40kRksZzwPTpzeY7Hth0VknbBxGGO6w236dLIySD3f+34OXBzWZ6M1lJ64KKlkkOf96Ml1sn4FvJ47IOrb/4LW6f/+72h1ylFbqTatGmfFgCkHUJKWBvR5+qZhE1rI5S81zX8ZWU/f368f7rNdyONetrieHMCogls0a2h9UZweGh4xZH2j/ZuWO8x6Ovkn2RMMmihcXu6KqTtlFgJ08tczB6YdX/2kRP2sin0GrWc8kVEYnbOsmQcSt1jipi/6O63SrWvLMld0/+iH4+g58jObh0rK9pOIPC0ip4rIWrZh0FcJGh+4ntjE1iz1hVZZhACSf+0X9tnUexYhICvJvzSu+s4TPSKhgUBfd6OfiTFmv01ieUVwu+afRORqXsTAQAP6dPS+1W5bs014FdbXD8gZKCJnishVBmWPU/OXLYGhc0TkMBHpJyItKxyD8dfzTSHgT7/d3RoAtOHpkYAD9szO5Ay9eqyuPnvxmEiOrdTQ+fwLWFxz/sDMjAToIXeb21rzUqcP3bSPcWdARHTPra6xC7EiESACqUTgIVMAmHBIn8iSZFYggOQfX8+/NFFmAQJI/svre8rRW9sAwJOpuBc7JQJEwCoCxo8F7ru53YWApQkhbQgg+S9PBqV1E9fnNCGA5L9ife+47Vo2APBbKxdiZSJABFKJwHDTEQD9YBOdtKNMDmlBAMl/xWQQZZ1W21YaEEDyX7G+9bUGrVo0sgEA/XRR/ogAEXAsAuuaAoBeL45bppK+MJAL/lZMBtUSdhy/J3lhYFYv+IsjrkG3+dLfDrZJ/nrdno75HsUlAkSg5sId41mRfjd150hHAAqGlRQEkPzTT/6FOk8CAkj+5etbj8JYdAQWikh93JQIEAE3I/CYaeOPc5a8uE8HMOxfPhkUEnIa73GeDmDYv3J965k9TT1ARJ5y0/YoNREgAjoCZ5g2/lVaN7aeEKi2RBPXSAA9/8rJoLb6SOK3OEYC6PnXXt/rdV/VBgCuwEaJABFwNwLGMwJqcHjhr6NjOQ1QSDZRjwTQ8689GRTinuZ7lCMB9Pxrr+95Tx9hk/z1usPctT5KTgSIgJ5z+QfTUYDfnLJDrACgE1FUEEDyrz0ZpJn0S/cdBQSQ/KvXt76Ox7TtL5m2Vc9HvjoWSgSIgNsReMbUBHbdvlvsABAFBJD8qyeD0iSc9mcbCCD5B6vv3XbobgMAL7pte5SeCBABHYELTQGgWdMGSj/AJIlkoa8JGD44/AOEOOcfLBkkUYdh92FyTQDn/IPV98I3j1dNmzSwAYBLsE8iQATcj8DupgCg1/vL9XsnAgA6eYSFAJJ/sGQQNjEnuXwYCCD5B6/vB2/Y2yb563UHu299HAERIAL6KUPG1wHo24iSTAj6moBJh29R9YEyQwf+Sn312rGJli3JOPi0rzt+t4fSo021geoG67RVs/41hvqeGwwCxo3qVWs8a4u1iOhHk7bCOokAEchHBP5epcFXNAvd69I986QT0sy/HKiG7b6eatl8+TSmjRrWU7v066p07ybp8rC/YInHNE4fPHekOubgPqpT+xbLtFinjig9ynP5WTupH96eSJ0HTP66Drp0bLksjgZtX183xB8RIAI5icDRBiawzECm3zI8NfPVc5nPn3mkeu+ZcerHFEDENKGxnjkw6Ec2vzNjrNLnsYlj+Di+/Hfr6X/1c8r5IwJEICcR6GYDAEeM7IURh+h9kbTCJy1iFl3MTh6/1TJ4N2z3m+fE9zgMIkAEaiLwmqEZqNXbNot1VkDMPzrzJ5Z+x1KPmK3ZwWr4/z0RqYNrEgEikK8IGN8OqMHhn3fsyygAowBoIOMaePTWEba9/0vzZXscDREgAjoC25mOAOj1Rg7tgfln3Pzp/fvd+9f1P2qvDW0BoC92SQSIQP4iUFdEPjCFgCaN66svXp4ABAABaCCjGvjm9eNU82YNbQDgIxGplz/r44iIABHQEdCzexkbxFXn7oL5Z9T86f3T+7/x4kHGbbvGF67EJokAEchvBPrYAMDmm7QHAAAANJBRDfTfuostAOyYX+vjyIgAEdAReMMGAl7628EkgIwmAEYB/B0FeGfGWFW3bh0bAPifiDTAIokAEch3BE6zAQA9WxuJxt9EQ91ns+6PO2wzm+Sv152Wb9vj6IgAEdAR6F7zrG8jw9BT8375ChcDkgizmQh9rBf9TIxWLZZPmW0I+D2wRyJABPyIwNOGJrEUGi4+tT+jAJwGQAMZ0cC0Kf2NYL7IA57yw/Y4SiJABHQEDi1q/KHNQz+whXn56QH72NvO2jHrp2d27dwqdBsuaf8HY4tEgAj4E4EmIvJZiQmEMpGbLx1MDzAjPcCsJSXKkxwc3nb5kFDttkyb/1pEWvhjfRwpESACOgL6oh9j89ho/dXU4neTMzqSCrFGAytrYIteHYzbcE37vxo7JAJEwL8I6IsBF9lAgJ53HFNe2ZSJCTFJQgNP3LW/bfLX6/PkP/+8nyMmAksj8DcbAFhjtWaqd881eBEDNJCCBtq3a24LAItF5HlexAANJKqBZ0VkuojcXTMSP1ZE9CR9iU/DvYcNALCu+SkUYkfs0AAaQANooEgDX4jIrSKya1Iw0FhEviwqgG2PgvUtrqugHjADNIAG0AAaEJE5IqJHBhrFdbain4i8gtgQGxpAA2gADaCBTGrgbRHZLUoI0L3+66nsTFY2IyiMoKABNIAG0ECpBq4TEX37vtVfJxGZSfIn+aMBNIAG0AAacEoDL4lIZ1MC+JWIzKfCnarwUgrkMz0DNIAG0IC/GpgnIuuHhQBNDe+Q/En+aAANoAE0gAac1sAHItI1KAS0FJE3qXCnKxzi95f4qXvqHg2ggVINvCEirYJAwM0kf5I/GkADaAANoIFcaeCuagBwABWeqwovpUA+0zNAA2gADfirgZGVIKD5kokEPgIAAAA0gAbQABpAA7nUgM7xrctBwOlUeC4rHNr3l/ape+oeDaCBUg1MLQWANiLyFQAAAKABNIAG0AAayLUG9HT+K1wQqOcQLqUEPhMTNIAG0AAaQAP508CRxaMAM6IAgLad11EDDjpFHfib+9SR181QR980kxcxQANoAA2gATQQQAOjrpmpBl/2/AqvQdOeUv1Pu19tNOJk1bLD2lHBmH7E8NK/NUVEP+fbeMMNGjdVe510lTr/6Z/Uhc8u5kUM0AAaQANoAA2E1MCkfy1Wox9WFV+jHvxJbTX+SlWvYRPjfF2U6ztoAhhR9EXojTZq2kIddcOzVHTIigaUAEU0gAbQABoo1kA1ACjAwe6/fVY1aNI8dL4uyfX6tn+5pOTLUBsdef5dJH+SPxpAA2gADaABSw0EBQANAv1Ouj1Uri6T53+nAeDxMj8E2nD3Tbenwi0rvJj++J/eABpAA2jAXw2EAQANAatv2DdQrq6Q4x/VAKDnCDbayPDTbwQAAAA0gAbQABpAAxFoICwAbHvcDUa5uybn6wf+ycemAHDS/XOo9AgqHeL3l/ipe+oeDaCBggbCAsDeN8yxAYAvNAD8aAoA5/37ewAAAEADaAANoAE0EIEGwgLAyD9/bwMAP2sAMN5AgVp4h2DRABpAA2gADXHjaNQAAA5XSURBVNhpICwA6OsAbHI4ABABtSF6O9ETP+KHBtAAGlisAAASMkNpaAANoAE04KEGAAAPKx3ypfeDBtAAGkADAAAAAPmjATSABtCAhxoAADysdMgf8kcDaAANoAEAAACA/NEAGkADaMBDDQAAHlY65A/5owE0gAbQAAAAAED+aAANoAE04KEGAAAPKx3yh/zRABpAA2gAAAAAIH80gAbQABrwUAMAgIeVDvlD/mgADaABNAAAAACQPxpAA2gADXioAQDAw0qH/CF/NIAG0AAaAAAAAMgfDaABNIAGPNQAAOBhpUP+kD8aQANoAA0AAAAA5I8G0AAaQAMeagAA8LDSIX/IHw2gATSABgAAAADyRwNoAA2gAQ81AAB4WOmQP+SPBtAAGkADAAAAAPmjATSABtCAhxoAADysdMgf8kcDaAANoAEAAACA/NEAGkADaMBDDTgFAEffNFPxIgZBNXDsLf9VUx6ary54ZlGq5nbawx8qXZag5WY5NI4G0EASGhh1zUw1+LLnQ71ERFm8rFa22THr2lWcs/Fr1a6T6rf/RHX6Ix8nBgJnTP9U7XDgiarNGl2cjZtFI+eYPW1raIb8VkUDBKhKgDDPmMyzSYs26tDLHokdAsZe+U/VrHVb6jGmeqT94KFowFkNOFtwDD0Hhl6vfgN1+O//ERsEHH3jc6pBoyZoJQdaIcng1Wggcg1EvkHMFrMNpYGWbdurs//1deQQcO6TCxnyR4uhtEiCIR94pgEq3LMKz6Qh7n7MRZEDwNDJv8/ksaI3PAcNoIGMaICKyEhFeJ2s1tp4m8gBYJ3Nd/I6pugab0MDaKCKBghQlQCRRBIYRm7cvFXkAKBPLVC3tG80gAbQQEUNVPwB80wg8SHMX/RXt1499ez8xeq5D1Vkr6bNW6BhNIwG0AAaqKwBAIAknL4G1mjfQX2yUEX66rb2OjT8yg2f2BAbNIAG0jd/EjB1MHTYvpEmfw0T+x14MAaHwaEBNIAGKmuA5AOApK+BO//8t8gB4M/Tn6DhV274xIbYoAE0kL75k4D9roOdd9098uRfOJ0wZOg+mBwmhwbQABoorwG/kw/wkW79r9+jp5o1//PYAGDOx1+pTTbtQ+Mv3/iJC3FBA35rIN0EQAL2M/5169ZVw/YfpXSCLvTW43qf++m3auRBh6l69ephdn6bHfVP/aOBFTVgnoA27tVb+fhac62uxiJq02YVL2OmdaJ74jsNHKSOP2mKevKFV2JP/KVAMeP/XleTTjljaRl0WXzUbpLH3LFTZ+N20na1dtSPp/6apEaztq+em/RWPTYO97LsRJsDQKnB+vL56ptuMza2PfcZkXji86VeOM5ob6O0jefUCy8xbieHj59AO4n4tljb+mT9+NvX3AWL1RufhnsBAAk3FAAg/oaA2bgfYwDA/TqkHSZbhwBAwsncROAAQLKNwqSOWCf9OgIA0q8D2oFbdQAAAAAMfTqgAYy1urECANVjhI6IUbEGAAAHzJ8RABptcaPl//J6AADKxwW9EJdKGgAAAABGABzQQKUGzPfLzR0AWB4LdEEsgmgAAHDA/BkBoDEHacy+LwMA0E58bwNhjx8AAAAYAXBAA2Ebto/LAwAAgI+6tzlmAMAB82cEAGOzaeS+rAsA0E580XpUxwkAAACMADiggagafJ63AwAAAHnWdxzHBgA4YP6MAGBscTT+vG0TAKCd5E3TcR8PAAAAMALggAbiNoI8bB8AAADyoOMkjwEAcMD8GQHA2JI0BVf3BQDQTlzVblrlBgAAAEYAHNBAWgbh0n4BAADAJb1moawAgAPmzwgAxpYFs8h6GQAA2knWNZq18gEAAAAjAA5oIGvGkcXyAAAAQBZ1meUyAQAOmD8jABhblk0kK2UDAGgnWdGiK+UAAAAARgAc0IArhpJmOQEAACBN/bm4bwDAAfNnBABjc9Fcki4zAEA7SVpzru8PAAAAGAFwQAOuG00S5QcAAIAkdJanfQAADpg/IwAYW55MJ65jAQBoJ3FpK6/bBQAAAEYAHNBAXg0oyuMCAACAKPXkw7YAAAfMnxEAjM0HM7I9RgCAdmKrId/WBwAAAEYAHNCAb8ZkcrwAAABgohuf1wEAHDB/RgAwNp9NKuixAwC0k6BaYblftAIAAACMADigAQyrenIDAKrHCB0Ro2INAAAOmD8jADTa4kbL/+X1AACUjwt6IS6VNAAAAACMADiggUoNmO+XmzsAsDwW6IJYBNEAAOCA+TMCQGMO0ph9XwYAoJ343gbCHj8AAAAwAuCABsI2bB+XBwAAAB91b3PMAIAD5s8IAMZm08h9WRcAoJ34ovWojtMpABh18Bjl46vvDgOUiBi91urW3cuY+agT34+5zxZbGbUR3bbW79GTduKpv/rcbvYbPUYNGxXuZZqLatYzS2SWOzU2BvZLfaEBNIAG0AAaiEQDkWyEhG44IoCI0R8aQANoAA2kpAECn1LggSagCQ2gATSABtLUAAAAAKABNIAG0AAa8FADVLqHlZ4mcbJvejxoAA2ggWxoAAAAANAAGkADaAANeKgBKt3DSoe+s0Hf1AP1gAbQQJoaAAAAADSABtAAGkADHmqASvew0tMkTvZNjwcNoAE0kA0NAAAAABpAA2gADaABDzVApXtY6dB3NuibeqAe0AAaSFMDAAAAgAbQABpAA2jAQw1Q6R5WeprEyb7p8aABNIAGsqEBAAAAQANoAA2gATTgoQbMK/2iK65WPr4OGH2oMb326r2ZlzHzUSe+H/Meew0zbif6kdu+x4/j9y+/nHfpVeqsaeFeltBiDgCfLFTKx9fVN91mbGx77jPCy5j5qBPfj3nqhZcYt5PDx0+gnXjqrz63m7kLFqs3Pg33AgASbigAgJ/g57MxmRw7AEA7MdGNz+sAAAkncxOxAQAYm4lufFsHAKCd+KZ52+MFAAAAhj4d0IBtQ/dhfQAAAPBB51EeIwDggPkzAoCxRdno87otAIB2kldtx3Vc734Z7vy/vl6AawAShgYAAGOLywDytF0AgHaSJz0ncSxzAIDsNxoAIPt1lERjZR+16wAAqD0+6If4lGrgrc8YAcj8OXAAgIZb2nD5vLImAICVY4JOiEklDXz4rQp9CyCnABIe/teVBwDQiCs1Yr5frg0AYHks0AWxqKaBeV8BAJnv/etKBABozNUaM78rBQDQTmgHwTXw1ufhh/8ZAWAEwAlowgiCG0FeYgUA+FfnedFu0sfx/tdmvX8AAAAAAFLQQNIG4eL+AAAAwEXdJl3mjxcqZdr7BwBSMH9OAWBsSZuEi/sDAGgnLuo26TKb3PuvE3/hxTwACUMAAICxJW0SLu4PAKCduKjbJMv8nuGFf4XkzwhAwslfiwMAwNiSNAlX9wUA0E5c1W4S5dbJ/82innxxUg/zPyMACUMAAICxJWEQru8DAKCduK7hOMqvz/nbDvsXAwIAAABwIWDCGojDGPK2TQAAAMibpm2PZ/7XSpnM9lec8Ev/BwASNn9GADA2WyPwYX0AgHbig86rHaOe4U9P8mNzpX9p0i/+nBoAzFuglI+vK66/zfgJTEP2GuFlzHzUie/HfPp5lxi3k0PGTaCdeOqvrrcb/Uhf/dIP9om6t1+c+Av/pwYAhQL49n7xtbcaG9ugPUcsu33Dt7hxvMtv3fEhFiedPc24nRw4dgLtJIILxHzQme/HCAAk3FAAAL8Sme8GY3r8AADtxFQ7rBdcOwAAAEBvKWENYFDVDQoAqB4jdESMbDUAACRs/owA0GhtG60P6wMAtBMfdJ72MdoCwCLTDbz68U9e9jwBAIwt7Ubvwv4BANqJCzp1uYw6B5vmbxHRuV++Nt3Ak69+AACIhKoALgLEFF02nDBlBwDQehi9sGx4vTz+8nuh8k9Jrl+gAeCDki8Db/DKWx4AAAAALzWAWVU3KwCgeozQETGy0cDv/nRf4HxdJs+/pwHg6TI/BNqor71ZTgHQaG0arS/rAgC0E1+0ntZx7vrrYYFydYUcP0MDwI0Vfqy64bp166p7H3veux4gAICxpdXgXdovAEA7cUmvrpX1runPKp2DTfO3iFyvAWC8xQZUpy5d1Yw3PvIKAgAAjM01s0ijvAAA7SQN3fmwzxmvf6g6dO5ik/z1uuM0AGxgAwB6XQ0Bdz/6nDcQAABgbD6YjO0xAgC0E1sNsf7KGtI9/45rrmWb/PX662kAqCMic2whQA9F6GsCfn/z/eqJV95Xeb5FEABYWZQ0VGJSqgEAAE2UaoLP4TWhc6nOqfqCP33O33LYvwAOb+nkX/g70xYAWD/c7YDEi3ihATSABtBASho4vZD89XsXEfkxpYIUiIT3kLcUUl+YBxpAA2gADYTUgM71axYDgP7f+G6AkDsn0ZPo0QAaQANoAA2ko4E/lCZ//bm7iHxHMocm0QAaQANoAA3kUgMLRaRrOQDQ351Bpeey0iHtdEibuBN3NIAGsqSBKZWSv/6+kYi8AAQAAWgADaABNIAGcqWBmTU5vjYGWHoq4EsqPlcVnyUCpSz0iNAAGkADyWrgCxHpVmvmL/qxH9cDAABAIBpAA2gADTivgR9EZMei/B7o3z1E5Hsq3/nKh7STJW3iTbzRABrIigb0hf1DAmX8MgttLyKcDkDMWREz5UCLaAANoIFgGtDD/no03+pPTxL0DCMBjASgATSABtAAGnBCA/pi/rWtMn/RyvruAD11IPMEBCMvCJU4oQE0gAbQQNIa0Pf561v9dM6O/E9fRXgD0wY7QYBJC4/9YXZoAA2ggXQ0oKf3vb62SX6ipAF9WkBPGvQ2w0HAABpAA2gADaCBVDSgn+qnR+dXmts/yoRf27bWF5Eja+hjhoi8z4WDqQgB8k6HvIk7cUcDaCBuDeiL8XVu1TlWz+U/TkTWqy0xB/nt/wEAl1kcGzpSPAAAAABJRU5ErkJggg==;" vertex="1" parent="1">
          <mxGeometry x="69" y="70" width="50" height="50" as="geometry" />
        </mxCell>
        <mxCell id="32ch79hQAX0JlgT8ifrZ-10" value="Beneficiary data, Inpatient data, Outpatient data&lt;div&gt;&lt;br&gt;&lt;/div&gt;" style="text;html=1;align=center;verticalAlign=middle;whiteSpace=wrap;rounded=0;" vertex="1" parent="1">
          <mxGeometry x="42" y="20" width="112" height="40" as="geometry" />
        </mxCell>
        <mxCell id="32ch79hQAX0JlgT8ifrZ-12" value="" style="endArrow=classic;html=1;rounded=0;" edge="1" parent="1">
          <mxGeometry width="50" height="50" relative="1" as="geometry">
            <mxPoint x="90" y="130" as="sourcePoint" />
            <mxPoint x="90" y="180" as="targetPoint" />
          </mxGeometry>
        </mxCell>
        <mxCell id="32ch79hQAX0JlgT8ifrZ-14" value="" style="rounded=0;whiteSpace=wrap;html=1;" vertex="1" parent="1">
          <mxGeometry x="220" y="40" width="80" height="50" as="geometry" />
        </mxCell>
        <mxCell id="32ch79hQAX0JlgT8ifrZ-15" value="" style="rounded=0;whiteSpace=wrap;html=1;" vertex="1" parent="1">
          <mxGeometry x="332" y="40" width="90" height="50" as="geometry" />
        </mxCell>
        <mxCell id="32ch79hQAX0JlgT8ifrZ-34" value="" style="edgeStyle=orthogonalEdgeStyle;rounded=0;orthogonalLoop=1;jettySize=auto;html=1;" edge="1" parent="1" source="32ch79hQAX0JlgT8ifrZ-16" target="32ch79hQAX0JlgT8ifrZ-33">
          <mxGeometry relative="1" as="geometry" />
        </mxCell>
        <mxCell id="32ch79hQAX0JlgT8ifrZ-16" value="Feature Engineering" style="rounded=0;whiteSpace=wrap;html=1;" vertex="1" parent="1">
          <mxGeometry x="470" y="120" width="80" height="50" as="geometry" />
        </mxCell>
        <mxCell id="32ch79hQAX0JlgT8ifrZ-19" value="" style="endArrow=classic;html=1;rounded=0;entryX=-0.002;entryY=0.436;entryDx=0;entryDy=0;entryPerimeter=0;" edge="1" parent="1" target="32ch79hQAX0JlgT8ifrZ-14">
          <mxGeometry width="50" height="50" relative="1" as="geometry">
            <mxPoint x="140" y="222" as="sourcePoint" />
            <mxPoint x="220" y="63.450000000000045" as="targetPoint" />
            <Array as="points">
              <mxPoint x="170" y="222" />
              <mxPoint x="170" y="62" />
            </Array>
          </mxGeometry>
        </mxCell>
        <mxCell id="32ch79hQAX0JlgT8ifrZ-29" value="" style="edgeStyle=orthogonalEdgeStyle;rounded=0;orthogonalLoop=1;jettySize=auto;html=1;" edge="1" parent="1" source="32ch79hQAX0JlgT8ifrZ-20" target="32ch79hQAX0JlgT8ifrZ-21">
          <mxGeometry relative="1" as="geometry" />
        </mxCell>
        <mxCell id="32ch79hQAX0JlgT8ifrZ-20" value="Data Cleaning" style="text;html=1;align=center;verticalAlign=middle;whiteSpace=wrap;rounded=0;" vertex="1" parent="1">
          <mxGeometry x="222" y="50" width="75" height="30" as="geometry" />
        </mxCell>
        <mxCell id="32ch79hQAX0JlgT8ifrZ-31" value="" style="edgeStyle=orthogonalEdgeStyle;rounded=0;orthogonalLoop=1;jettySize=auto;html=1;" edge="1" parent="1" source="32ch79hQAX0JlgT8ifrZ-21" target="32ch79hQAX0JlgT8ifrZ-30">
          <mxGeometry relative="1" as="geometry" />
        </mxCell>
        <mxCell id="32ch79hQAX0JlgT8ifrZ-21" value="Data Preprocessing" style="text;html=1;align=center;verticalAlign=middle;whiteSpace=wrap;rounded=0;" vertex="1" parent="1">
          <mxGeometry x="331" y="50" width="90" height="30" as="geometry" />
        </mxCell>
        <mxCell id="32ch79hQAX0JlgT8ifrZ-32" value="" style="edgeStyle=orthogonalEdgeStyle;rounded=0;orthogonalLoop=1;jettySize=auto;html=1;" edge="1" parent="1" source="32ch79hQAX0JlgT8ifrZ-30" target="32ch79hQAX0JlgT8ifrZ-16">
          <mxGeometry relative="1" as="geometry" />
        </mxCell>
        <mxCell id="32ch79hQAX0JlgT8ifrZ-30" value="EDA" style="rounded=0;whiteSpace=wrap;html=1;" vertex="1" parent="1">
          <mxGeometry x="470" y="40" width="80" height="50" as="geometry" />
        </mxCell>
        <mxCell id="32ch79hQAX0JlgT8ifrZ-127" value="" style="edgeStyle=orthogonalEdgeStyle;rounded=0;orthogonalLoop=1;jettySize=auto;html=1;entryX=0.668;entryY=0.027;entryDx=0;entryDy=0;entryPerimeter=0;" edge="1" parent="1" source="32ch79hQAX0JlgT8ifrZ-33" target="32ch79hQAX0JlgT8ifrZ-37">
          <mxGeometry relative="1" as="geometry" />
        </mxCell>
        <mxCell id="32ch79hQAX0JlgT8ifrZ-33" value="Model Training" style="rounded=0;whiteSpace=wrap;html=1;" vertex="1" parent="1">
          <mxGeometry x="342" y="120" width="80" height="50" as="geometry" />
        </mxCell>
        <mxCell id="32ch79hQAX0JlgT8ifrZ-126" value="" style="edgeStyle=orthogonalEdgeStyle;rounded=0;orthogonalLoop=1;jettySize=auto;html=1;" edge="1" parent="1" source="32ch79hQAX0JlgT8ifrZ-37">
          <mxGeometry relative="1" as="geometry">
            <mxPoint x="372" y="360" as="targetPoint" />
          </mxGeometry>
        </mxCell>
        <mxCell id="32ch79hQAX0JlgT8ifrZ-37" value="" style="shape=image;verticalLabelPosition=bottom;labelBackgroundColor=default;verticalAlign=top;aspect=fixed;imageAspect=0;image=data:image/png,iVBORw0KGgoAAAANSUhEUgAAAgAAAAIACAYAAAD0eNT6AAAAAXNSR0IArs4c6QAAIABJREFUeAHtvXmUXOWZ5ont6mp7pqZnxj0zPdMzf/RM9cyZ6uk5c3qq3VWnu0DGxnZR7rILgXHZRhKI3Rgjdmx2bGODMZt2kJAQILQhJJCFQLlIaAe0oB0pFykj18iUUlKmUhlLxjvzReZNIjK/iLyx3O8u349zkpuKjIx77/c++Ty/773bRRe5+E9EvpRKpS5JJpN/SCQSO5LJZFcikUgmEgnhizFAA+HVQEtzv/DFGJjQwKa6psymuubW+prGD+tqmp6uqWm6eMUK+ZKLCOItfoyAiHwlkUg8MDg4GMfkw2vy1I7aFdKACeNnHQCG0kBdTaPuq6u+punu+vrmL/uRcayzwAgkEomrE4lEayHj4HVCBQ2EXwOEM+FsSgMFAMCBgljdxsbJBeKIl02NgIh8IZFIPJZIJDIYfPgNnhpSw2IaMGX+rAfQmAAAFAhkamsaf/fYY/JFU3nHenJGQES+mEgklhczDH5GoKCB6GiAYCaYTWnABQAMdwNqG99aseLQn+ZEE9+aGIFEIvFbzD065k4tqeVEGjBl/qwH0HANADWNUl/TuJ7zAkyk/sg6Ro75c1Y/VzagAYs0QDATzKY0UAoADL+36T0gwAAEjJzt3zLRbIGfM6NEA9HSgCnzZz2ARukAoK4aaNiwfXvsKwZi0N5VJBKJX2Ds0TJ26kk93WiAYCaYTWmgPABolLqNje8DAR7xibrJD9f5ExZuwoL3RE8npsyf9QAaZQPA8P0DNtfXH/ozj2LQ3o9NpVKTMPboGTs1paZuNEAwE8ymNFAhAKgTAz8EAqrMKslk8lk3RsF7CBQ0ED0NmDJ/1gNoVAoAI7+/ZevWo/9VlWPQ3o9LJBI7MfboGTs1paZuNEAwE8ymNFAlAFDnBGwFAqrELBz/JyjcBAXviaZOTJk/6wE0qgYAw+cEbFu//vg/q1IM2vsx//8VAOo/rv1mDNCAhRogmAlmUxqoMgCouwZ+vGXLyf/W3vSuwp4T/sAPGrBXA6bMn/UAGh4AgIKATzZsiH21ClFo50dg/vaaP7Wn9gQzwWxKAx4BgIKA3UBAmfxCCBACaMBeDZgyf9YDaHgIAFJb07SnpubIPy8zBu39NczfXvOn9tSeYCaYTWnASwAY+ey99fWf/Xf2pnkZe04IEAJowF4NmDJ/1gNoGAAAdThgHxBQAghg/vaaP7Wn9gQzwWxKA4YAQGprGg7X1zf/jyXEoL1vJQQIATRgrwZMmT/rATRMAUB2PbWNRz7ccOJ/sjfZXe455m+v+VN7ak8wE8ymNGAUANTNgmobj3zwQcu/dBmFdr6NECAE0IC9GjBl/qwH0DAOAMN3DDwKBBRhG8zfXvOn9tSeYCaYTWnAJwBQJwZ+Vlv72f9cJAbt/REhQAigAXs1YMr8WQ+g4SMASG1N47H6+uP/i71JX2DPMX97zZ/aU3uCmWA2pQE/AWBk3c319c3/qkAU2vkyIUAIoAF7NWDK/FkPoBEAAFCHA05sfv/E/2pn2mv2GvO31/ypPbUnmAlmUxoICAAoCDhZU3Psf9PEoX0vEQKEABqwVwOmzJ/1ABoBAoAsBNTWHv9z+xJ/zB5j/vaaP7Wn9gQzwWxKAwEDAAUBLfX1Df96TCTa9U9CgBBAA/ZqwJT5sx5AI4AAoCAgZjUEYP72mj+1p/YEM8FsSgMBBQAFAR01Ncf/jV1T/5G9JQQIATRgrwZMmT/rATQCDAAKAjrr6o7/X9ZBAOZvr/lTe2pPMBPMpjQQcADIQkD9+w3/1ioIIAQIATRgrwZMmT/rATRCAAAKAro2b2z8v62BAMzfXvOn9tSeYCaYTWkgJACgniIYtwYCCAFCAA3YqwFT5s96AI3QAMDwUwRP19U1/GXkOwGYv73mT+2pPcFMMJvSQMgAQB0OOF3/QeO/jzQEEAKEABqwVwOmzJ/1ABohBAAFAb01NY1fiywEYP72mj+1p/YEM8FsSgMhBYAsBNTWNv2HSEIAIUAIoAF7NWDK/FkPoBFiAFAQcKaurvmvIgcBmL+95k/tqT3BTDCb0kDIASALAfUbm/86UhBACBACaMBeDZgyf9YDaEQAABQE9Nd90DwpMhCA+dtr/tSe2hPMBLMpDUQEALIQUL/x+NcjAQGEACGABuzVgCnzZz2ARoQAIAsBNTUNl4YeAjB/e82f2lN7gplgNqWBiAGAgoDzdR80fjPUEEAIEAJowF4NmDJ/1gNoRBAAshBQX9N4WWghAPO31/ypPbUnmAlmUxqIKAAoCBioqWn6VighgBAgBNCAvRowZf6sB9CIMAAoCBisrW36+9BBAOZvr/lTe2pPMBPMpjQQcQBQEJCoq2v6XqgggBAgBNCAvRowZf6sB9CwAACGIWDj8e+HBgIwf3vNn9pTe4KZYDalAUsAIAsB9TUN/xAKCCAECAE0YK8GTJk/6wE0LAIABQHJ2tqGKwIPAZi/veZP7ak9wUwwm9KAZQCQhYC6jY2TAw0BhAAhgAbs1YAp82c9gIaFAKAgIF1f0/iTwEIA5m+v+VN7ak8wE8ymNGApAIxAQNM1gYQAQoAQQAP2asCU+bMeQMNiAMhCQG1t05TAQQDmb6/5U3tqTzATzKY0YDkAjHQCGqYFCgIIAUIADdirAVPmz3oADQCgUUHAUH1tw7WBgQDMv3zz3/NZlzz+6m6ZNGOd/MsfLJWvXL5YvvjNV+Sr339d/p8bV8u1T22WVZsa5cy5AWGcyx9nxs67sSOYCWZTGgAAsgCgICBTu7Hx1kBAAOZamrkODiZkyfufyf8xdaVc9I2Frr7+i8tflVue2yqxrrOAQKK08Uaf3o6XKfNnPYAGADAKAFkIqKtp/KnvEIDBujfY7Qfa5d/d9Lar0NfBwZ99d4k8sWS3XBgcBAQAgUBogGAmmE1pAADIA4AsBNTXNN3mKwQAAO4A4I2Nx0TN5HXBXupr37nvPYmf7gtEAFB/d/WP6jiZMn/WA2gAAOMAYORwQMPtvkFAVI2tmvv11Jv75AvfdNfudwsD/3b6W9LZcw4IoBPgqwYIZoLZlAYAAC0AjBwOaPi5LxBQzaCM4met3NSQPbHPbbCX8r5v3r1ezg9c8DUAolgz9sl9V8OU+bMeQAMAKAgAw52A2sYZxiEAsyxslp82xEUdty8l1Et974xZ2wEAugC+aYBgJphNaQAAKAoACgLU1y+MQgAAUBgA/vb+9zwNfwULX7rsFdl3PO5bAFD/wvW3YWxMmT/rATQAAFcAIPW1TQ8agwAbTK6cfaz5pMXz8He6Bd9/6AMAgC6ALxogmAlmUxoAANwBgBqn2o0NDxmBgHLC0YbfufyBDcYAQIHAoeYeXwLAhlqyj4W7HKbMn/UAGgCAewAYGatHPIcAzHG8OZ460y9f/tvFRgHgt2/sBQDoAhjXAMFMMJvSAABQMgBIfW3jo55CAAAwHgCW1hwzGv6qA/Afb3/XuPlT+/G1t21MTJk/6wE0AIDSAUCNWW1N4+88gwDbDM/N/t7+4jbjAPCn317EJYF0AIxDIMFMMJvSAABQHgCMjNtTnkCAm0C07T3/+ZfvGwcA1QU4evKU8QCwrbbsb37Xw5T5sx5AAwCoCACkrqbp6apDAIaYb4hqPC6Zsc4XANh5qAMAoAtgVAMEM8FsSgMAQKUAoA4HNDxTVQgAAMYDwF/f9o4vALB5X6tR86f242tv25iYMn/WA2gAAJUDwMgY/qFqEGCb4bnZXwCAYHSjkyi8h2AmmE1pAACoGgBI/cbGuSLyhYpBIAomVu19AAAAgGprKqifZ8r8WQ+gAQBUDwBGxnJexRAQVGPyc7sAAADAT/2ZXDfBTDCb0gAAUHUAUCcGzn/sMfli2Z0Ak2YTlnUBAABAWLRa6XaaMn/WA2gAAF4AQKPU1Ta8VDYEVGogUfx9AAAAiKKudftEMBPMpjQAAHgEAMNPEVxQFgToTMH21wAAAMCWvwFT5s96AA0AwFMAUI8SXlgyBNhidKXsJwAAAJSilzC/l2AmmE1pAADwHACkbmPj0hUr5EuuzwkIs3l5te0AAADglbaC9rmmzJ/1ABoAgAEAGH52wJv19fV/4goCgmZIQdgeAAAACIIOTWwDwUwwm9IAAGAGAIbHuWmZKwgwYTJhWwcAAACETbPlbq8p82c9gEZ9bZM6Ts2XqTGobVg+IQSUaxxR/j0AAACIsr5z941gJphNaWBzfTPhbyr8nfVMBAG5ZsD3w8EHAAAAtvwtmDJ/1gNobN/aAgA4wWx2ueqTTz75J9pzAmwxulL2EwAAAErRS5jfSzATzKY0sPfjDgDAbPDnjve69euP/9NxEBBm8/Jq2wEAAMArbQXtc02ZP+sBNI4d6c0NJL43DAP1NY0rxj07IGiGFITtAQAAgCDo0MQ2EMwEsykNnGzqF84D8PskyKYn8roAJkwmbOsAAACAsGm23O01Zf6sB9BQGvh0bxczf8Mz/zFXXmTqNjZOHoWAco0jyr8HAAAAUdZ37r4RzASzSQ2cbOqTLZtOAAH+QkDr9u2xr2QhINcM+H44+AAAAMCWvwWT5s+6gA2lgcMHTgEA/gKA1Nc03Q0AJPRBBwDox8WWULRpPwllQtkPDezbzaGAMa1501DUmX1mgE1m53ZfAQAAwK1Wwv4+P8yfdQIdSgMf72ozHXqsL7fz8EHDf7oo7AbmxfYDAACAF7oK4mcSxoSxnxrYv7dL6mv9PjPe2vU/BQBoDgMAAABAEMPai23y0/xZN/ChNHD4YI98yImBPnQnmuoBAABAvAgWPjMcEEUIE8JB0IC6OmD/3rhs3sTzAkydG7CprjEGAAAAAIBGA7YATBDMn20AQhwNqJsFfXbktOz5pFN2bG3J3jhoUx1PEfQCCjbVNWcAAI35cwggHLNXW0Lay/10jJclIYwG7NMAAAAA0AHQaMDL0A3SZ2P69pk+NafmjgYAAI350wGgAxCkkPZyWxwjYEkooAH7NAAAAAB0ADQa8DJ0g/TZmL59pk/NqbmjAQBAY/50AOgABCmkvdwWxwhYEgpowD4NAAAAAB0AjQa8DN0gfTamb5/pU3Nq7mgAANCYPx0AOgBBCmkvt8UxApaEAhqwTwMAAABAB0CjAS9DN0ifjenbZ/rUnJo7GgAANOZPB4AOQJBC2sttcYyAJaGABuzTAAAAANAB0GjAy9AN0mdj+vaZPjWn5o4GAACN+dMBoAMQpJD2clscI2BJKKAB+zQAAAAAdAA0GvAydIP02Zi+faZPzam5owEAQGP+dADoAAQppL3cFscIWBIKaMA+DQAAAAAdAI0GvAzdIH02pm+f6VNzau5oAADQmD8dADoAQQppL7fFMQKWhAIasE8DAAAAQAdAowEvQzdIn43p22f61JyaOxoAADTmTweADkCQQtrLbXGMgCWhgAbs0wAAAADQAdBowMvQDdJnY/r2mT41p+aOBgAAjfnTAaADEKSQ9nJbHCNgSSigAfs0AAAAAHQANBrwMnSD9NmYvn2mT82puaMBAEBj/nQA6AAEKaS93BbHCFgSCmjAPg0AAAAAHQCNBrwM3SB9NqZvn+lTc2ruaAAA0Jg/HQA6AEEKaS+3xTECloQCGrBPAwAAABC8DsDABUnG4pI60CypfY2S+rRJkie7JDFwIXjbqtGPl4Fd7c/G9O0zfWpOzR0NAAAaA6cD4EMHoPecpDbtl6Hn3xG5cbbI1OfHf10/U4Z+/7akNu6VRM8ZYECj3VIBwTECloQCGrBPAwCAxkQBAIMAcH5A0us/Ebll7vjA10GA89oNsyS9dLMkzpwDBDQadgsCmL59pk/NqbmjAQBAY54AgBkASB46KZk7Xi4t+B0AcJa3zZfUngYgQKPjsRCQjPdK6v09MjR3vWQeXyaZB5bI6e/Mlt6/myu9P14kpx5dJ+1bTopjDiwJCjQQbQ0AABrjBAC8B4DUloMiN8yqLPwdCLj2BUmv3QkEaLScGExIascRyTz2psi08YdVei6eKWO/er87V7qfqwcEmqNt/oQ79QUANKYJAHgLAOoYvvYYvxPoZS7Tq7cDATl6Th5pGQ7+IuM5Nvxz/606A13L9wECgAAaiKgGAIAcw3RapgCAdwCQPHhCZPpMTwBAzXBT2w4DAYmEpD48KHL9xOOcG/i6709dMlNO/WoDARDRAKALYHcXAAAAAMwF5ulzIrfN9yb8nVnuTbMl2XHK3D5p9OOApF/L9Jsfuh5jXejrXjt923IgAAhAAxHTAACgMXA6AN50ANKv17sOpkoOEQzNe89aAEjV7itpjHVhX+i1U4+sIwAMBsDRI32yfP1ZeXzuKbnp4U754c9aZfJ1J2TyNY0yeUqjTJ5+Qn54e6v87NdxeWllrzQ12D2bpZtRev0BAADASFgmO0+5aklXEvyjvzvtBUk2tRvZL79m+br1Jvc3i1z3omcA0HPJTOl69SMgwAMIOHi4T95496w8MuuUXP9gl/zglphMntI0HPYq8N18TT8h9z3TI4cP91EjD2oURcAAAAAAI0GpTtAbDWinXe/hMr2kzsh+6YLYl9cuDErmgVdLHuNCs/1Cr5/+1mxpOXaGgKkgYPYf7Jcla8/Kgy+ekum/6JSrbm4ZntG7CXk375l+QuYs66VGFdQoimGv2ycAAAAwEpSZR5aWHE6VAEPmzgVG9suXsNdottwrKwoFfbHXOSnQfat176f98srqM/KL53vk2gc65aqbqhz2hYBgSqPc/mS3nGhyv626gOC1aI8fAKAxU84BqO45AMnuM9pr0CsJeDe/a81hgMGEZO5cWBZgFQv6Qj87fdksZpea2eVHe/vk5VVn5L4/9Mi0+zrkyhtOumvdFwrxKryuDicAAdEO8UogDQAAADyfKas79bkJ7Gq/J7X5gOf7FoQOQPJYa9njWyjkJ3q9860DVkPA9o/7sm32e37fLVPvCUbYFzpP4I7fdltdq0oCMuq/CwAAAJ6HZKrGmxv/TAQMttwYKL1ii3EAOP3zldaEyraPhsP+7qd7ZMrd7dmz7wuFbVBfn7eccwKiHubl7B8AAAB4DgDpP35cdkBNFPLFfp5+c7Pn+xaEDkDm1yvKHt+JZvqFft77vXmRBIDabWfl+dd6Rc2af3Jn2+eX3VWhHe8nHFx5/UlRlxWWExL8TnQPIQAAAIDnIZnasLvsgCoW8BP9LL1yq+f7FggAuP2lsse3UMBP9Prpb8wMfZiMm9k719iHPOwLgcYjM0+FvmbASHVhBAAAADwPSXV73onC2oufpzfs9nzfggAAldxaeaKgL/RzdYvgMJlxY8PwCXo//023/OjnrXLFtGbfT9ArFNReva5OSuSEwOoGaJj+BnTbCgAAAJ6HZLKx3RcASO1r9HzfAgEAJd78Jxe2CgX8hK+HBADUTXHUzXFG76AX0dm9W2h4fd3ZUIGbLrR4rXoQAwAAAN6H5OCgZCpoU+cGluvvb5glib7z3u+bRj+moUBunVc2YE0Y9JrHBavfOfX14HcAfrfgdChP2HMb5uW8766negAAzSWctkIFAKAxcO4DUN37AKhAHFrwQdkh5Tr0c+4sOPTcWivCX41t5uE3yh7bcgGg9/I5gQ0S1e6/5dEu61r8boBAndhoa9ix3+M7BwAAAGAkKFOfNpUdUuUAQGrLQSP7ZXq2r1vf0Csbyx7bsgFg+muBDJLPPuuTH81oI/wLHOpQtx0mCMcHoa1jAgAAAMaCcujJlWUHVSkQkLn/VUkMXDC2X7pQNvlaavfxsse1XADonr8tkEGi7nznZiZs63uuvO5EIOtmawD7vd8AAABgLCiTR1uM3BI49ckxY/tkMugLruv8gMjNc8qCgHIA4NSkmdJ69HTggkRd5mZrsLvebwAgcLr1EwIAAADAaFimX68vK6jcdgCG5q43uj8FQ1mjKy/fm35jU1njWg4AnL51WeBMdOfuPpls4aV9roN/5JCAehiRn4HDuoN1+AEA0Bg1JwFW/yTA0fAbHJShZ94uK6wmggB1MpwtZ/6Pjqej395zUs7VAKUCgDr7v+3j9sCFCCf9Nbrqflxzd/BqBxT4BwUAgGOgOUsAwEMAUON85pwMVXD7Wh0IqPBXTx0cF4w5dY36z9LvlX7HxZIB4KF1gQt/9RS+K6Y0uQrAUmfMUXu/uhESgetf4AZt7AEATUAAAB4DgBrzgQuSXlxTlU7A0Ivv2jvzH6PfoZfeL2lMSwGA3h8vCmR4PPnSacK/wFn/YwFm1tLgnbsRtFC0aXsAgDEGqmaJAIABABgZ99TOo5K5b3FJoeV0ADIzFkhq035JDJrb3sB3EfoHJPPEMtfj6RYATv/neRI7HMzwyD6hz2UAjg1E2/6tzpWwKeDY1+LdDgAAAPC/bT5wQVIb90rmV8tFpr1QPLymPS+ZR5aKesJgon/A/23X6Md3SOgfkKE564uP48hNk9wAQO/VCyV2ILgPkuE2v+6O/195IycAAgT5QAAAaAycDoB/M+pkzxlJ1e8XdVb70Kw/ytDz78jQrHWSfq1eUjX7JNl5mtDXaHYcdAwmJL1mp8gNs4qCQDEAUA/8OXXvamlpzDeNIJlow7E+mTzFXQDaNtsfu7/Tf9nJ7J/bAOdpAADQmCkA4B8AjAsyTX14j/v6JOO9w7dhLvDAIC0AXDJTeqctkfYtJ/PMIkjB72xL/fZzHP93efjj0TnBPITj1JKledAGADQBAwC4DxjCOCRjpTordZ/K0LNrRG6bP9oVcADg9KWzpPeqBXLqV+9J267w3C/+/Q8BgLEz/UL/fvsDngQIZORDBgAAANBS12gg8mBztl+S7aeko7ZJYvvD+4S47A2AXM6ACwWjDa9fMa1JGo5zAiAAAABMGHh0AEIyq7UxuKu8z1EwRO4AOPE5EOoBSVGoNfuQH+CVjgcdAI2hAgAAQOQ7ACO6r9RAgvD7P+HpfxOeBzHjd9wAKAhaDdo2AAAAwIQdEVvC0Mb9DJohlbM9PARo4g7AnGW9dAC4AmCcBgAAAAAA0GjAFhgoJ3CD9ju1285OOAO24Th/wX2c0ijqdslBqxvbU912fjnjCQBozJ9DABwCAAD8N6dSDG3a/R1AQIGTIXkCYLi0XIruK30vAAAA0AHQaAAACJdpZi8H5IZAWgi6/sEuZv+0/7UaAAA05k8HgA4AABAuAFAzoTt+260NwIKt8QIz5qi9/4l5wb2Nc6UzWH6/sr9TAAAAoAOg0QAAUJmx+GHMTQ398mOuCBgHQWtrz2lnf37UiHUG6+8KANCYPx0AOgAAQLCMym1w7NrTJz+4tXVcCEZtVu96f6Y1iwIjt+PH++waKwAAAKADoNEAABBeIzx4uE+4N8DwpYGqI0Koh1fLXtcOANCYPx0AOgAAQLhNU932Nnt/gGnNVncD7n4qvLd59jr8+Px+AQAAADoAGg0AAOEGAMfca7aek5se7hR1L3zXbfMInRw4bwU3AHK0wHL83zQAoDF/OgB0AACA8WYRZgP99EC/PPnSabnhoU656uaYXGFDZ2BKo+zZF606hlmDQdx2AAAAoAOg0QAAEP3gaDjWJ1Pvje4NhK66uYXj/1z/X1QDAIDG/OkA0AEAAKINAFEPf3W444aHO4uafxBnpGyT2b87AAAAoAOg0QAAYNaITBq/DeGvAOA3808DAHQAimoAANCYPx0AOgAAQDQBwJbwVwDwx3puAGQSLMO4LgAAAKADoNEAABA9ALAp/Cdf2ywnGqNXwzCGbJC3GQDQmD8dADoAAEC0wsOq8L+mUX5yJzcACnLwBmXbAAAAgA6ARgMAQHQAwLbwV+3/e37fXfTYb1ACiO3w9+8MANCYPx0AOgAAgL/GVK1gsDH8FQAsWHUGAOAEwAk1AAAAAHQANBoAAMIPALaGvwIAdeOjakEUnxPdsQQANOZPB4AOAAAQbtOzOfx/cEuM8Gf270oDAAAAQAdAowEAILwAYHP4q9n/zY9wAyC6Fu7+fgEAjfnTAaADAAC4M5CgGa3t4a8A4LcvcwOgoOkyqNsDAAAAdAA0GgAAwgcAhH9j9omHGzZzA6CgBm7QtgsA0Jg/HQA6AABAuACA8B8O/yvVDYCawlW7oIWiTdsDAAAAdAA0GgAAwhMihP9w+Kv2/zV3tbs6+cumkGNfC/8tAwAa86cDQAcAAChsGkEyVML/8/BXAHDfH7gBUJD0GfRtAQAAADoAGg0AAMEHAMI/P/wVACxazQ2Agh66Qdo+AEBj/nQA6AAAAMEGAMJ/fPhPntIo+w8Fu25BCj+2pV8AAACADoBGAwBAcIOE8NeE/zWNcvWt3ACIUC/t7xYA0Jg/HQA6AABAaUZiyngJf334q/b/LY91cQIgdwAsSQMAAABAB0CjAQAgeABA+BcOfwUATy/qLcn8TUEb6wne35JTEwBAY/50AOgAAADBMi3Cv3j4KwCo2cINgJxgY+nu7xcAAADoAGg0AAC4MxATRqvCf8o97dm73KmgC/LXVTe1+LJ9V153ghsA0f4vuQMEAGjMnw4AHYBqAkCy54wkG9okeaw1u0z0nAkMdJkI8ErWEaaZv7oJz+qN53wBAAVIlYwzvxsc4DVZCwAAAAhMGFUzdH39rHP9ktpxRIbmrhe5bb7I1OfHfWV+Nl+G5m+Q1K7PJNF33rcamDSbUtcVppn/1Hs6RG3v4SN9oi7HM92luP/ZHgCADkDJGgAAAADfwsfXkNbUveLtGbggqY17RYW7LvQLvnbbfEmv3SmJ8wPGa1FqKJt6fxjD3xmbH9waMw4Ay9efLdn8ne1laefsX9UdANAEAYcAOARQKgwkj7RI5q6FpQX/mM5A5t7Fw4cINJosdXvcvj+I5h+2tv+xY3154TvjqW6zADD9JMf/mf3nadDt3zUAoDFbAAAAcBug6n2pLYdEbphVUfiPdgeunympDw8Y6wS4NQpT7wvzzN8Zo3dqzxk9DHDbE/GyzN/ZXpZ0AIwZTinG6td7AQAAwK32Uu/vqU7w53YDpj3tpQgbAAAgAElEQVQvqU1mICBI5h/2mX/uWE6529BVC1OaZPMuLv/LHXu+dw80dADoAAB/Gg24AYDkgWaR6TOrDwAKBq6fKeqwgpvtqOQ9QTHLKMz8c8dy9ftnZfKUJs8PBTD7dx92ufXh++FxAwA05k8HQNMBuDAoKvDSr9VL5rE3JaPObr/uxeyX+l69ln69PvuexIVBz4OrktCrxu+qS/vk1nnehP9INyBz+0uSOHPO07EMghFGaeafO553P93jKQCoew7sP0gA5o4535emBwAAACgeMH3nJb1mZ8HL2UaPXee0sBUQpNfu8vXytmqEfLHPSC+q8TT8nXFNv/lh8fpo9Ftsu8f+zG/DjNrMP3c8G473yY9mtHkDAVObRJ1rkLs+vi8t/BgvrgLQmisdgOEOQGrbYcn8/OWygy5zxwJJbT+sHeOxQRSmfydbu71r/eeAVBYCbpglyXivZ2PopwlGdeafO6bqvgD/+PPWqkLAFVOb5JXVZwh/zvyvWAN0ADQzKOsBYDAh6ZVbRaaNv4GNMzN1vZz2vKSXbpbEYHQOC6hZuev9HxvoZfw7vWZH5AAgyjP/XABQ3x841C/T7u+oDgRMPykrN3DN/9gx5t/ldT8AAAAgP1wGB2XoxXerHnBDM9dFBgIyD7xa9fEpBhTq/AqvOiR+GKdN4Z87vr+af0omX3uibBC48aFO2XegPKPP3Q6+ZwwdDQAAAEBeuKTf3OxZuKWXb8lbl1eh5uXnZtv/ZcziiwX8hD+b9rxnhwEcIzC1tDX8nfFV3YB7numWydNPugKBK6Y0yfRfdsrqjcz6nTFkWT2AAQAAgNFQVsf8JwyjSsJPXd++48jo+rwMaq8+2/MxKjC+qd3HPRk3k2Zqe/jnjvWJpn5Rt++96+kemXZvh1x9W6tceWOLXP3TVlEPFbr18S6Z+Uav7P20emafu36+Z1yVBgAAAGA4WPrOizppz1MAmPp89qRCPx9+UykYpN/9yPMx0tUg9f7uUAOACv+p91bpOLjHjwRWATz29r4EJoEZRQ0AAABANljUiWa64PHitewlgppxrzScTfx+9uTIArN0L8bK+UyvxsyEqRH+hKcJnbGO0nUGAGiCyLqrAC4MlnSdvxNK5S7V0/LCerOg9OrtxkApd3zTf/w4lB0Awr90UybIGDNTGgAAAABJ7m82HmrJgyc8CTSvuwCqFZ8bzKa+9+rZAF4aDeFPkHmpLz67cn0BAACApJfUGQ81ddtgr8Pai89PfdpkfKwUZCSPevNcAK9MlPCv3Jy9qg2fS20cDQAAAED2Pv6mZrLOejJPLAslAKgTGOXG2WYh4Ja5khi44Ml4OUZQzSXhT8BUU098lnd6AgAAAKPH/0cBQJ0HoBn7MLw29NxaowAwNHe9Z2NVbXMl/L0z62rXis+jVgCAJoRsOwnQs0faFjtbfvpMz0LNa4hIfXjAKACkdn3m2VhVMwQIfwKlmnris7zXEwAAAJh7sE0uEIQYANQVDKZuB5x58DVPb6FcLZMl/L0362rVis+hVo4GAAAAgEMAGg1M1EVI7TxqpAuQ2tfo2exf7aNjBJUsCX8CpRL98Lv+6QcA0Ji/bYcA1MNmnGPzppaZJ5Z7GmwTBXg1fj70QvUfmpQ7/kPzN3g+RpWaL+Hvn3lXWjt+n9oBAACAqEvycoPHxPfpNzZ5Hm7VCPmin6Fun/zIUk/GLvP4MkmcH/B8jCoJAcKfAKlEP/yu//oBAAAASR7w4UZAh056Hm5Fw1tT93Len+w8VfXzATIPvi7J7jNGxqdcEyb8/TfvcmvH71E7RwMAgCYIbDsEkD2p7bb5nsxkdd2E7K2ABweNBFw5oV7y75ztk6Fn11Rl/NRhhcS5fmNj4xhBKUvCnwApRS+8N7h6AQAAgGzYqIfN6MLai9fUE/VKDllNnQL1GRcGJf3e7rJPqMzc/pKkNu6VxGDC6NiUas6Ef3DNvNRa8n5qCQBogsW6DoAag/4Bycww8DjgO16WMD8OeELoONsn6VXbJHPPIldAlbn/VVFPYjQ568/dh1JCgPAnMErRC+8Nvl4AAABgdMaZ2n5YZNrzroKrrM7AtOdFXT6XG0BR/j7Z3Cmq26HO5h966i0ZenLl8PLl90U93S/Z0uX7WLg1acI/+Gbutpa8j1o6GgAAAIC8EEov+9AzAEiv2JK3riiHf1j2zTGCYkvCn8Aopg9+Fl59AAAAQH4oDw7K0Mx1VYeAoVnrPL2jXVgCN2jbOZF5E/7hNfeJasvPqS0AAADkA4Aaj8GEpFdurc7hgGnPS3rpZsJfo7MgwECxECD8CYhi+uBn4dcHAKAxZitPAtSMQ2rHEcncUf6JgeqkQpuO+Qch0EvdhkImTviH39wL1ZbXqa2jAQBAE3wAQM6laP0Dkn5nl6hr992e+Kfem73Ur9/7O9mVGni8P6e2BZ4FQPgTEE5AsIy2FgAAAGD8IQDNmCQGByV58ET2tsGZJ5YNA8H0mdknCarAV6+p2/smD52g3a8bv4C+NtbgCf9oG/7YevNvu+sNAGiMmQ5A/iyRWXN0xyM3AAh/u8MgVwt8b4cWAAAAwF0HQDNOgEH4wcAxesLfDsN36s2SeisNAACaYKMDEP5gA07c1VCZAOFPGAAEdmoAAAAA6ABoNGALQBD+dho/gU/d6QAUMH46AO5mj7aEZFT38/xAQqbe0y6Tr2kM/NeUuzvk+LE+IbgILjRQPQ3QAdBAAAAAAEQ19J39UuH/6LtDgQ9+BSfX3NUuxwh/4Ke5esEHRAyPJQAAAHAIQKMBJyijuHTC/zszJfAAQPgTeoS1dxoAADTmTweADkAUg1/tU274Bx0ACH/vjJ9QZWyVBgAAAIAOgEYDUQSAseEfZAAg/AkoIMV7DQAAGvOnA0AHIGoAoAv/oAIA4e+98ROujDEdAE34K+MHAACAKAFAofAPIgAQ/gQTcGJOA3QANBAAAAAAUQGAYuEfNAAg/M0ZPyHLWNMB0IQ/HQDC35bwDxIAEP4EElBiXgN0ADQQQAcACAg7BEw081fhHxQAIPzNGz9hy5jTAdCEPx0Awt+W8A8CABD+BBEw4p8G6ABoIIAOABAQVghwO/MPQgeA8PfP+Aldxp4OgCb86QAQ/raEv58dgFCE/9Ez0rqhUdqX7JX2OTulffYOaV+8R9rWHZfYwdPcmpdb84ZeA3QANBBABwAICBsElDrz97MDEOjwP35W2l/bJ113rJWey+ZKz8UztV/dX58tXbeskvaXP5bY4d7QBwEdATs7AgAAAMCdADUaCBMAlBv+fnQAAhv+Tf3SvvygdF+1WBv4hUBAvd59+UvSMXOHtBw7CwjQFQiVBgAAjfnTAaADEBYAqCT8TQNAUMM/duCUdN28quTgHwsF8R+9LrFdHaEKAGb+ds78nboDAAAAHQCNBsIAAJWGv0kACGr4t25rk+4rS5/1jw1/59+qG9D6XgMQQCcgFBoAADTmTweADkDQAaAa4W8KAIIa/rG9cen+/sKKZ/5O+I8uvzlXWutOhCIAnJkgSzs7AQAAAEAHQKOBIANAtcLfBAAENfxbPjsj8WnLqh/+IycNdn9vocR2x4EAOgGB1gAAoDF/OgB0AIIKANUMf68BILDh39wvHb+u9Sz8nU5A1+1rAm3+zPrtnPXn1h0AAADoAGg0EEQAqHb4ewkAQQ7/1o87pOfSOZ4DgAIBdc+AXMPle0I3SBoAADTmTweADkDQAMCL8PcKAIIc/sp8Ox9YbyT8FQDEr1sOAHAYILAaAAAAADoAGg0ECQC8Cn8vACDo4a+O/Re7wY/Tvq/mMrajPbABEKTZKNtivjsCAGjMnw4AHYCgAICX4V9tAAh8+Df3S9uqQ8Zm/w5EqFsIE27mw40xn3jMAQAAgA6ARgNBAACvw7+aABCG8FeB0PnIB8YBIH7TSgCAwwCB1AAAoDF/OgB0APwGABPhXy0ACEv4KwBQx+Sdmbmppbo5ELPRiWejjJH5MQIAAAA6ABoN+AkApsK/GgAQpvDPAsAV1bvrXykAETvOcwIIePMBP9GYAwAa86cDQAfALwAwGf6VAkDYwl+ZYfd3FxjvAChQ4PHBwQu/icLRhp8DAAAAHQCNBvwAANPhXwkAhDH8laHHr1jkDwDQAeAwSADPgwAANOZPB4AOgGkAOH8hIY++OyQqlE1+Tb6mUUr9Cmv4ZwGAcwAI4gAGsV/dBgAAAKADoNGASQDwK/zL6QCEOfyVyXY+9L7xDkD8+hWELqEbSA0AABrzpwNAB8AUAPgZ/qUCQNjDXwFA2wrz9wHomLk9kObv16yT9QbnfAgAAACgA6DRgAkA8Dv8SwGAKIR/NniO9krPN8w8B8C5SqB1exsAQAcgkBoAADTmTweADoDXABCE8HcLAJEJ/5EQ6rp3nbHDAPEpSwNp/MzCgzML97MWAAAAUHoHYOCCJLvPSLKtO7tMDFwo/TM04+516Abl84MS/m4AIGrhr8xW3Zu/++uzjUBA27pjAACz/8BqAADQBBEdgDEdgMFBSR46Iek3NknmgSUi170oMvX5z7+uezH7uvp58tBJSQwOAgQaXSkACVL4TwQAUQx/Z7bV+fhGzwGg65a3Amv8zjiwtLsTAABojBoAGAGAwYSkth2WzD2LPg/73OAv8H3mzgWS2rgXEBijraCFfzEAiHL4Z0Pv6BmJ/+h1zyBA3XAotrsLAGD2H2gNAABjTFrN0gCAhCRPdknmkaUlBX9eV2Dq85J59E1JxuJ0AwI481fhXwgAIh/+I6HU+nGH9Pzdy1WHAHV4ofW9hkAbPzN/u2f+Tv0BAABgXECn9jaK3Dq3ovAfhYFb50pqX+O4dQTleLyJ7QjizL8QANgS/o4Btm46Kd3fe6VqEND97XnSuuYo4c/MPxQaAAAAgLxwTu04Mv4Yf4FW/2jIT/Tz616U1M6jeesxEbxBWEeQw39sB8C28HcgILavuypPCey+6lVp3cYlf864sgx+lwEAAABGgznZ0CZy4+zqzPzHQsENsyR5rHV0XUEIZ6+3IejhnwsAtob/aEg19kn7a/uk+3sLS+8GXDZXOp7aJC1HekMx6xvdZ2bp1tcLAAAAhkP5bJ9kZizwJvxHYECdHJg4228FBIQh/B0AsD78c4PwaK+0v/yJdN2ySnomFblUcNIsiV+7TNRd/mIHTlkfJEBF8Gf7uhoBAABANpDTK7Z4Gv7O4YL0qm2RB4CwhL8CAMK/sHGrR/i2rTkqHfM/ko7ntkrHH7ZIx5xd0rbqkMT2xgn9XHDi+1DqAQAAACTZc0bkpjlGAEBumj188yDNuHvdkjfx+WEK/1+uGZLjx/pCaVy62QyvFYGZw70S29OV7VbEGs5Rc4AlqwEAQBNEtl0GmF693Uz4jxwKSK/ZGckuQNjCv38gQRBENAhiOzukfc5Oid+4UtSVCc5zCbLLSbOl++ol0vl4jag7FQIEhcEp6lAJAAAAFV/v77T33S4zj70ZOQAIY/irjkjUDc62/WutOyFdN6/KD/yLZxb9t7ppUfvLHwMCEYXBYn8DAIDlAJCM94pMy7mt79iz973497QXInUYIKzhDwBEZ+YXO9wrXff9UXouKR72eZ2AMWDQfeViad3QCBRaBAIAgOUAkProM6Ptf6dLkPrkeCS6AGEOfwAgGgAQ29Uh8R+9VnSWXyz48342aXa2G1Bs1sjPoqEbVUcAwHIASL/3iS8AkN6wO/QAEPbwBwDCb+Sx7W3SfflL1Qn/nI5Axwtb6QRY0AkAAGwHAMMnADodgPTbO0INAFEIfwAg3ACgLlPs/sGrVQ//bEfgkpnSvuwAEBBxCAAAbAeANTv96QCsDe+VAFEJfwAg3AAQ/9nb3oS/0wm4bJ6oDgMt/3DrpFj9AADLAUA9tteZlZtcpmr2hrIDEKXwBwDCa+zqgUN5x+6d0K7ysuuOtQBAhLsAAIDtALC/2RcASO5vDh0ARC38AYCQAkBjn8SvWWoEABRktL3fBAREFAIAAMsBINF3XuSGWWYh4IZZotarAigsX1EMfwAgnADQ9sfjxsJfAUDn3e8CAABAeMy60lCx7U6AQ39YYxQAhp5bG5rgV1qKavgDAOEEgM4naowCQM9lc6Xl2FkgIIIQQAdAMwu1DQBS9fuNAkBq04HQAECUwx8ACCcAxK9YZBYA1GGANUcBAADAji6AbQCQGLggmXsWGYGAzF2vSOL8QCgAIOrhDwCEDwBi+7qNh786DKCehljsbHJ+Fj4tqZrRAaADkA3j1JZDRgAgtf0w4T9TRD2Kt1pf6ql+6sE+KtBL/cK4w2XcrRubfAGAzl+8BwDQASjdYEo1pCC837oOgAqOwYQMPb3aUwgY+v3b2fUEocbFtsGGmb+z/wBAuACg7d3PfAGArhnvAAAAAABw0TcWildfm/e1ljyDc4y8KsuzfZJ5YIknEJC5b7Ekes/5u38uZsg2hb/SDAAQMgBYd8wXAOi8iysBovi3wiEATShY2QEYGYdkLC6ZOxdUFQIydy4U9blVgRRNvar1ubaFPwAQrvBXAdRaf9IXAOh6+ANgkQ4AHQCvZv/qc33vADjheuqsDP16RVUgIPPE8lA8+tfG8AcAwgcA6rG/lTzyt9y7B7bP3gEAAAAAgBUAoEDg/ICkV24VuWl2eSBw02xJr9oWijP+bQ1/ACB8AKC6ACbvAugAQ2vdCQAAAAAArAEA55BA9xlJL64RuW2+OxC4bb6kF9eGYtavAtDm8AcAwgkAHc9uMXoYoPt7C6WlKZxjFcXj9tXcJ84BcNreOUubzwFQoaD9ujAoyQPNkl66WdTZ/JmH38jeO0Ath555W9Jvbs7+PHFhUP/7hT7Xx9dtD38AIJyh1rolZhQAOh/fyOw/grN/BRIAgCaAAIACEKAZKy0shOB9hP9wjas5m+CzzAFF18/XGoGA7kvnSGxXBwAAAEQ/FJwwAwCiXWvC//P6EtrmQruaYx3b3iY9k2Z7DgGdT9YT/hENf6VHOgCa2SoA8HlAOFAUlSXhn1/baoYSn2UWJjqe2uQpAMQnL5bYwdMAAACQbxpRCYNC+wEARLPehP/4uhLaZkO7quPd2Cddt6/xBgIumyvqXIOqbm+EgzSs40QHgA5AaE7aKwRsbl4n/MeHvxq3sBoX2z0MLuq+APFrl1UXAlT48/Q/K/42AAAAIPIAQPjrwx8ACPHsP3c2ffysqIf1ONfsV7Ls/v5C4Zr/iOgiVyMFvgcAAIBIAwDhXzj8AYAIGX1Tv7S/8ol0f3dBeSAwaZZ0PrBe1OOG6a5ESBcFgt+pMQAAAEQWAAj/4uEPAETQ6I+ekY5nt4qaybvqBFw6R7ruWCuxTS0E/wRh6YRmlJYAAAAQSQAg/CcOfwAgggDghFhTf7aV3/HMFlH3DIj/5A3pvnKxxK9eIvEbVoh6uE/78oPScqSX4HfGzMIlAAAARA4ACH934Q8ARBgALAyzKM3MTe0LAAAARAoACH/34Q8AAACmgob1BFNrAAAAEBkAIPxLC38AIJimTFhSF1MaAAAAgEgAAOFfevgDAASNqaBhPcHUGgAAAIQeAAj/8sIfAAimKROW1MWUBgAAACDUAED4lx/+AABBYypoWE8wtQYAAAChBQDCv7LwBwCCacqEJXUxpQEAAAAIJQAQ/pWHPwBA0JgKGtYTTK0BAABA6ACA8K9O+AMAwTRlwpK6mNIAAAAAhAoACP/qhT8AQNCYChrWE0ytAQAAQGgAgPCvbviHAQBie7qk9f1GaVt3LPvVWn9S1CNwCZRgBgp1CVddAAAAIBQAQPhXP/wDCQAN56RtzVHpfGSjdP99gQfaXDJT4lPflI4Xtkrr1lZggNv+ooEyNQAAAACBBwDC35vwDxoAqFl+/Eevu3uK3cUzR9/Xdfsaie1sJwTKDAFm7eGatVezXgAAABBoACD8vQv/oACAegZ9/MaVo4Hu6jG2OQCg3t/99dnS8dxWaWmy18yrGQx8lh06AgAAgMACAOHvbfgHAQBaP4xJ/IrFFYV/LjB03vWutBzlHAEC3I4Ar7TOAAAAEEgAIPy9D3+/AaB1a0y6vz2vauHvgED8plUSazjHIQEOCaCBCTQAAAAAgQMAwt9M+PsJALEDp6T7qurN/J3wd5adD72P+U9g/pXOHvn98HcZAAAAIFAAQPibC38/ASD+s7erPvN3wt9Zti3dDwQAAWigiAYAAAAgMABA+JsNf78AoHV9g+fhryAgfsUiaTl+lgAoEgDM4sM/i6+khgAAABAIACD8zYe/LwDQ1J+9ht+ZpXu97JizCwAAANBAAQ0AAACA7wBA+PsT/n4AQGvdCSOzfwcs4j9cgvkXMP9KZo78bjQ6BwAAAOArABD+/oW/HwDQ8fstRgFAgUBsexsQAASgAY0GAAAAwDcAIPz9DX8/AKD7mjeMA0D7nJ2Yv8b8mcVHYxZfSR0BAADAFwAg/P0Pf9MAoK7NV3fsc9rzppZd968HAAAANKDRAAAAABgHAMI/GOFvHAA+6TQe/goy4tevwPw15l/JzJHfjUb3AAAAAIwCAOEfnPA3DQCt29r8AYBrlgIAAAAa0GgAAAAAjAEA4R+s8DcNALGdHf4AwHXLMX+N+TOLj8YsvpI6AgAAgBEAIPyDF/7GAeBwry8A0PXztQAAAIAGNBoAAAAAzwGA8A9m+JsGADVT6f77hcYhoPO3mzB/jflXMnPkd6PRPQAAAABPAYDwD274+wEAnb94zzgAtK07BgAAAGhAowEAAADwDAAI/2CHvx8A0LbykFEAUI8bjvE8AMJPE350MfoFAAAAPAEAwj/44e8HALQc7RUVyqbuAaA6Dhh9NNrV1LH6dQQAAICqAwDhH47w9wUAmvul48XtRgBA3XQotqsDAGD2iwYKaAAAAACqCgCEf3jC3y8AaPnsjHR//xXPIaDjV7UYfwHjZzZd/dl0GMcUAAAAqgYAhH+4wt83AGjul7a1n0nPpFmeQUD31Uskdug0AAAAoIEiGgAAAICqAADhH77w9xMA1GypY84uTwBAnWPQuqUV4y9i/GGcrbLN1e9aAAAAQMUAQPiHM/z9BoAsBDy1uaoQ0H35S9K6oZHwJ/zRgAsNAAAAQEUAQPiHN/yDAAAKAtrePCA935xbMQh0/+BVad3ehvG7MH5m09WfTYdxTAEAAKBsACD8wx3+QQEAZZytW2MS/9nb5UHAZfOk4/dbpOXoGcKf8EcDJWgAAAAAygIAwj/84R8kAHBmT63rj0vXXe9Iz2UT3ysgfsVi6XiyTmJ74pEw/VjDOYltb5PWuhPS9kGjtH4YA2pKCDNHQyzddzcAAACgZAAg/KMR/kEEgFHzPnZW2t4+Ih3PbhF1M5/Ou98d/np8o3TM+0him1oiEfqtH3VIx9xdEr9xpfRMmq3tgMT/8TXpeGqztG5skpYm9+Y+OpaEaCS04kU9AQAAoCQAIPyjE/6BBoCIh1Zsd5d0PvJByZdCxqe+KapL4kUY8Jn2wRUAAAC4BgDCP1rhDwD4YPhN/dIxc7v0XDpHO9t3e4vkzrveldjhXkAg4qDoNZQBAACAKwAg/KMX/gCAYQA4fjZ7OMNtyE/0PnXVgzpnwOuQ4PMN68Qg1AAAAMCEAED4RzP8AQCDxt5wTrpueauiWb8OCLq/+7K0fszzDoCU8rQMAAAARQGA8Dcc/gMXJLW/WdJvbJKhp1dL5uE3JHP3K9ml+rd6PXWgWRIXBovWTYW7my+MszzjLHXcOh/fWPXwd4BAnSTI4QAzdSy17kF/PwCgMcq/vu0duegbC41/bd7X6sq03Rh7Nd5D+LsL0WqMdTLeK+lFNSI/nScy9fmJv346L/v+ZPeZijQTdIOKwva1Ld3vWfg7END5wHoOBRhsnUdBl2ofAAAAQBsghL+h8D8/IOnlW0RunD1x6OvA4MbZkl65VRLnB7R1nAhOomJkgd2PY2el+x8WeQ4APZfMzN4/ILDjQDgHEtAAAABgXHAQ/obCv+eMZH6zorzgHwMDmSeWSTndAALD29Zx+5yd3of/xTOz6+i6ZVUgQwaNeauxSsYXAAAA8gDgwmBCHn13SL4zUwL/9cg7Q3J+wFBYa3Qy0ey62M+TsbhkZiyoSvg7hwwydy4Q9bnF1jv2Z5WYB787sbF3X/WqMQBQhwNiO9qBALoNrjUAAGiM3eZzAJ6rJfzHhmTV/32mTzIPLKlq+I9CwH2LJdF7zjUEEOITh3i5Y9S6JWY0/BUAqI5DudvL73mnhaCOLQAAAIyGxcbDqcDP+lVnIswz/8TgoAw99ZYn4e9AgLpaIDHorjMSVGOKwnZ1vLDNOADEr18BANABcK0BAAAAyAJA30BCfvxKJvAA8Ms1Q9If0ra/6iSkPjzgafg7EJDaemgU7Ip1MKIQtEHdh+xDjUaOzztn63u+/NY8nhcAAAAAxUxvop/ZeAhg2Udpwl8DgxNppaSfnx/IXtPvhLSXy8xdC11dGRDU8IzCdqn79nse+BrAiB045ToAojDO7EP5hy7oAGhM3zYAGLiQkKsXBPukv1C3/Uc0lqr71Mjs3wGL1Kb9E3YBMM/yzXOisYv/cIkvAKCeMDjRtvFz7+oeprEFAAAA2X0i2Mf+w972d7oEQ8+8bRQAhp5dAwD42A6O//h1XwAgticOAPhYdwBAE6qOCYZhaVsHYN7m4Lb/oxL+ib7zIjfMMgoAan2Jc/1FISBMZhW2bY3ftMo8AEyaJS3HzgIAAIArDdAB0MCKbQBw58pgnvwXhba/A7zq/v5Oa97kMrm/GQDwKQw6H/Xu/v+Fzi2IX7HYlfGHDabYXm8OWQAAAIBMezV4ABCZmf+IvlIb9/oCAKmavQCATwDQvuKg8Q5A18MfAAA+1TuMkAIAAADy/XnBOgEwauGvugDpNTt9AYD02p0AgF+BcPSM9HxjjlEIaHv7CADgV71DuF4AAACQfwgQAEQx/LMAsHq7PwDw9g4AwEdj7prxjjEA6Du5cw8AABGpSURBVP7OfGn57AwA4GO9w9YFAAAAALk2IIcAohr+WQB4b7c/ALBhNwDgYyDENrdIz6RZRiCgfdYOwt/HWoct/NX2AgAAgNy1yv9zAKJ0wp9z4l/uMvXRZ74AQOqT4wCAz6HQdf96zwGg+/sLpeUos/8whrCf2wwAAAAy/0N/LwOM8szfgYBkvFdk2gtmIWDaCxM+IthP87Fl3bG9cVEBXejM/YpfnzRL2tYcZfbvM+iFUc8AAAAgu08kfbsNsA3h70BA5rE3jQJA5ollRWf/arvCaFph3ObWTSel57K5nkAATwD05hK5MOqs1G0GAAAAyd4K+GXzhwGi3vZ3gt9ZptfsMAoA6bW7AIAAzQrbVh+uOgR0PFkHxAWoxqUGsN/vBwAAgGxILPvY7GEAm2b+DgAkes6I3DzHDATcNHvC9j8dAPMzR3VSYPyKRRV3ArovnSPti/cQ/oR/RRoAAACALACoxwH/xNDjgK0M/xGdpVduNQIA6dXbJ5z9AwDmASA749vfI9m7BE6aXRYIqFsMq0MKfs8eWb9P+qki9AAAAMBoUNQe8f6hQLa1/Udn/47OzvZL5s4FnkJA9lHAEzwDwNkuTNw/E49tb5POBzdI9+UvTQgCasbf9dPVnOxXxfBD+1wGOBp+jiGqpW3PAsjd9xdqhzw7IdD68B+BgGRDu8iNs72BANX6b2zX6jq3zs73mKB/ADA69o190rr+uHQ8u1XUJYNdt66Wrlveks673pXOJ+ulfdkBiR3uZcZP+FddA3QAnJlZztJmALgwmJDH11UfAh5bNyTnBxKug8kJqKguUzuPilz3YnUh4LoXRX1uKWM2GkKYa9XNlbENAFyh66K6BgBygt8xTpsBQI2BgoBqdgJeqE1nP9MZX5bDIJQ80Cxy2/zqQMCt8yS1r7Gk8Fd1IKQIKTRgrwYAAACgYGjUHE7Jjys4MVCdVFh3JFXw8wGBhCRjcck8Wtn9AdT9BdTnlDOemL+95k/tqT0AAAAUDQ51dcDyj9NydQn3CVDvXfFJWtTvlhNK1v3OYEJS2w5L5p5FJXUDMvcultT2w5IYLH+cCQFCAA3YqwEAAABwFdLqsMCeE8nsbYPvXpWR65Zkso8RVo8SVt+r1176MC17TyZp92s05QpqBgclefikpJdulswvXhOZPjMfCKbPzL6ufp480iKJwUFXtSu2bszfXvOn9tQeANCYte3nABQLDH5W/my75LEbuJC9mU+yrXv4pj4DFyoO/LHbQAgQAmjAXg0AAABA1UNlbMjwb4PQoNFzsfHH/O01f2pP7QEAjWHSAQhuYBULM35Wet0IAUIADdirAQAAAKADoNGALTCB+dtr/tSe2gMAGvOnA1D6TNKWwIzafhIChAAasFcDAAAAQAdAo4GoBX2h/cH87TV/ak/tAQCN+dMBoANQKDCj9johQAigAXs1AAAAAHQANBqIWtAX2h/M317zp/bUHgDQmD8dADoAhQIzaq8TAoQAGrBXAwAAAEAHQKOBqAV9of3B/O01f2pP7QEAjfnTAaADUCgwo/Y6IUAIoAF7NQAAAAB0ADQaiFrQF9ofzN9e86f21B4A0Jg/HQA6AIUCM2qvEwKEABqwVwMAAABAB0CjgagFfaH9wfztNX9qT+0BAI350wGgA1AoMKP2OiFACKABezUAAAAAdAA0Goha0BfaH8zfXvOn9tQeANCYPx0AOgCFAjNqrxMChAAasFcDAAAAQAdAo4GoBX2h/cH87TV/ak/tAQCN+dMBoANQKDCj9johQAigAXs1AAAAAHQANBqIWtAX2h/M317zp/bUHgDQmD8dADoAhQIzaq8TAoQAGrBXAwAAAEAHQKOBqAV9of3B/O01f2pP7QEAjfnTAaADUCgwo/Y6IUAIoAF7NQAAAAB0ADQaiFrQF9ofzN9e86f21B4A0Jg/HQA6AIUCM2qvEwKEABqwVwMAAABAB0CjgagFfaH9wfztNX9qT+0BAI350wGgA1AoMKP2OiFACKABezUAAAAAdAA0Goha0BfaH8zfXvOn9tQeANCYPx0AOgCFAjNqrxMChAAasFcDAECAAODldYdlx8F2vhgDYxp44bU9whdjECUNzF9xQNbWNkpTwzkBborDDQCgAYC/uu0duegbC/liDKKvgX//oFzEF2MQRQ187SH5Z5c+Jd+5fYWs2nAMGGgeDwMAQA4AbD/QLn/3wAb5wjcJfwDIEg1E0fjZJ4BGo4F/8Z0/yNJ1RwGBHBAAABIJOdc/IHfM3C5f/OYr0Z/xMaunxrka0BglHQG6ItHVwEPyl1MXScPxs4BAc79YDwBt8bPyl7esIRRyQ4Hv7dEDAMBs2UINfPVbz8jOTzqthwCrASDWdVb+4tpV9pg9wU6tx2rAQvOP7uyWzkUptf3y3/xadu/rthoCrAWA8wMX5JIZ6wiEsYHAv+3SBABAB8BiDfyLv33O6qsFrAWA++fvssvoCXbqrdOAxeZfymyR90a3u3DprW9a2wWwEgCOnDgl//Q7iwkEXSDwml26AADoAFiugS987WHZuKXFSgiwEgD+8Vd1dpk8oU69C2nAcvNnZh/dmX0ptf03//gSABC125zq9qe9+xyz/0JhwOv2gQIAQAcADYjqAhw8dMo6CLCuAzBz9QH7TJ5gp+aFNID5AwBoIKuBGc/UAQC6WXOUXqP9b8kd7goFHq/nwxDmDwCggawG/vXkOQBAlMJety9/fs2KfAMkEBgPmzWA+QMAaCCrga9c/BsAQBeaUXrtz767hMCzOfDY93z9Y/4AABrIauAL/+ERACBKYT92X9Q9/3nIDYcA0ECOBjB/AAANjGjgIQBgbGhG6d8XBgflS5fxwB8CMCcAbe8IYP4AABoY1sDXAACJUuDr9uW/n/wGXQDbQ4/9//xvAPMHANBAVgNf+qvH6ADoQjNKr33t1rWfmx9BwFjYrgHMHwBAA1kN/NffeBoAiFLY6/ZlxqzthJ7tocf+f/43gPkDAGggq4FLbnodANCFZpReW7f9xOfmRxAwFrZrAPMHANBAVgML3zoAAEQp7HX7ok4E/Fc/Wk7w2R587P/w3wDmDwCgAfkn//FX1oV/S3O/WHcrYAUFTy/bBwAQgGhAaQDzZwzQgFz3+HsAgG7GHMXX+s5fkP9z2ioCAAhAA5g/AGC5Br78N7+RpoZzAEAUw77QPm38uIV7AgAAAIDl5k8HxPLHAX/tYXnhtT1Whr+1hwAcKJiz5iABAATYrQEAgA6AtRp4SKY+8kdrw996AFAg8OCCj+wOAADA7vpba/6Wz3ytr/tDcumtb1od/gBAIpG98+G8dw7Jn357kd1BAAjYWX/rgwAQsO4wyNcellue3Gh9+AMAIwCgOgH7jsflP93+rp0hQPjbW3cAgEMAFmngn3/rGVm0+hDh39yfHQMrLwN0zgEYuxwcTMjarc1y2T3r5Qvf5IExPDTIAg1YZP7WzXSp7TDcfe0h+eplv5eHZ28l+EeCX83+6QDkdADGwsDlD2wwOiv8dze9Lf/vzWv4YgyMauArl/xG+GIMoqSB/3LS70TN9P/ih/Nl+hMb5KM9cYJ/TPADAEXCX8HA+p3mbhn87Xvfi/xTGMcCFv8ePv/E73FwjIDl8IyIcWAcbNIAhwAKgIA6HDBpxjrPuwDqUMPW/W0AQIE6+B2QUV+/TWbHvhLuaCBfAwBAkeA51NwjX/7bxZ5CwB0ztxP+RWoQ9QD2e/8wxHxDZDwYD5s0AABMED4L/3jEsxMC1TH/s30DAMAENfA7JKO8fpvMjn0l3NFAvgYAABfh89jiT6reBfiLa1dJW/ws4e9i/KMcwH7vG4aYb4iMB+NhkwYAAJcBNOvtA/In36rOzYIuvmOdtMbPEf4ux97vkIzy+m0yO/aVcEcD+RoAAEoIobo9MVEz93Kvj1d3G7xv/k7pP3+B8C9h3KMcwH7vG4aYb4iMB+NhkwYAgBKDSIX3H1Z8Kn9+zQrXIKBOJPzxr+vkcHMPwV/iePsdkFFfv01mx74S7mggXwMAQJmBdGFwUN7bdVLumbtT/vq2d+R/mPzG6OOF/+y7S+R/n7IyG/rq0EF7N+3+qAdpWPcPQ8w3RMaD8bBJAwBAmQBQyPDP9XNWf6Gx4fVg3Pwntw42mR37SrijgXwNAABVBoBcc+X74AUeNcmvCYaYb4iMB+NhkwYAAACA8xIs1oBNZse+Eu5oIF8DAIDF5s9sOH82bON4YIj5hsh4MB42aQAAAADoAFisAZvMjn0l3NFAvgYAAIvN38YZL/uc3/XAEPMNkfFgPGzSAAAAANABsFgDNpkd+0q4o4F8DQAAFps/s+H82bCN44Eh5hsi48F42KQBAAAAoANgsQZsMjv2lXBHA/kaAAAsNn8bZ7zsc37XA0PMN0TGg/GwSQMAAABAB8BiDdhkduwr4Y4G8jUAAFhs/syG82fDNo4HhphviIwH42GTBgAAAIAOgMUasMns2FfCHQ3kawAAsNj8bZzxss/5XQ8MMd8QGQ/GwyYNAAAAAB0AizVgk9mxr4Q7GsjXAABgsfkzG86fDds4HhhiviEyHoyHTRoAAAAAOgAWa8Ams2NfCXc0kK8BAMBi87dxxss+53c9MMR8Q2Q8GA+bNAAAAAB0ACzWgE1mx74S7mggXwMAgMXmz2w4fzZs43hgiPmGyHgwHjZpAAAAAOgAWKwBm8yOfSXc0UC+BgAAi83fxhkv+5zf9cAQ8w2R8WA8bNIAAAAA0AGwWAM2mR37SrijgXwNAAAWmz+z4fzZsI3jgSHmGyLjwXjYpAEAAACgA2CxBmwyO/aVcEcD+RoAACw2fxtnvOxzftcDQ8w3RMaD8bBJAwAAAEAHwGIN2GR27CvhjgbyNQAAWGz+zIbzZ8M2jgeGmG+IjAfjYZMGAAAAgA6AxRqwyezYV8IdDeRrAACw2PxtnPGyz/ldDwwx3xAZD8bDJg0AAAAAHQCLNWCT2bGvhDsayNcAAGCx+TMbzp8N2zgeGGK+ITIejIdNGgAAAAA6ABZrwCazY18JdzSQrwEAwGLzt3HGyz7ndz0wxHxDZDwYD5s0AAAAAHQALNaATWbHvhLuaCBfAwCAxebPbDh/NmzjeGCI+YbIeDAeNmkAAAAA6ABYrAGbzI59JdzRQL4GAACLzd/GGS/7nN/1wBDzDZHxYDxs0gAAAADQAbBYAzaZHftKuKOBfA0AABabP7Ph/NmwjeOBIeYbIuPBeNikAQAAAKADYLEGbDI79pVwRwP5GgAALDZ/G2e87HN+1wNDzDdExoPxsEkDAAAAQAfAYg3YZHbsK+GOBvI1AABYbP7MhvNnwzaOB4aYb4iMB+NhkwYAAACADoDFGrDJ7NhXwh0N5GtAAYD6jxBgDNCAhRrAEPMNkfFgPGzRQOxEv1w0ODgYBwAAIDRgpwZsMTv2k2BHA/kaaD3ZP6Q6ADswfzvNn7pTd0wx3xQZD8bDFg10xM6fvSiZTD5DEBAEaMBODdhiduwnwY4G8jXQ1Tmw86JUKnUx5m+n+VN36o4p5psi48F42KKB7u7zN18kIl9KJpNdhAFhgAbs04AtZsd+Euxo4HMNqOP/IvInF6n/EonEfZi/feZPzak5pvi5KTIWjIUtGoh3nn8nG/7qfyLy5UQicZJAIBDQgF0asMXw2E/CHQ0Ma6C1pT999qx8dRQARroAVyUSiQwBYFcAUG+7640pEoxowC4N9MQHf5cX/s4/EonEbwgEuwOB+ttVf8zfLvOn3nbXu6uj/0Mn78ctReSLiURiGSFgVwhQb3vrTSDYHQjU3576d7SdPzl64t+49B95QUS+kEgkHuNwgL2hABDYU3sCwJ4AoNb21jreObBjwvDPhYJEInFlIpFoIQzsCQNqbV+tCQV7Q4HaR7/2bbHzqYLH/HMDX/e9ujpgcHDw3mQy2Uk42BcO1Dz6NScEoh8C1Ni+Gqvr/Ls7B97t7ZX/RpftJb2mzg1IpVJ/k0gkfp9IJLaNAAFPEbTw6XFAQbSggHCwLxyoebRqrp7qpwK/o7X/XFfnwK7Tpwdvcdvu//8Anm2z9rsdxm4AAAAASUVORK5CYII=;" vertex="1" parent="1">
          <mxGeometry x="342" y="208" width="60" height="60" as="geometry" />
        </mxCell>
        <mxCell id="32ch79hQAX0JlgT8ifrZ-40" value="" style="shape=image;verticalLabelPosition=bottom;labelBackgroundColor=default;verticalAlign=top;aspect=fixed;imageAspect=0;image=https://raw.githubusercontent.com/mlflow/mlflow/master/docs/source/_static/MLflow-logo-final-black.png;" vertex="1" parent="1">
          <mxGeometry x="240" y="130.33" width="80" height="29.33" as="geometry" />
        </mxCell>
        <mxCell id="32ch79hQAX0JlgT8ifrZ-41" value="" style="endArrow=classic;html=1;rounded=0;entryX=1;entryY=0.5;entryDx=0;entryDy=0;" edge="1" parent="1" source="32ch79hQAX0JlgT8ifrZ-13">
          <mxGeometry relative="1" as="geometry">
            <mxPoint x="300" y="160" as="sourcePoint" />
            <mxPoint x="140" y="240" as="targetPoint" />
            <Array as="points" />
          </mxGeometry>
        </mxCell>
        <mxCell id="32ch79hQAX0JlgT8ifrZ-43" value="" style="endArrow=classic;html=1;rounded=0;entryX=1;entryY=0.75;entryDx=0;entryDy=0;exitX=-0.021;exitY=0.65;exitDx=0;exitDy=0;exitPerimeter=0;" edge="1" parent="1" source="32ch79hQAX0JlgT8ifrZ-33" target="32ch79hQAX0JlgT8ifrZ-40">
          <mxGeometry width="50" height="50" relative="1" as="geometry">
            <mxPoint x="390" y="260" as="sourcePoint" />
            <mxPoint x="440" y="210" as="targetPoint" />
            <Array as="points">
              <mxPoint x="340" y="152" />
            </Array>
          </mxGeometry>
        </mxCell>
        <mxCell id="32ch79hQAX0JlgT8ifrZ-46" value="&lt;font style=&quot;font-size: 10px;&quot;&gt;Logistic Regression ML Model&lt;/font&gt;" style="text;html=1;align=center;verticalAlign=middle;whiteSpace=wrap;rounded=0;" vertex="1" parent="1">
          <mxGeometry x="408" y="204" width="72" height="43" as="geometry" />
        </mxCell>
        <mxCell id="32ch79hQAX0JlgT8ifrZ-48" value="" style="endArrow=classic;html=1;rounded=0;entryX=1;entryY=0.5;entryDx=0;entryDy=0;" edge="1" parent="1" target="32ch79hQAX0JlgT8ifrZ-13">
          <mxGeometry relative="1" as="geometry">
            <mxPoint x="300" y="160" as="sourcePoint" />
            <mxPoint x="140" y="240" as="targetPoint" />
            <Array as="points">
              <mxPoint x="300" y="240" />
            </Array>
          </mxGeometry>
        </mxCell>
        <mxCell id="32ch79hQAX0JlgT8ifrZ-49" value="Performance&lt;div&gt;&amp;nbsp;metrics&amp;nbsp;&lt;/div&gt;&lt;div&gt;&amp;amp; Best Params&lt;/div&gt;" style="edgeLabel;resizable=0;html=1;;align=center;verticalAlign=middle;" connectable="0" vertex="1" parent="32ch79hQAX0JlgT8ifrZ-48">
          <mxGeometry relative="1" as="geometry">
            <mxPoint x="-52" y="62" as="offset" />
          </mxGeometry>
        </mxCell>
        <mxCell id="32ch79hQAX0JlgT8ifrZ-13" value="" style="shape=image;verticalLabelPosition=bottom;labelBackgroundColor=default;verticalAlign=top;aspect=fixed;imageAspect=0;image=data:image/png,iVBORw0KGgoAAAANSUhEUgAAAgAAAAIACAYAAAD0eNT6AAAAAXNSR0IArs4c6QAAIABJREFUeAHtnQfcFMX5xx96b4ooTQQ0FkRFsIsoWFAEIypgAbEhIioqiA0b9ijGklhjSezdxKgJxkQNNjT/2BUFBRVLbFiwwvwZfA+O4+693Zlts/N9P5/73Ht3W2af+c3v+c7s7qwIf0SACGQ9Am1E5NcicrGIPCwis0TkcxH5SUQUL2KABnKvgQUiMl9EnhaRG0RkvIhskHXjonxEgAiYRaCBiIwQkYdE5GcMPvcGD8gBsyYamCMiZy6Bgi5mNsNaRIAIZCkCOvEfKSJzSfokfTSABgJq4EcRuVFEumfJzCgLESACwSPQV0ReCdjgTXoLrEMvEw3kWwPfLbGbM0SkUXDbYUkiQATSjEC9JTvXjZah/nybM8mX+k1KA/8RkbXTNDX2TQSIQPUINKu5sC8pY2A/JCE04IcGvhSR7atbEEsQASKQRgRaicgzDPlznhcNoIGYNPC9iOyRhrmxTyJABCpHoImIPB5To6eH50cPj3qmnoNo4AcR2amyFfELESACSUfgVpI/vT40gAYS0oA+HcA1AUm7PPsjAmUicHhCjT5I74Bl6EWiAT808AJ3B5RxY74iAglGoLOIfA0A0PNDA2ggBQ2cnqDXsSsiQARKInB3Co2eHp4fPTzqmXqupgE9T0C3Ek/iIxEgAglEYBMRWQwA0PNDA2ggRQ1cn4DXsQsiQARKInBXio2+Ws+A3+k9ogE/NKCnDebZASXmzEciEGcE2omIbniYLDFAA2ggbQ1wLUCcbs+2iUBJBI6JIvmvu3prdcne26hXTh2uvp52qFp0xVhexAAN5EUDFwxTi6cMWOH106n91QfHbqseGL6xGtFjdVW3Tp0o4OHtEn/iIxEgAjFGYLoNAOhGf9bum6kfLhuD2efF7DkOtFyqgTIAUAoEzx+6ueraukkUELBejH7HpokAEaiJgH4y17c2AHDt/ttjlqVmyWc0kTcNBAAADQQfHdc3CggYh0MTASIQfwR62ST/0Vuuh9Hnzeg5HjRdTgMBAUBDwHOHbmZ7OoC7AeL3fvZABGS4KQA0qFdXzTt7JGZZziz5Dl3kTQMhAEBDwPAeq9ucCpiBNxMBIhB/BE4wBYD+63bE5PNm8hwPmq6kgZAAcP/wjW0A4P34rY89EAEiMNUUAE7YqRdmWcks+R5t5E0DIQHg/Qnb2gDAAqyZCBCB+CMwzRQAfrPnVph83kye40HTlTQQEgD0LYKm3iIii+K3PvZABIjAJaaNdNpeW2OWlcyS79FG3jQQEgD0dQCm3lKzHu5MBIhAzBEAAPJm1BwP8BGHBgCAmK2YzROB5CMAAMRhlmyTJJw3DQAAybszeyQCMUcAAMibUXM8wEccGgAAYrZiNk8Eko8AABCHWbJNknDeNAAAJO/O7JEIxBwBACBvRs3xAB9xaAAAiNmK2TwRSD4CAEAcZsk2ScJ50wAAkLw7s0ciEHMEAIC8GTXHA3zEoQEAIGYrZvNEIPkIAABxmCXbJAnnTQMAQPLuzB6JQMwRAADyZtQcD/ARhwYAgJitmM0TgeQjAADEYZZskyScNw0AAMm7M3skAjFHAADIm1FzPMBHHBoAAGK2YjZPBJKPAAAQh1myTZJw3jQAACTvzuyRCMQcAQAgb0bN8QAfcWgAAIjZitk8EUg+AgBAHGbJNknCedMAAJC8O7NHIhBzBACAvBk1xwN8xKEBACBmK2bzRCD5CAAAcZgl2yQJ500DAEDy7sweiUDMEQAA8mbUHA/wEYcGAICYrZjNE4HkIwAAxGGWbJMknDcNAADJuzN7JAIxRwAAyJtRczzARxwaAABitmI2TwSSjwAAEIdZsk2ScN40AAAk787skQjEHAEAIG9GzfEAH3FoAACI2YrZPBFIPgIAQBxmyTZJwnnTAACQvDuzRyIQcwSMAWCfTburq/bdjhcxQAM+aGBoH3XVoPVCvUREWbxitj42TwSIgDEAWDRsG1NgXTtTJX7EzxUN4M5EgAjEHAEAgITgSkKgnH5pNWbrY/NEgAgAAH6ZKkmU+nZFA7gzESACMUcAACAhuJIQKKdfWo3Z+tg8ESACAIBfpkoSpb5d0QDuTASIQMwRAABICK4kBMrpl1Zjtj42TwSIAADgl6mSRKlvVzSAOxMBIhBzBAAAEoIrCYFy+qXVmK2PzRMBIgAA+GWqJFHq2xUN4M5EgAjEHAEAgITgSkKgnH5pNWbrY/NEgAgAAH6ZKkmU+nZFA7gzESACMUcAACAhuJIQKKdfWo3Z+tg8ESACAIBfpkoSpb5d0QDuTASIQMwRAABICK4kBMrpl1Zjtj42TwSIgDEA9NliKzXq4DFOvnTZTZ9muH6Pnk4es6t1VSh3x06djetswM67UmeWbXW/0WPUsFHhXqZtrGa93LhzExE5RETuEZGXRGQ2L2KQEQ18adpIp154ifpkoXLypctuetyHj5/g5DG7WleFcvffaaBxnd3+wMPUmWVbnbtgsXrj03Av0zaWJwAYuCT5v2cZCGPhs18hdjENGwIAbsJPIaG69g4ApKs3ACD8gMT+IvIzSZgknEcNAADpGrJrCdy2vABAunoDAMIBQE8R+T6Pxs8xATRaAwBAuoZsm1BdWx8ASFdvAEA4APgLiZJEmWcNAADpGrJrCdy2vABAunoDAIIDQFuG/kn+eU7+jACka8a2ydTF9QGAdDUHAAQHgEF5N3+OD8BhBCBdQ3YxiduUGQBIV28AQHAA0Lf8cfU5Mci1BgCAdA3ZJpm6uC4AkK7eAIDgADAWAACA8q4BACBdQ3YxiduUGQBIV28AAACQ6x5t3hN21McHAKRryDbJ1MV1AYB09QYAAAAAAKc1lmkAAEjXkF1M4jZlBgDS1RsAAAAsM/+oe5Nsz71TJgBAuoZsk0xdXBcASFdvAAAAAAAwArBMAwBAuobsYhK3KTMAkK7eAAAAYJn502N3r8cedZ0BAOkask0ydXFdACBdvQEAAAAAwAjAMg0AAOkasotJ3KbMAEC6egMAkgGAW0SkGy9ikJAGrjcdGQAA0jVkm2Tq4roAQLp6AwCSAYArg++GJYmAdQQuAQDCnc45fPwEni1v+Wx5EwABAAAAa7dLaAM2EwEBAAlVErtZGgEAIORpHQAgnUQEAKQT9wKsMQIQPGMAAMFjxZLpRgAAAACcGNEAAACAdK0y+N4BgOCxYsl0IwAAAAAAQAqnNAo9a1feGQEIbtQAQPBYsWS6EQAAAAAAAACoqgEAILhRAwDBY8WS6UYAAAAAqpp/FnqpnALgFEC6Vhl87wBA8FixZLoRAAAAAACAEYCqGmAEILhRAwDBY8WS6UYAAAAAqpo/IwDp9r6zEH8AILhRAwDBY8WS6UYAAAAAAABGAKpqAAAIbtQAQPBYsWS6EQAAAICq5p+FHijXAKQ7CgEABDdqACB4rFgy3QgAAAAAAMAIQFUNAADBjRoACB4rlkw3AgAAAFDV/BkBSLf3nYX4AwDBjRoACB4rlkw3AgAAAAAAMAJQVQMAQHCjBgCCx4ol040AAAAAVDX/LPRAuQYg3VEIACC4UQMAwWPFkulGAAAAAAAARgCqagAACG7UAEDwWLFkuhEwBoCOnTqrjXv1dvKly276GOS2q7Vz8phdratCuVu0bGlcZ93WXoc6s2yrPTfprXpsHO5l2sZq1kvXGS32DgBYBI9VE42AMQBYNm5jM2e/QuxCjtqgGSc1k6gRRrkzACDKaLKtOCMAAJBMAAo0kEUNxOl7sW4bAIg1vGw8wggAAJh/Fs2fMqHLCG0u2U0BAMnGm72ZRwAAwGhJtmggixowd7WU1wQAUq4Adh84AgAA5p9F86dM6DKwiWVtQQAgazVCeSpFAADAaEm2aCCLGqjkWZn/HgDIfBVRwJoIAACYfxbNnzKhS2dNGgBwtuq8KzgAgNGSbNFAFjXgrBkDAM5WnXcFBwAw/yyaP2VCl86aMQDgbNV5V3AAAKMl2aKBLGrAWTMGAJytOu8KDgBg/lk0f8qELp01YwDA2arzruAAAEZLskUDWdSAs2YMADhbdd4VHADA/LNo/pQJXTprxgCAs1XnXcEBAIyWZIsGsqgBZ80YAHC26rwruDEAjDvmeDV9xvNOvnTZTZ8QN3TYvk4es6t1VSh3ny22Mq6z86ZdTp1ZttUHH5+p7vlHuJdpG6tZz1kzBgCcrTrvCm4MAFMvvER9slA5+dJlNzWnw8dPcPKYXa2rQrn77zTQuM5uf+Bh6syyrc5dsFi98Wm4l2kbAwC8y0MccEoRAABCDv8CAOlAHwCQTtwLAAYABHdoRgCCx4ol040AAAAAONE7BgAAgHStMvjeAYDgsWLJdCMAAAAAAIDl8Hihl5znd0YAghs1ABA8ViyZbgQAAAAAAAAAqmrg3S/Dnf/X1wtwDUBIcxGRK9PNB+zdswgAACHbKNcApDMUzSmAdOJeGNWY/QUAEDQ3MAIQNFIsl3YEAAAAoGrvr5AE0nwHANIFgFmfAQBBzRoACBoplks7AgAAAAAAcAqgVg18+I0KfQsgpwBCGkvN+RJOAaSdEv3aPwAQsp1yCiCdnigjAOnEXY/6mFwACACENBYAwK/Mm5GjBQBCtlMAIJ1EBACkE/ePFyplMvwPAIQ0FgAgIynRr2IAACHbKQCQTiICANKJ+7yvzIb/AYCQxgIA+JV5M3K0AEDIdgoApJOIAIDk4657/2+GnP5XJ/7Cqyanmd4OmBGLDF8MLgIMHzPWSCcCAAAAUOsFYGle+V+8bwAgWQDQyf9tg1v/CsmfEYCQxsIIQDoZ0PO9AgAh2ykjAMkmogIEAADJxv0dg4l/ipM/ABDSWAAAz1NxOocPAIRspwBAsokIAEg23rrnH0XyBwBCGgsAkE4G9HyvAEDIdgoAJJuQAIDk4v3Rt0q9/fnyc/ilPfqwn7kGIKS5MBWw5+k4+cMHAEK2UQAguYRUSP76nVMA8cX9429r7vU3mO2vNigAAEKaCwCQfAb0fI8AQMg2CgDEl4iKE37p/wBAtHHXSf/9r38Z7re50h8AWDmDcBfAyjHhm2xGwBgATjl32tKrhPWVwq69dNlNeycHHTHBueN1rX7KlXe7AQON6+z6ux+izgrt9PPFxhP71Jbsy/1m2sZq1sumYwYoFQAQIEgskokIGAPASWdPW3a/b7nGn+XvdNlNzenAsROcPe4s10m1svW1AIBr73iIOiu6P79arKP63bSNAQCZyA0UwoMIAAAhTwEAANFdJBYm0QAA6cQ9TB2VLgsAhDQXrgHwIOVm6xABgJBtFABIJxEBAOnEvTSph/kMAIQ0FwAgW9nRg9IAACHbKACQTiICANKJe5iEX7osABDSXAAAD1Jutg7xItNGOvH08509r8o1AO4lEwDArTp7af53xtfZiMjP2bLJcKXhIsBw8WLp9CJwhikAuNwTBgDcSia6ZwkAuFVn01942wYAvkjPEu33DADYx5AtJBOBY00BYIOevRgBSOHK6tJhVl8+AwBuAcC5l/3BBgDeScb+4tkLABBPXNlq9BEYYgoAderUUfc+9ryTEMAIgFvJhBEA9+qr95bb2gDAo9FbXXJbBACSizV7sovAuqYAoNfbbKvt1Ksf/egcBAAA7iUURgDcqbOLr73VJvnrdX9nZ2vprg0ApBt/9h48AnVF5FMbCBgxeqx67ZOfnYIAAMCdZFI4xQEAuFFndzzylGrStJktABwQ3MKytyQAkL06oUSVI3C3DQDodfvtuJt67P/ecQYCAAA3kkkh+XMKIPv1pUcCp1xwuWrUqLFt8tfrd6hsV9n/BQDIfh1RwuUR2N8WAPT6DRs2Urv+epg659Lr1A33Tlf3/GNmZl8HjTve2KQGDd03s8eV5Zjblm2TzbYyrrMp519GncXQHm9/eIa6/Ma71ZhjTlSdu3Qzrp8S/3lmuTW5+R8A4Ga9+VrqJiLyZUkjjKoxs53wc4EQM2LmswbGuW7EAIDrNehf+X8LAIjPpsuxAx1Z0IDuiLR23X4BANdr0L/ydxKR74EAIAANoIEUNXBmHqwXAMhDLfp3DBek2PCz0PugDPSC0UB6GvgoD71/nTYAAP+SZx6OuJmIzAUC6AGiATSQggb0xci5+AMAclGNXh7EdiLyUwqNn55Xej0vYk/s09bAHXlyWwAgT7Xp37FMBgDoAaIBNJCQBl4XkZZ5slkAIE+16eexcFcAvcK0e4XsP/8a/EBE1sqbxQIAeatR/45HTxF8TUI9AIw+/0ZPHVPHpRqYJyLr59FaAYA81qp/x1RHRPRtOYsBAYaD0QAaiFAD/xURfetxLv8AgFxWq7cHtZuI/C/Cxl/aE+AzvUM04I8G9Miinn00t38AQG6r1tsDW0VELhWRRYAAPUE0gAYMNPCWiOzqg4MCAD7Usp/H2EtE9NMDAQF/emz0zqlrGw3MFpExItLQF8sEAHypaX+PU1+5O0VEXuIaAXqDBr1Bm4TCutkHks9E5GYRGSgi9XyzSQDAtxr3+3hXF5G9RORUEfmjiDwoIo+LyPO8iAEayLUG9KN7p4vInSJyUU1Pf1MR0XcRefsHAHhb9Rw4ESACRIAI+BwBAMDn2ufYiQARIAJEwNsIAADeVj0HTgSIABEgAj5HAADwufY5diJABIgAEfA2AgCAt1XPgRMBIkAEiIDPEQAAfK59jp0IEAEiQAS8jQAA4G3Vc+BEgAgQASLgcwQAAJ9rn2MnAkSACBABbyMAAJhVfTsR6SEi/UVkfxGZICLnL3le9I01E03oCSf0S08+oSeZeUVE9DSTc0XkcxH5uOaz/k6/Xlwy9/SzRRNVXCci02pmsDt4yTZ2F5HeItJRRBqYFZm1iAARIAJEgAgsjwAAsDwWxf/pKSG71zwQ4lgRuVJE/iEi74nITylPJ6r3P0dEHhUR/bSqE0VknyXgsQFwUFyF/E8EiAARIAK1RQAAEGklIjvVTA97z5Jk+qqI/JBykjedQ1yXW895f5uInCwiuyx5Ml6b2gTAb0SACBABIuBnBHwDgPoiop8Sd4SI3CAir3nytLhZInKLiBwjInr+a+8eeuFn8+aoiQARIAKVI+ALAAwSkftF5FtHe/amIwKV1vtiCQj8WUSOqwECrx+IUbl58AsRIAJEIL8RyDsAtFjS43+ApF/1MbD6okR9AeMwEWmdX7lzZESACBABIlCIQJ4BoHHNlfWVesF8X/5Z3foiQ/2IXH1nQ+eCUHgnAkSACBCBfEUgzwCgn/lMkreLweIlFxI+LSLHL7lmoku+pC8NRaS9iHTjRQzQgBca6CS/XPSdMyszP5y8AoA29u8AgEgBSMPAEyKi5yVoaS65VNasIyKb1cyr8OCSY5jnycWfALAdABO/fMZPz8Wi52i5YsldU0N9hoK8AsAYkn+kyb/UCPXFlDeLyI4iopNrVv/0xEln1iT80mPgcz7NnXqlXsNqQHcWbxeRAVk1srjKlVcAuBoAiBUAihuYvsVQ302QpfkGVqmh++/RQWI6KNYE/5OEXdWAPuXpDQjkFQD0RDiuCtDVci9cctHgH2puK4wLWINsVw/pfUj9o380gAYsNKBziJ7yPdd/eQUAPY++q4k0D+XW0xTvnHDLaV4zjJeH+HEMtF80kL4G5ovI9gn7WKK7yxUAKHVGXTVvUt+zJ273EACQCQD6b83DkvQMjHH+teWWz0zUN0kr/aRFHURbB/q26IPiNK80t50LAFBzJ/dQc088Q82dPFvNnay+feM41aZVYxpCtA3BJp5vi8hoEYkDBNYSkTcAPgAADaCBmDSg74DS86Lk7s9ZAFDvTe6p5p1wkZo3ea5O+qWvK6buZJOwal23UcN6qnOHlmrzTdqr3Qd0VwcP20idetTW6tIzdlS3XT5ETb9l+NLXM/ePVM8/eKB6ZfohavaTh6u5Tx+hPn/pGPXh8+OXftbfzfrXmKXL/Pue/dWDN+ytbr50sLr8rJ3U1Il91dEH9VZ77bqu2mrTjqpT+xaqfv26tZYrJvFHuU99weDICJ9FoB/k9KYDxx1lDNlWdsCWuvCnLjQEjMobASQJAPp2MX2luJ6MwejWMfXOGY3V3BP3UXMnTy9N+KWfF787WR2494bGDbRu3TpqrU6t1M7bdVVHje6tNFD8/ebh6t2njlB626X7S+LzondOUO89M07947YR6spzdlbHHrqZ2nX7bqp7l9aqTh2n6F/32PXFejZ/+vkF+nkGxnXMusQODaCBEBr4UUS2tDGtrK2bBABsVXNxln4ATcGsF4iIfvRuoAss1NwTe6u5k69ScycvCJNodcLUPemGDeoV9lv2XSfPX3VbRY0c2mNp7/u5P49S3806PpUkH+b4ipdd8OoE9fid+6lLThugRu21odpw3dWUhpiimGfx/ydFZAvDRnFaxo8ti/GmTMs9iFgQCxMNvJuxW54N7fOX1eIEAD2P/B0BTPo6EWlQehRLL+ibO3lwkN5+cSIs97/uNZ9x7Laq35adl/aW1197VTV4x7WXfvfwTfuoz148xqlkX+4Yy3335SsTlp5WOHHclmrbzTopfeoiQH0kvYweWtOTcHQt1UAtnzcWEX1xTtJlZX/EHA2ggStr8SanfooDAPRDeE4N+ejdewunBdRbRzVScyePUnMnv14uqfGd+ekHPaqhT2Mcd9hmaoN12mbNyPQ8ArpXr/VT7U+PHGSt/JSHOkEDfmhgkYj0rmZSLvweNQAMWXKR12wTc16jXbNJat7kqWru5E9J8uZJPkzs9EWJV5+3i9pth+5VT5OY1KnhOvqOgd1qaTwDDbeLOfthztQz9ZyEBvT1R87/RQUAa4jIXTbG3L5d80U/zp6Uy6H4MEk5rWW/eHmCumnaoKWnRjJyquA+EdFz+Zf+6UmGkmjg7IM4owE0UEkD+tRlz1Jzcu2zLQDoq/n1JAn66UqVAhX4+8du3xcAKHNLY9JQoC8o/MNvdlV9N++U9t0FX4rIoYXTQyLyqyWnCXTDC6yp2pat36CuWq1Dc9W+S0texAAN5EQDq3dpqtp1abjSq0mLyK+B0jPOOv1nAwD6sarTazPYsL9dfGp/ACADAFAMHG8/cbiacvTWqkvHlpEk3bCaqFle60xP+HOK4forlH3zHbuo8+4coh6ef4Sa/ul4XsQADeRIA/d+PFj9cf5GZV8XzlhX7Xn86qppy0hgQD9zRN+O7OyfDQCsYKpRGPNZx/cFADIGAAUY0LdU6omKdunXNa1Rga9F5AMbnTVu2kBNuX4gZp8jswfgANhSDdQGAAUwuPzFDdQ6mzWLIoc5fTFgpgBAT25TSDi8J3MhoEmc3/znYUtnKWzZvFEUDSiRbdSrX1ddcM8eJH+SPxrIuQaCAIAGgevmbKi69Wpq6z8Tne3+i0imAOA/D40GADI6AlAOFPS1AhectL1aY7VISNq2Ida6/r4TemP8OTf+0p4gn/0cHQgKABoCLn5mPVW/odWEaTcDABFclNWrx+okf4eSfzEQ6PkFfn/2zqpr51a1JmGb4XubdRs1qa/unzMGAAAA0IAHGggDABoC+o9a1ca3ZgIAlgCgp+L91x37AQCOAkABBn6aPUndePGgpc9QsEnYUa+79a5dMX4PjJ8ev589/tJ6DwsAk+/sZgMA8wEASwC48OTtSf6OJ/8CBOh3PZ+DnmCofbvmNg0rsnX3O64PAAAAoAFPNBAWAK54aQMbr9EXJzv7l+o1AK1bNlr6+Nzi5MH/2b34L2zdfPP6cersiduptC8WHDt1W8zfE/Mv7Q3y2b9RgbAAcNP7G9kAgJ6XxNm/VABAD/nrJ+999MJ4ev456vlXAoRP/3v00rsG0no64RFn9wUAAAA04IkGwgKAvg7A8rQjABA0gL17rqGeuu8AEr8Hib8UCJ5/8EC1TZ9Oto0t9PoAgH+9QHr+/tY5ABCcRxIbAWi7ShN1/W92U4vfzc8Qd2mC43P1utX1r3WwapsmoRN5UMgsXQ4A8DcZAAL+1T0AkDEA2GfQeurj/xxFr9/DXn8lKPrsxWPUmP02SQQCAAD/kgCJ3986BwCCA8A5pb2lKD93at9C/fkPe5H4SfwVNaCnF16zQ7zPGQAA/E0GgIB/dQ8ABAOACVE+Wa0UHA4etpHSM8VV6gHyffXhcl9i9NVrx6pDhltfiFNxNAEA8C8JkPj9rXMAoDoATC5N2FF91rf23XrZYBI/vf7QGrj3mj2VvlYkKi0WtgMA+JsMAAH/6h4AqAwAdUTkooIxRv0+YJsu6v1nx4U2fl96uhxn9VEPfa3I7gO6RwoBAIB/SYDE72+dAwDlAaCeiFwXddLX26tfv676zSk7cIU/vf5I4E/fKTBtSn/VoH7dSEAAAPA3GQAC/tU9ALAyANQXkTviSP56utfH72Qef3r31Xv3YWP073v2Vx3XaGENAQCAf0mAxO9vnQMAKwKAHvaPpeffd/NOav7MIyPp9YVNDiwffcLNYkz/939Hq52362oFAQCAv8kAEPCv7gGA5QCgk//VcfT8d+nXVemnv2UxaVCmfMHBz3NOUEN2WtsYAgAA/5IAid/fOgcAlgPAhXEkf73NsQf0Ivlzzj8xDUw4pA8A4Mlc7iRvf5N3FHUPAPwCAFPjSv4AQL562C6MmAAAJIUokgPbyL+OAACR2O7zL0AFIwBAQJLgAADk37hJztRxFBrwHQBGxDnDHwBA4k8y8Rf2BQCQHKJIDmwj/zryGQD6isj3hSQd5zsjAIBAITkn8Q4A5N+4Sc7UcRQa8BUAuovIJ3Em/eJtAwAAQBKJv7APAIDkEEVyYBv515GPALCqiMwqTtBx/w8AAACF5JzEOwCQf+MmOVPHUWjANwBoLCL/jjvhl24fAAAAkkj8hX0AACSHKJID28i/jnwDgJtLk3MSnwEAAKCQnJN4BwDyb9wkZ+o4Cg34BABHJZHsy+0DAAAAkkj8hX0AACSHKJID28i/jnwBgM1F5IdyyTmJ7wAAAKCQnJN4BwDyb9wkZ+qrutgxAAAgAElEQVQ4Cg34AABtRWReEom+0j4AAAAgicRf2IcNAPTarpMafvSmvIgBGvBAA3setbba/cjVQr0q5bmA3y+ffD+B/+qKyCMBC2Y8f3q17QMAAEAhOSfxbgMA1bTM7xKbTxBbYuuBBhJI+8t3cVZUAW3cqL5xwwcAAIAkEn9hHwAAiSQq32M7aCliDSzPzjH/N0BEFkVR+O5dWqupE/sCADzRL7En+hWSuck7AIBpR+F7bAMdxaCBmNP+L5tvJSJzoyh8y+aN1CvTD1FXnrMzAAAAAACCKUbhK2wDHXmqgUQA4JYogtugfl316K0jlpo+AMAwvklvPI11GAEguUThf2wDHcWggdgBYGhUhb7q3F2W9fgAAAAgjWRusk8AAOOOygPZDlqKWAOxAkAHEfk0igJrEy02XwAAACjWQ5b/BwAw7Sg8kG2goxg0EBsA1BGRv0ZR4C17dVA/vD0RAOCc/woayHLSLy4bAIBxR+GDbAMdxaCB2ADg0CgKu3rbZuqD545cyfgZAWAEoDjJZvl/AADjjsIL2QY6ikEDsQCAfsTv/2wLW69eHfX3m4evlPy12QMAAECWk35x2QAAjNvWC1kfDcWkgVgA4MYoCnve5H5lkz8AQPIvTrBZ/x8AwLyj8EO2gY5i0EDkANBXRBbbFrTv5p3Uz3NOAAA4719RA1lP/IXyAQAYt60fsj4aikkDkQJAQxF51bagrVs2Uu8+dUStxs8pAEYBCgk26+8AAOZt64msj4Zi0kCkAHBKFIW89bLBtSZ/bfgAAACQ9cRfKB8AgHlH4YtsAx3FoIHIAKCLiCy0LeDIoT2qJn8AgORfSK4uvNsAwM677q6mTD2fV8gYDBm6j/FU4Rv36k28Q8YbjUbTRk888zx1/GnhXpY5NzIA+KNlQVSH1ZurL16eAABw3r+qBr55/Th18an91da9O6rmzRoam72tZuNef+qFl6hPFipeIWNw2dU3GGtixMjRxDtkvNFoNG107oLF6o1Pw70sPSgSAOgVxZP+7rl6z6rGX+jxcQrA31GAx+/cT7Vv19zY4C0bTKL7BQDMjBUAMIsbiTzduLkKANNtTXXPXX4VOPlzCsDf5K8fBtWwQb1Ek7Cttm3WBwDMDBkAMIsbAJBu3FwEgIE2BqfXbdWiUdnZ/gq9/XLvjAD4BwGfvXiMWrVNE2+Sv24bAICZIQMAZnEDANKNm2sAUE9EXrIFgOKn/JVL9uW+AwD8A4CTx2/lVfIHAMzNGAAwjx0QkF7sXAOAg2yTf5+N1lCL3qk84U+55K+/AwD8A4Bua7YGALg4K9AFegBAekkMgDCPvUsAoHv/s2wAoE4dUU/ctX+oc/8FIAAA/AIAfXeIjdZcXZdTAGZmCgCYxY3knW7cXAKAA2xNdf9fb2CU/BkB8Cv56/qe9a8xAAC9/0C9f53EAIB0ExkgYRZ/VwCgjoi8bAMATZs0UHOfrn2630Jvv9w7IwB+QcDrjx0KAAAAAAAaCKwBFyHEFQAYapP89bpTJ/Y17v0zAuBX8tf1DQCY9ShcNMEoyswIAHqJQkdJb8MVAJhpAwCrrdpUffXasQAAM/4F1gAAgKGHMWMAAL2E0UtWlnUBAHa1Sf563UvP2DGw8Zcb/mcEgBEAWw26sj4XAZolMgDALG5ZSYS+lsMFAPiXjXl27tBSff/WRACA3n8oDTACgKGHSQoAAHoJo5esLJt1AOghIottAODaCwaGMn5GAPzr7ZercwAAQw9j0gAAegmjl6wsm3UAuMom+a+9Vhv10+xJAAC9/9AaAAAw9DAmDQCglzB6ycqyWQaA1iLyjQ0AXHN+NL1/rgHwb1TABgDW675qaOAoNwph+t2EQ/oY38LINQBmiQwAMItbVhKhr+XIMgAca5P8V2/bTH036/jIjJh5APyCAAAAQw+TFAAA9BJGL1lZNqsAoCf+edMGAM4/sV9kyZ8RAL+Sv65vAABDD2PSAAB6CaOXrCybVQCwuvWvZfNGSs/lbjqEWm49RgD8ggAAAEMPY9IAAHoJo5esLJtVALjbpvc/6fAtIk3+jAD4lfwZAcDMwxo0AIBmwmomC8tnEQBaichCUwCoW7eOmvPvsQAAV/5baYARAAw9jEEDAOgljF6ysmwWAeAw0+Sv1xvUv7uV8Zcb/mcEgBGAMJrkLgD/kgEA4F+dZyWJ25QjiwBgNfPfX67fGwCg92+tAUYAMPQwxgoAoJcwesnKslkDgDVFZFGY3lbxsmt2aKl+nnOCtfmXGwXgIkC/RgEAAAw9jEkDAOgljF6ysmzWAOCk4oQe9v9zJm0XS/LnFIBfyV/XNwCAoYcxaQAAvYTRS1aWzRoAvBI26ReW1xf/vf/sOACA4f9INAAAYOhhTBoAQC9h9JKVZbMEAOsXkrnJ+4BtukRi/OWG/xkBYAQgjCa5CNC/ZAAA+FfnWUniNuXIEgCcEMZkS5e94aLdAAB6/5FpgBEADD2MsQIA6CWMXrKybJYA4MnSpB70c+NG9dWXr0Q781/pSAAXAfo1CgAAYOhhTBoAQC9h9JKVZbMCAKuIyE9BE37pciOGrB9Zz6808Rc+AwAAQKnuKn3mFIB/yQAA8K/Os5LEbcqRFQAYWclMg3x/3zVDAQCG/yPVACMAGHoYYwUA0EsYvWRl2awAwF1BEn25ZZo0rq++feO4SM2/0OsvfmcEgBGAcvor953LIwDljofvRBEDYoAGItGAlP41FJEFpsEdstPasSd/DQIAAAAQVKMAQCRGQdIV4hi0zbGcM1opzf+yrU3lXf+beK/+L4wCAAAAQFCdAgDOmBGQAWSggWQ1sBIAnBLUWEuX05P/fPTCeEYAOP8fuQZ8vQagtI3xGZhBA2ggQg2sBACPmG58694dIzf+Qo+/9J0RAEYAguqUEQAMM6hWWA6teKaBFQCgvoh8ZRqA0ydsAwDQ+49FA4wAYMymvsR6aAcNVNTACgCwuU2gnrhr/1jMv7T3rz8zAsAIQFCtMgJQsfFzvjXZ863Em3hnTQMrAMCkoKZaulzTJg3U929NBAAYAYhFA4wAkMRLPYfPaAINWGtgBQD4i2lAd+nXNRbjL9f7ZwTAr96/rm8AwLqhZ63nQXnoDaOB9DWwAgB8YgoAF5y0PQBA7z82DQAAAICpN7Ee2kEDFTWwDAA62QTp6ftHxmb+5UYBuAbAr1EAAKBiA6YXlX4vijqgDlzVwDIAGGwKAA3q11XfzToeAGAEIDYNAAAAgKk/sR7aQQMVNbAMAE4zDVKfjdaIzfjL9f65BsCv3j/XAFRsvK72Oig3PWY0kA0NLAOAe00BYNyoXgAAvf9YNcAIABBg6k+sh3bQQEUNLAOAd0yDdMNFycz/XzwawDUAfo0CAAAVGzA9qWz0pKgH6sFFDSwFgNYistgUAF6Zfkisvb/ixF/4HwAAAILq1eWJgKZeeInKyrPKXSrHZVffYGzGI0aOJuYLFTFIIQZzFyxWb3wa7hXUBysstxQAjJ8A2LBBPfXT7EkAAKcAYtWAryMAAIBZIgIAzOLmEuTlsaxpAcDoCnRQlaJ7rrdarMZf6PGXvjMCwAhAUM0yAuBfMgAA/KvzPABBWgBwVlAzLV1u+OD1AQB6/7FrgBEADD2MwQMA6CWMXrKybFoAcHNpYg/6+Yxjt43d/Et7//ozIwCMAATVKCMA/iUDAMC/Os9KErcpR1oA8HRQMy1d7s7f7wEAMAIQuwYYAcDQwxgrAIBewuglK8u+82W4CwD1BYOlOTnk56UXAX4UcqVlO33xkYNjN39GAPzq7ZerbwAAQw9j0gAAegmjl6wsO/vz5AGguWny1+steHUCAMAIQOwaAAAw9DAmDQCglzB6ycqyb36WPAD0NAWAls0bxW785XqDXAPg34gAAIChhzFpAAC9hNFLFpad/40KPQdAFKcAdjYFgLRuAQQAAIAwmuUiQP+SAQDgX51nIYnblOFdg0mAogCA/cKYafGyg/p3ZwSA4f9ENMAIAIYexlwBAPQSRi9pL/vxt0qZDP9HAQDHFCf1MP+PPSD5hwAVTglwG6BfowAAAIYexqQBAPQSRi9pL2ty+59O/lEAgPEkQKdP2CaR3l8h6Re/AwAAQFBY5RSAf8kAAPCvztNO4qb7/+gb895/FABwVVAjLV3usjN3BAA4BZCIBhgBwNDDGCwAgF7C6CWtZfXQ/1sGV/4Xev9RAMDdpYk96Oc//Xb3RMy/uOdf+J8RAEYAguqUEQD/kgEA4F+dp5XETff78UKl5nwR/ra/4uQfBQA8HtRIS5f76417AwCMACSiAUYAMPQwRgsAoJcwekl6WZ38Z0eQ/KMAgP8rTexBPz913wGJmH+h11/8zggAIwBBdcoIgH/JAADwr86TTuKm+5v/tVKzLIf9i0cBgvpgheXktQo/LJvut9Lvb/zzMACAEYBENMAIAIYexnABAPQSRi9JLPvhN9H1+qMEgNmVEny17+c9fUQi5l/c8y/8zwgAIwDV9Fn4nREA/5IBAOBfnSeRxEPt41ul9Ox+cxco9bbBHP/FSb62/ws+Z/gu7xuuqD56YTwAwAhAIhrwdQTg5HOmqVmfL+YVMgbnX3F91RHMSr43dL/RxDtkvNFoURv9bLGaVXOPfm2JO6rfKuk44Pfyv4ALrtSgPnvxmETMv9DrL35nBIARgKC6dXkE4KSzpxnNDx6Vubi6nfMuNweAPfcdTcwTTGCuaiwr5Q7qgxWWk68q/LBSwi9d7uvXjgUAGAFIRAO+jgAAAGa3SQEAZnHLSlKjHMHrrzQvh/ws34dcYRkY/PD2xETMv7jnX/ifEQBGAILqlhGA4GaSF+MFAPyr87xoN+xxBPXBCsvJogo/LEv0lX5f9M4JAAAjAIlogBEADD2MMQIA6CWMXlxetlJ+Dvi9/BBwwZWA4Pu3GAEojEjwHu+IhMsAMHHM5iu1naBt7rhTz+F8tMH5aAAAAHA5qQct+3/f+8bYW0TkRxExvwZgwasTEun9lUuunAKIN+GWi3ma37kMAGcet61xI933oCMAAAAADRhoIGgSdXm5h55+zdhbROQzDQCfBu2NlC73yX+OAgA4BZCIBlwGAP3QrNK2E/Rzl27rYP4G5s8IACMALif2oGU/9bxLjb1FRN7SAPBBUDMqXe69Z8YlYv7lep6MADACUKrHSp/TvgjwoZv2sWmk6g93PQIEhIQAAAAACJpEXV3u1Y9/Umuvu4GNtzykAWBOJeOs9v3bTxwOADACkIgGXB4BeGfGWJtGurSR/2fuV0BACAgAAAAAVxN70HJPOuMCK18RkWkaAN6olugr/f7qo4ckYv6MAPjV2y9X3y4DgD6eTu1bWDXWvgMGKiAgeFIDAILHKmjCYbnsxPTia29V9erVs/IUEdlTA8CLlRJ8te9f+OtoAIARgEQ04DoAjNprQ9vGqtZZf0P1xwceYyQgwEgAAJCdZAU4RFcXT7/5idr/0PGqTp06tn7ys4i00QDwZLVEX+n3v988PHLz19MLP/LHYeq2y4eov964t5o/88iy+4jjGoAvX5mg9DHpfT94w94qzYcdlesF5/G772Ydr568e/+lMX/gur1UpVGlOADgx9mT1Ix7D1C3XzFE3XfNUPXiIweX1VoUcf/L9XvbNthl66/XY2N1yPhJasr5l6mzpl3Fq0wM9HS+lXyr2vebbLYVMS0T07i1du5lf1BX3/6gevzl91KD3Odmf66uv+fv6oLf35QpDUw4earacbdfq8ZNmhrrukT3f9PJX//dV/JD4B3cfOngyAxTm+/uA7qrevVWJJs6dUT127Lz0iRRbMRRAoBOLnvvtq5qUL/uSse+Za8OS6GgeN/8b39K4uP/HKXGH7ipata0wUoxX6drG3XDRbupxe8u30+UAPD5S8cofW9+y+aNVtp3l44tldbWz3OineTqp9mT1Optm620P9O2x3pCLCWfMdC920232EbdeN+jiYGAvp1up92HqvoNVvajnLa1A2ryv1xreoDTpvSPBABuvHiQatSw9vMZdevWUedM2m7Z/qICgLuu/LVq2qT2StcQcuK4LVdISEDA8uQcNhbPP3ig6rhG9XPiQwf+Sn3z+nFL6zwqAHhl+iGq25qtqyaPXfp1VXpEKOyx1bb8Wcf3rbpf07bIevlMhj7XqwaBw489Wb3+v0WxgsC0a29TjRs38alt6icANyoAwLmmIjvpyC2tDVIP++rkHrQMuuemTTYKALhp2qCVRhxqK8fUiX2tj7e2BOHDb3P+PVa1XSV4Y9OjPxoCogCA/z5yUKh9awiIciTgi5cnqFYtVh51qE1z/EZi910Dcc6Ged2dD6t69esHzj85qYujC8lfvx9nelCHDN/IKiHqpwm2WzX8OY1jD93MGgD0ef7S0w3V4qCXr3SO2ofkHcUx7rxd19CNbdvNOqmZfzkw9HqF+tTzAIRN/oV1rzp3FyuNl8ZMj5oVts07yR0NVNeAvtr9r0+9GvkowIsfLFTtO3b2rT3OKu79awAYZSrCwTuubWWONma4brdVjCtu7bXahE7+hRgdNKyn1TGXJgSfPv/nIfMLs2zqe9U2TUL1/At1rd+7dm4VaX3rawE22aCdsXaLy8b/1ZMHMcpHjIaNPCxyAJh6yTW+tcPFSy76H1Dc+9f/72raSDbfpL2VOfbfuotzFaBHLHxK2lEeq6vnwPV1A1HGQZ/OaN6soXPaN/UJ1stHEk6zHtu2WyNyAOg/cIhvbfDC0uSvP29qWrG2yVBfcW267zTXi/risCiTS5a3FcW98GnUu75FMOq46lsP9cWlaRwP+yTuLmog6omw1l6vh0/t758i0qAcAOjJAIwDYfNEwPbtmhvv16bMtuum+RCkqBNRktvbdw+reatT08odv9sjcgDQcbc5BWarYdY39zxil07s7v7bk4Pf+1r1i+rVpGnTeZ7UpZ7sr1W55F/47nPTQOhbukyTiD6FYLrftNbTtwwueifae8RN4+faepMO38K5+tY6e/r+kcYar1ZHF526AyMBFh2QtHyA/SYOAV8XklWE7//woB5niki7ajF73jQQeiizmslV+v3k8Vs5lxD0ZEWVjofva58b4G9/GuZcfbdu2UjpC/firNtbLhtcdS4K0/bJeoknKuc07ohG7q2WxAx+P9GRYzfV1AMi0jxIXO40DcTZE5dPzhPWJN+ZMVY1bFD7BECm5YprPT1NcdjjZPlfwEDfU7/BOm1NxZzKenoCqCTqT19ouOG6q6VyjHG1FbYLfESogR2DJLKQy7QXkW8iLGNW2u/3Nbf31wkaj/NNgzB6H7vb4ly6MnyvXddNJBkkkXDS2sdjt++r6peZctlUf3Gu171La6Un70kqVvrZBOef2I87BDglkJVEkpVy3B40kRksZzwPTpzeY7Hth0VknbBxGGO6w236dLIySD3f+34OXBzWZ6M1lJ64KKlkkOf96Ml1sn4FvJ47IOrb/4LW6f/+72h1ylFbqTatGmfFgCkHUJKWBvR5+qZhE1rI5S81zX8ZWU/f368f7rNdyONetrieHMCogls0a2h9UZweGh4xZH2j/ZuWO8x6Ovkn2RMMmihcXu6KqTtlFgJ08tczB6YdX/2kRP2sin0GrWc8kVEYnbOsmQcSt1jipi/6O63SrWvLMld0/+iH4+g58jObh0rK9pOIPC0ip4rIWrZh0FcJGh+4ntjE1iz1hVZZhACSf+0X9tnUexYhICvJvzSu+s4TPSKhgUBfd6OfiTFmv01ieUVwu+afRORqXsTAQAP6dPS+1W5bs014FdbXD8gZKCJnishVBmWPU/OXLYGhc0TkMBHpJyItKxyD8dfzTSHgT7/d3RoAtOHpkYAD9szO5Ay9eqyuPnvxmEiOrdTQ+fwLWFxz/sDMjAToIXeb21rzUqcP3bSPcWdARHTPra6xC7EiESACqUTgIVMAmHBIn8iSZFYggOQfX8+/NFFmAQJI/svre8rRW9sAwJOpuBc7JQJEwCoCxo8F7ru53YWApQkhbQgg+S9PBqV1E9fnNCGA5L9ife+47Vo2APBbKxdiZSJABFKJwHDTEQD9YBOdtKNMDmlBAMl/xWQQZZ1W21YaEEDyX7G+9bUGrVo0sgEA/XRR/ogAEXAsAuuaAoBeL45bppK+MJAL/lZMBtUSdhy/J3lhYFYv+IsjrkG3+dLfDrZJ/nrdno75HsUlAkSg5sId41mRfjd150hHAAqGlRQEkPzTT/6FOk8CAkj+5etbj8JYdAQWikh93JQIEAE3I/CYaeOPc5a8uE8HMOxfPhkUEnIa73GeDmDYv3J965k9TT1ARJ5y0/YoNREgAjoCZ5g2/lVaN7aeEKi2RBPXSAA9/8rJoLb6SOK3OEYC6PnXXt/rdV/VBgCuwEaJABFwNwLGMwJqcHjhr6NjOQ1QSDZRjwTQ8689GRTinuZ7lCMB9Pxrr+95Tx9hk/z1usPctT5KTgSIgJ5z+QfTUYDfnLJDrACgE1FUEEDyrz0ZpJn0S/cdBQSQ/KvXt76Ox7TtL5m2Vc9HvjoWSgSIgNsReMbUBHbdvlvsABAFBJD8qyeD0iSc9mcbCCD5B6vv3XbobgMAL7pte5SeCBABHYELTQGgWdMGSj/AJIlkoa8JGD44/AOEOOcfLBkkUYdh92FyTQDn/IPV98I3j1dNmzSwAYBLsE8iQATcj8DupgCg1/vL9XsnAgA6eYSFAJJ/sGQQNjEnuXwYCCD5B6/vB2/Y2yb563UHu299HAERIAL6KUPG1wHo24iSTAj6moBJh29R9YEyQwf+Sn312rGJli3JOPi0rzt+t4fSo021geoG67RVs/41hvqeGwwCxo3qVWs8a4u1iOhHk7bCOokAEchHBP5epcFXNAvd69I986QT0sy/HKiG7b6eatl8+TSmjRrWU7v066p07ybp8rC/YInHNE4fPHekOubgPqpT+xbLtFinjig9ynP5WTupH96eSJ0HTP66Drp0bLksjgZtX183xB8RIAI5icDRBiawzECm3zI8NfPVc5nPn3mkeu+ZcerHFEDENKGxnjkw6Ec2vzNjrNLnsYlj+Di+/Hfr6X/1c8r5IwJEICcR6GYDAEeM7IURh+h9kbTCJy1iFl3MTh6/1TJ4N2z3m+fE9zgMIkAEaiLwmqEZqNXbNot1VkDMPzrzJ5Z+x1KPmK3ZwWr4/z0RqYNrEgEikK8IGN8OqMHhn3fsyygAowBoIOMaePTWEba9/0vzZXscDREgAjoC25mOAOj1Rg7tgfln3Pzp/fvd+9f1P2qvDW0BoC92SQSIQP4iUFdEPjCFgCaN66svXp4ABAABaCCjGvjm9eNU82YNbQDgIxGplz/r44iIABHQEdCzexkbxFXn7oL5Z9T86f3T+7/x4kHGbbvGF67EJokAEchvBPrYAMDmm7QHAAAANJBRDfTfuostAOyYX+vjyIgAEdAReMMGAl7628EkgIwmAEYB/B0FeGfGWFW3bh0bAPifiDTAIokAEch3BE6zAQA9WxuJxt9EQ91ns+6PO2wzm+Sv152Wb9vj6IgAEdAR6F7zrG8jw9BT8375ChcDkgizmQh9rBf9TIxWLZZPmW0I+D2wRyJABPyIwNOGJrEUGi4+tT+jAJwGQAMZ0cC0Kf2NYL7IA57yw/Y4SiJABHQEDi1q/KHNQz+whXn56QH72NvO2jHrp2d27dwqdBsuaf8HY4tEgAj4E4EmIvJZiQmEMpGbLx1MDzAjPcCsJSXKkxwc3nb5kFDttkyb/1pEWvhjfRwpESACOgL6oh9j89ho/dXU4neTMzqSCrFGAytrYIteHYzbcE37vxo7JAJEwL8I6IsBF9lAgJ53HFNe2ZSJCTFJQgNP3LW/bfLX6/PkP/+8nyMmAksj8DcbAFhjtWaqd881eBEDNJCCBtq3a24LAItF5HlexAANJKqBZ0VkuojcXTMSP1ZE9CR9iU/DvYcNALCu+SkUYkfs0AAaQANooEgDX4jIrSKya1Iw0FhEviwqgG2PgvUtrqugHjADNIAG0AAaEJE5IqJHBhrFdbain4i8gtgQGxpAA2gADaCBTGrgbRHZLUoI0L3+66nsTFY2IyiMoKABNIAG0ECpBq4TEX37vtVfJxGZSfIn+aMBNIAG0AAacEoDL4lIZ1MC+JWIzKfCnarwUgrkMz0DNIAG0IC/GpgnIuuHhQBNDe+Q/En+aAANoAE0gAac1sAHItI1KAS0FJE3qXCnKxzi95f4qXvqHg2ggVINvCEirYJAwM0kf5I/GkADaAANoIFcaeCuagBwABWeqwovpUA+0zNAA2gADfirgZGVIKD5kokEPgIAAAA0gAbQABpAA7nUgM7xrctBwOlUeC4rHNr3l/ape+oeDaCBUg1MLQWANiLyFQAAAKABNIAG0AAayLUG9HT+K1wQqOcQLqUEPhMTNIAG0AAaQAP508CRxaMAM6IAgLad11EDDjpFHfib+9SR181QR980kxcxQANoAA2gATQQQAOjrpmpBl/2/AqvQdOeUv1Pu19tNOJk1bLD2lHBmH7E8NK/NUVEP+fbeMMNGjdVe510lTr/6Z/Uhc8u5kUM0AAaQANoAA2E1MCkfy1Wox9WFV+jHvxJbTX+SlWvYRPjfF2U6ztoAhhR9EXojTZq2kIddcOzVHTIigaUAEU0gAbQABoo1kA1ACjAwe6/fVY1aNI8dL4uyfX6tn+5pOTLUBsdef5dJH+SPxpAA2gADaABSw0EBQANAv1Ouj1Uri6T53+nAeDxMj8E2nD3Tbenwi0rvJj++J/eABpAA2jAXw2EAQANAatv2DdQrq6Q4x/VAKDnCDbayPDTbwQAAAA0gAbQABpAAxFoICwAbHvcDUa5uybn6wf+ycemAHDS/XOo9AgqHeL3l/ipe+oeDaCBggbCAsDeN8yxAYAvNAD8aAoA5/37ewAAAEADaAANoAE0EIEGwgLAyD9/bwMAP2sAMN5AgVp4h2DRABpAA2gADXHjaNQAAA5XSURBVNhpICwA6OsAbHI4ABABtSF6O9ETP+KHBtAAGlisAAASMkNpaAANoAE04KEGAAAPKx3ypfeDBtAAGkADAAAAAPmjATSABtCAhxoAADysdMgf8kcDaAANoAEAAACA/NEAGkADaMBDDQAAHlY65A/5owE0gAbQAAAAAED+aAANoAE04KEGAAAPKx3yh/zRABpAA2gAAAAAIH80gAbQABrwUAMAgIeVDvlD/mgADaABNAAAAACQPxpAA2gADXioAQDAw0qH/CF/NIAG0AAaAAAAAMgfDaABNIAGPNQAAOBhpUP+kD8aQANoAA0AAAAA5I8G0AAaQAMeagAA8LDSIX/IHw2gATSABgAAAADyRwNoAA2gAQ81AAB4WOmQP+SPBtAAGkADAAAAAPmjATSABtCAhxoAADysdMgf8kcDaAANoAEAAACA/NEAGkADaMBDDTgFAEffNFPxIgZBNXDsLf9VUx6ary54ZlGq5nbawx8qXZag5WY5NI4G0EASGhh1zUw1+LLnQ71ERFm8rFa22THr2lWcs/Fr1a6T6rf/RHX6Ix8nBgJnTP9U7XDgiarNGl2cjZtFI+eYPW1raIb8VkUDBKhKgDDPmMyzSYs26tDLHokdAsZe+U/VrHVb6jGmeqT94KFowFkNOFtwDD0Hhl6vfgN1+O//ERsEHH3jc6pBoyZoJQdaIcng1Wggcg1EvkHMFrMNpYGWbdurs//1deQQcO6TCxnyR4uhtEiCIR94pgEq3LMKz6Qh7n7MRZEDwNDJv8/ksaI3PAcNoIGMaICKyEhFeJ2s1tp4m8gBYJ3Nd/I6pugab0MDaKCKBghQlQCRRBIYRm7cvFXkAKBPLVC3tG80gAbQQEUNVPwB80wg8SHMX/RXt1499ez8xeq5D1Vkr6bNW6BhNIwG0AAaqKwBAIAknL4G1mjfQX2yUEX66rb2OjT8yg2f2BAbNIAG0jd/EjB1MHTYvpEmfw0T+x14MAaHwaEBNIAGKmuA5AOApK+BO//8t8gB4M/Tn6DhV274xIbYoAE0kL75k4D9roOdd9098uRfOJ0wZOg+mBwmhwbQABoorwG/kw/wkW79r9+jp5o1//PYAGDOx1+pTTbtQ+Mv3/iJC3FBA35rIN0EQAL2M/5169ZVw/YfpXSCLvTW43qf++m3auRBh6l69ephdn6bHfVP/aOBFTVgnoA27tVb+fhac62uxiJq02YVL2OmdaJ74jsNHKSOP2mKevKFV2JP/KVAMeP/XleTTjljaRl0WXzUbpLH3LFTZ+N20na1dtSPp/6apEaztq+em/RWPTYO97LsRJsDQKnB+vL56ptuMza2PfcZkXji86VeOM5ob6O0jefUCy8xbieHj59AO4n4tljb+mT9+NvX3AWL1RufhnsBAAk3FAAg/oaA2bgfYwDA/TqkHSZbhwBAwsncROAAQLKNwqSOWCf9OgIA0q8D2oFbdQAAAAAMfTqgAYy1urECANVjhI6IUbEGAAAHzJ8RABptcaPl//J6AADKxwW9EJdKGgAAAABGABzQQKUGzPfLzR0AWB4LdEEsgmgAAHDA/BkBoDEHacy+LwMA0E58bwNhjx8AAAAYAXBAA2Ebto/LAwAAgI+6tzlmAMAB82cEAGOzaeS+rAsA0E580XpUxwkAAACMADiggagafJ63AwAAAHnWdxzHBgA4YP6MAGBscTT+vG0TAKCd5E3TcR8PAAAAMALggAbiNoI8bB8AAADyoOMkjwEAcMD8GQHA2JI0BVf3BQDQTlzVblrlBgAAAEYAHNBAWgbh0n4BAADAJb1moawAgAPmzwgAxpYFs8h6GQAA2knWNZq18gEAAAAjAA5oIGvGkcXyAAAAQBZ1meUyAQAOmD8jABhblk0kK2UDAGgnWdGiK+UAAAAARgAc0IArhpJmOQEAACBN/bm4bwDAAfNnBABjc9Fcki4zAEA7SVpzru8PAAAAGAFwQAOuG00S5QcAAIAkdJanfQAADpg/IwAYW55MJ65jAQBoJ3FpK6/bBQAAAEYAHNBAXg0oyuMCAACAKPXkw7YAAAfMnxEAjM0HM7I9RgCAdmKrId/WBwAAAEYAHNCAb8ZkcrwAAABgohuf1wEAHDB/RgAwNp9NKuixAwC0k6BaYblftAIAAACMADigAQyrenIDAKrHCB0Ro2INAAAOmD8jADTa4kbL/+X1AACUjwt6IS6VNAAAAACMADiggUoNmO+XmzsAsDwW6IJYBNEAAOCA+TMCQGMO0ph9XwYAoJ343gbCHj8AAAAwAuCABsI2bB+XBwAAAB91b3PMAIAD5s8IAMZm08h9WRcAoJ34ovWojtMpABh18Bjl46vvDgOUiBi91urW3cuY+agT34+5zxZbGbUR3bbW79GTduKpv/rcbvYbPUYNGxXuZZqLatYzS2SWOzU2BvZLfaEBNIAG0AAaiEQDkWyEhG44IoCI0R8aQANoAA2kpAECn1LggSagCQ2gATSABtLUAAAAAKABNIAG0AAa8FADVLqHlZ4mcbJvejxoAA2ggWxoAAAAANAAGkADaAANeKgBKt3DSoe+s0Hf1AP1gAbQQJoaAAAAADSABtAAGkADHmqASvew0tMkTvZNjwcNoAE0kA0NAAAAABpAA2gADaABDzVApXtY6dB3NuibeqAe0AAaSFMDAAAAgAbQABpAA2jAQw1Q6R5WeprEyb7p8aABNIAGsqEBAAAAQANoAA2gATTgoQbMK/2iK65WPr4OGH2oMb326r2ZlzHzUSe+H/Meew0zbif6kdu+x4/j9y+/nHfpVeqsaeFeltBiDgCfLFTKx9fVN91mbGx77jPCy5j5qBPfj3nqhZcYt5PDx0+gnXjqrz63m7kLFqs3Pg33AgASbigAgJ/g57MxmRw7AEA7MdGNz+sAAAkncxOxAQAYm4lufFsHAKCd+KZ52+MFAAAAhj4d0IBtQ/dhfQAAAPBB51EeIwDggPkzAoCxRdno87otAIB2kldtx3Vc734Z7vy/vl6AawAShgYAAGOLywDytF0AgHaSJz0ncSxzAIDsNxoAIPt1lERjZR+16wAAqD0+6If4lGrgrc8YAcj8OXAAgIZb2nD5vLImAICVY4JOiEklDXz4rQp9CyCnABIe/teVBwDQiCs1Yr5frg0AYHks0AWxqKaBeV8BAJnv/etKBABozNUaM78rBQDQTmgHwTXw1ufhh/8ZAWAEwAlowgiCG0FeYgUA+FfnedFu0sfx/tdmvX8AAAAAAFLQQNIG4eL+AAAAwEXdJl3mjxcqZdr7BwBSMH9OAWBsSZuEi/sDAGgnLuo26TKb3PuvE3/hxTwACUMAAICxJW0SLu4PAKCduKjbJMv8nuGFf4XkzwhAwslfiwMAwNiSNAlX9wUA0E5c1W4S5dbJ/82innxxUg/zPyMACUMAAICxJWEQru8DAKCduK7hOMqvz/nbDvsXAwIAAABwIWDCGojDGPK2TQAAAMibpm2PZ/7XSpnM9lec8Ev/BwASNn9GADA2WyPwYX0AgHbig86rHaOe4U9P8mNzpX9p0i/+nBoAzFuglI+vK66/zfgJTEP2GuFlzHzUie/HfPp5lxi3k0PGTaCdeOqvrrcb/Uhf/dIP9om6t1+c+Av/pwYAhQL49n7xtbcaG9ugPUcsu33Dt7hxvMtv3fEhFiedPc24nRw4dgLtJIILxHzQme/HCAAk3FAAAL8Sme8GY3r8AADtxFQ7rBdcOwAAAEBvKWENYFDVDQoAqB4jdESMbDUAACRs/owA0GhtG60P6wMAtBMfdJ72MdoCwCLTDbz68U9e9jwBAIwt7Ubvwv4BANqJCzp1uYw6B5vmbxHRuV++Nt3Ak69+AACIhKoALgLEFF02nDBlBwDQehi9sGx4vTz+8nuh8k9Jrl+gAeCDki8Db/DKWx4AAAAALzWAWVU3KwCgeozQETGy0cDv/nRf4HxdJs+/pwHg6TI/BNqor71ZTgHQaG0arS/rAgC0E1+0ntZx7vrrYYFydYUcP0MDwI0Vfqy64bp166p7H3veux4gAICxpdXgXdovAEA7cUmvrpX1runPKp2DTfO3iFyvAWC8xQZUpy5d1Yw3PvIKAgAAjM01s0ijvAAA7SQN3fmwzxmvf6g6dO5ik/z1uuM0AGxgAwB6XQ0Bdz/6nDcQAABgbD6YjO0xAgC0E1sNsf7KGtI9/45rrmWb/PX662kAqCMic2whQA9F6GsCfn/z/eqJV95Xeb5FEABYWZQ0VGJSqgEAAE2UaoLP4TWhc6nOqfqCP33O33LYvwAOb+nkX/g70xYAWD/c7YDEi3ihATSABtBASho4vZD89XsXEfkxpYIUiIT3kLcUUl+YBxpAA2gADYTUgM71axYDgP7f+G6AkDsn0ZPo0QAaQANoAA2ko4E/lCZ//bm7iHxHMocm0QAaQANoAA3kUgMLRaRrOQDQ351Bpeey0iHtdEibuBN3NIAGsqSBKZWSv/6+kYi8AAQAAWgADaABNIAGcqWBmTU5vjYGWHoq4EsqPlcVnyUCpSz0iNAAGkADyWrgCxHpVmvmL/qxH9cDAABAIBpAA2gADTivgR9EZMei/B7o3z1E5Hsq3/nKh7STJW3iTbzRABrIigb0hf1DAmX8MgttLyKcDkDMWREz5UCLaAANoIFgGtDD/no03+pPTxL0DCMBjASgATSABtAAGnBCA/pi/rWtMn/RyvruAD11IPMEBCMvCJU4oQE0gAbQQNIa0Pf561v9dM6O/E9fRXgD0wY7QYBJC4/9YXZoAA2ggXQ0oKf3vb62SX6ipAF9WkBPGvQ2w0HAABpAA2gADaCBVDSgn+qnR+dXmts/yoRf27bWF5Eja+hjhoi8z4WDqQgB8k6HvIk7cUcDaCBuDeiL8XVu1TlWz+U/TkTWqy0xB/nt/wEAl1kcGzpSPAAAAABJRU5ErkJggg==;" vertex="1" parent="1">
          <mxGeometry x="230" y="222.5" width="35" height="35" as="geometry" />
        </mxCell>
        <mxCell id="32ch79hQAX0JlgT8ifrZ-57" value="" style="edgeStyle=orthogonalEdgeStyle;rounded=0;orthogonalLoop=1;jettySize=auto;html=1;" edge="1" parent="1" source="32ch79hQAX0JlgT8ifrZ-52" target="32ch79hQAX0JlgT8ifrZ-56">
          <mxGeometry relative="1" as="geometry" />
        </mxCell>
        <mxCell id="32ch79hQAX0JlgT8ifrZ-52" value="" style="shape=image;verticalLabelPosition=bottom;labelBackgroundColor=default;verticalAlign=top;aspect=fixed;imageAspect=0;image=https://icons.iconarchive.com/icons/untergunter/leaf-mimes/512/text-x-python-icon.png;" vertex="1" parent="1">
          <mxGeometry x="225" y="360" width="40" height="40" as="geometry" />
        </mxCell>
        <mxCell id="32ch79hQAX0JlgT8ifrZ-53" value="Scoring Script" style="text;html=1;align=center;verticalAlign=middle;whiteSpace=wrap;rounded=0;" vertex="1" parent="1">
          <mxGeometry x="217" y="410" width="63" height="20" as="geometry" />
        </mxCell>
        <mxCell id="32ch79hQAX0JlgT8ifrZ-54" value="" style="rounded=1;whiteSpace=wrap;html=1;" vertex="1" parent="1">
          <mxGeometry x="460" y="332.5" width="190" height="95" as="geometry" />
        </mxCell>
        <mxCell id="32ch79hQAX0JlgT8ifrZ-59" value="" style="edgeStyle=orthogonalEdgeStyle;rounded=0;orthogonalLoop=1;jettySize=auto;html=1;" edge="1" parent="1" source="32ch79hQAX0JlgT8ifrZ-56" target="32ch79hQAX0JlgT8ifrZ-54">
          <mxGeometry relative="1" as="geometry" />
        </mxCell>
        <mxCell id="32ch79hQAX0JlgT8ifrZ-56" value="Model Prediction" style="whiteSpace=wrap;html=1;verticalAlign=top;labelBackgroundColor=default;" vertex="1" parent="1">
          <mxGeometry x="313" y="360" width="87" height="40" as="geometry" />
        </mxCell>
        <mxCell id="32ch79hQAX0JlgT8ifrZ-60" value="" style="shape=image;verticalLabelPosition=bottom;labelBackgroundColor=default;verticalAlign=top;aspect=fixed;imageAspect=0;image=https://miro.medium.com/v2/resize:fit:640/1*dpXAaEpwsJcs2UbZEp5jJw.png;" vertex="1" parent="1">
          <mxGeometry x="475" y="350" width="70" height="35" as="geometry" />
        </mxCell>
        <mxCell id="32ch79hQAX0JlgT8ifrZ-61" value="Backend API" style="text;html=1;align=center;verticalAlign=middle;whiteSpace=wrap;rounded=1;" vertex="1" parent="1">
          <mxGeometry x="472" y="388" width="79" height="25" as="geometry" />
        </mxCell>
        <mxCell id="32ch79hQAX0JlgT8ifrZ-63" value="" style="endArrow=none;dashed=1;html=1;dashPattern=1 3;strokeWidth=2;rounded=0;" edge="1" parent="1">
          <mxGeometry width="50" height="50" relative="1" as="geometry">
            <mxPoint x="560" y="342" as="sourcePoint" />
            <mxPoint x="560" y="412" as="targetPoint" />
          </mxGeometry>
        </mxCell>
        <mxCell id="32ch79hQAX0JlgT8ifrZ-64" value="" style="shape=image;verticalLabelPosition=bottom;labelBackgroundColor=default;verticalAlign=top;aspect=fixed;imageAspect=0;image=https://streamlit.io/images/brand/streamlit-logo-secondary-colormark-darktext.png;" vertex="1" parent="1">
          <mxGeometry x="566.8" y="340.5" width="81.2" height="47.5" as="geometry" />
        </mxCell>
        <mxCell id="32ch79hQAX0JlgT8ifrZ-80" value="" style="edgeStyle=orthogonalEdgeStyle;rounded=0;orthogonalLoop=1;jettySize=auto;html=1;" edge="1" parent="1" source="32ch79hQAX0JlgT8ifrZ-71" target="32ch79hQAX0JlgT8ifrZ-79">
          <mxGeometry relative="1" as="geometry" />
        </mxCell>
        <mxCell id="32ch79hQAX0JlgT8ifrZ-71" value="" style="shape=image;verticalLabelPosition=bottom;labelBackgroundColor=default;verticalAlign=top;aspect=fixed;imageAspect=0;image=https://cdn.worldvectorlogo.com/logos/docker.svg;" vertex="1" parent="1">
          <mxGeometry x="530" y="270" width="62.5" height="52.5" as="geometry" />
        </mxCell>
        <mxCell id="32ch79hQAX0JlgT8ifrZ-74" value="&lt;font style=&quot;font-size: 9px;&quot;&gt;Training data&lt;/font&gt;" style="text;html=1;align=center;verticalAlign=middle;whiteSpace=wrap;rounded=0;rotation=270;" vertex="1" parent="1">
          <mxGeometry x="129" y="146" width="64" height="12" as="geometry" />
        </mxCell>
        <mxCell id="32ch79hQAX0JlgT8ifrZ-76" value="&lt;font style=&quot;font-size: 9px;&quot;&gt;Validation data&lt;/font&gt;" style="text;html=1;align=center;verticalAlign=middle;whiteSpace=wrap;rounded=0;rotation=270;" vertex="1" parent="1">
          <mxGeometry x="128.11" y="319.67" width="66.06" height="11.73" as="geometry" />
        </mxCell>
        <mxCell id="32ch79hQAX0JlgT8ifrZ-86" value="" style="edgeStyle=orthogonalEdgeStyle;rounded=0;orthogonalLoop=1;jettySize=auto;html=1;" edge="1" parent="1" source="32ch79hQAX0JlgT8ifrZ-79" target="32ch79hQAX0JlgT8ifrZ-84">
          <mxGeometry relative="1" as="geometry" />
        </mxCell>
        <mxCell id="32ch79hQAX0JlgT8ifrZ-79" value="" style="shape=image;verticalLabelPosition=bottom;labelBackgroundColor=default;verticalAlign=top;aspect=fixed;imageAspect=0;image=https://docs.sedex.admin.ch/assets/docker-hub-logo.png;" vertex="1" parent="1">
          <mxGeometry x="580" y="172.66" width="110" height="27.34" as="geometry" />
        </mxCell>
        <mxCell id="32ch79hQAX0JlgT8ifrZ-87" value="" style="edgeStyle=orthogonalEdgeStyle;rounded=0;orthogonalLoop=1;jettySize=auto;html=1;" edge="1" parent="1" source="32ch79hQAX0JlgT8ifrZ-84" target="32ch79hQAX0JlgT8ifrZ-85">
          <mxGeometry relative="1" as="geometry" />
        </mxCell>
        <mxCell id="32ch79hQAX0JlgT8ifrZ-84" value="" style="shape=image;verticalLabelPosition=bottom;labelBackgroundColor=default;verticalAlign=top;aspect=fixed;imageAspect=0;image=https://user-images.githubusercontent.com/27962005/35744587-b8fdb6f6-080e-11e8-8039-a214b7f165c5.png;" vertex="1" parent="1">
          <mxGeometry x="599.5" y="40" width="70.11" height="70" as="geometry" />
        </mxCell>
        <mxCell id="32ch79hQAX0JlgT8ifrZ-85" value="" style="shape=image;verticalLabelPosition=bottom;labelBackgroundColor=default;verticalAlign=top;aspect=fixed;imageAspect=0;image=https://miro.medium.com/v2/resize:fit:626/1*CZWSKOr-Gi5aosrqwLvN7A.png;" vertex="1" parent="1">
          <mxGeometry x="743" y="39" width="72" height="72" as="geometry" />
        </mxCell>
        <mxCell id="32ch79hQAX0JlgT8ifrZ-93" value="" style="edgeStyle=orthogonalEdgeStyle;rounded=0;orthogonalLoop=1;jettySize=auto;html=1;" edge="1" parent="1">
          <mxGeometry relative="1" as="geometry">
            <mxPoint x="881" y="367.5" as="sourcePoint" />
            <mxPoint x="821" y="367.5" as="targetPoint" />
          </mxGeometry>
        </mxCell>
        <mxCell id="32ch79hQAX0JlgT8ifrZ-94" value="" style="shape=image;verticalLabelPosition=bottom;labelBackgroundColor=default;verticalAlign=top;aspect=fixed;imageAspect=0;image=data:image/png,iVBORw0KGgoAAAANSUhEUgAAAgAAAAIACAYAAAD0eNT6AAAAAXNSR0IArs4c6QAAIABJREFUeAHt3QlwnOd933E67bRN67aZNk2TaTqTdqadxknTaTppc3TSjm3FjmXJOmjJPETdsizLumzLlkhf8VXf8qX4PiJbl53YsnxpLIKSTJBYXiJpkdjdFyBOEuBlx4cskpD8dB5QoEESJLGL3X3ffZ+PZlYAgcXu+/6e7/P/f59nr0WL/CcBCUhAAhKQgAQkIAEJSEACEpCABCQgAQlIQAISkIAEJCABCUhAAhKQgAQkIAEJSEACEpCABCQgAQlIQAISkIAEJCABCUhAAhKQgAQkIAEJSEACEpCABCQgAQlIQAISkIAEJCABCUhAAhKQgAQkIAEJSEACEpCABCQgAQlIQAISkIAEJCABCUhAAhKQgAQkIAEJSEACEpCABCQgAQlIQAISkIAEJCABCUhAAhKQgAQkIAEJSEACEpCABCQgAQlIQAISkIAEJCABCUhAAhKQgAQkIAEJSEACEpCABCQgAQlIQAISkIAEJCABCUhAAhKQgAQkIAEJSEACEpCABCQgAQlIQAISkIAEJCABCUhAAhKQgAQkIAEJSEACEpCABCQgAQlIQAISKE8CIYTn9Ow4/Htrak+/Yk1t6i091SNf7umf+l5P/1RfT3XqBz3VpwddZIABDGAAA+kyMPWD6Z4Ye2PskbWpN6+pPX3xw9nh53WdDaythn++pv/pS3uqR+7tqU1N9lSngosMMIABDGAAAw0yUJuaXN1/5J6e2tMr1uwIzy2sEKzun/rT1dUjd/VUp35mkBscZJJEEjGAAQxg4PQM/KyneuRv1uw88seFEYE19akX9lSn1mj6mj4GMIABDGCgIwysXl2den5uIrAmC7+9ujr1FYPdkcFmxqc3Y/nIBwMYSI6B1bWpB9f0P/U7HROB+MS+1f1Tr+upTv1c89f8MYABDGAAA7ky8GRP7cjNsTe3VQTW1MKv9/RPfdNg5zrYyVku3vCGAQxg4PQMxN2Ah/vDv26LBMSX8/VUj4wahNMPgnzkgwEMYAAD+TBwZHhN7fB/aakEPFw78kc91an9+ZwQkOSOAQxgAAMYmCcDP4yvymuJBPRUp/7MS/uAN0/wPDzhiVgYwAAG8mfgZw/3T/3JgiRgzc7Dv99TnTqo+BMADGAAAxjAQFcx8PcPVw//QVMS8NjO8Fs91andBryrBpx552/exsAYYAADBWHgyOhDA+E3GpKAt4bwK9Pv2W8QCzKIJISIYgADGMBA4wysqU713B/CP5i3BBz94J7G78jgyAwDGMAABjBQLAbWVKdWzksAjr7cb+qIASzWABoP44EBDGAAA00ycPjR+uHfPa0ExHcSitsFTd6B7XIPmWAAAxjAAAaKycAjp323wPgZxJo/w8QABjCAAQyUkIH+py+Ycxdg+j3+q1PbDXoJB72YNmqVYFwwgAEMdJaBrXPuAvRUnz5X89f8MYABDGAAAyVmoP702SftAnjZX4kHvLOGyejljQEMYKC4DDx0nACsroV/11Odepr1kQAMYAADGMBAqRl4Jvb8YxKwujb1RgNe6gFn48W1cWNjbDCAgY4ysLp/6nXHBKCnOtVLAAgABjCAAQxgIAkGHpkWgDU7wnN7qt74B/RJQN9Ry8YUpjCAgYIycPihbeGfLVpTnXpxQQ9QsbYthgEMYAADGGgDAw/vnDprUU//1G0EgKViAAMYwAAGkmLg1kU9tSNfMOhJDTqbboNNm0PmEAYw0F0MPP3Z+BDAuu46aJAZLwxgAAMYwMACGVi7qKd6ZGiBN2JFaUWJAQxgAAMY6CoGnh5Y1FOd2k8AmCQGMIABDGAgKQb2RQE4ZNCTGnSW3lWWjk31CQMYaAsDT0UB0BBkgAEMYAADGEiMAQKQ2IATPsKLAQxgAAORAQJAAFg/BjCAAQwkyAABSHDQ2T/7xwAGMIABAkAAmD8GMIABDCTIAAFIcNCZP/PHAAYwgAECQACYPwYwgAEMJMgAAUhw0Jk/88cABjCAAQJAAJg/BjCAAQwkyAABSHDQmT/zxwAGMIABAkAAmD8GMIABDCTIAAFIcNCZP/PHAAYwgAECQACYPwYwgAEMJMgAAUhw0Jk/88cABjCAAQJAAJg/BjCAAQwkyAABSHDQmT/zxwAGMIABAkAAmD8GMIABDCTIAAGoToWHdzwVvvr9sfDlh7PwuQe3hs+6yAADGMBAqRiItT3W+FjrY823AzIVkhWAe1YPhpUfuCssu/aN4ayXLQ8vOGeJiwwwgAEMJMBArPmx9q/6wJfCPT2DycpAcgJw36PD4fqVHzLJE5jkpI7UYgAD82HgqlveEe5ePZCcCCQjAA/94Mlwy1/9dXjBuUs1f80fAxjAAAaOZ+DcpeG17/hkiL0ilYcHkhCAb2zYF5Zfd/vxgw1+eWAAAxjAwAkMxIcGvt43kYQElF4AvrZ+Irxs2XUgPwHy+WyLuY7tUwxgIEUGzlv+6iQkoNQC8N3tPw1LrrlV89f8MYABDGCgIQaWXvuG8ND2n5V6J6DUAuDJflYvKa5enDPuMdAaBm5404cJQDc+IeLz39rekO2ZMK2ZMHKUIwYwUCYGPvfNbaWVgFLuAKzuPxKWv+o2AmDLDwMYwAAGFsRAfAJ57CnduBA+0zGXUgA+9bVNCxrwMtmrc7EawwAGMLAwBj7zwBYCcCabKMrv4+M2gF8Y8PKTHwYwgIGjDNz0lo8RgKI0+NMeR/+RcM4rriEAtv0wgAEMYKAlDJyz5JWlfBigdA8BfHXteEsGnPla/WAAAxjAwAwDf9u7u3S7AKUTgE99bSMBYP0YwAAGMNBSBj799U0E4LTb7wX4POUPf2lNSwd9xv58tRLAAAYwkC4DH7n7UQJQdAH44Be+RwCYPwYwgAEMtJSB2FuK3v8aPb7SPQTwgS8SAKuUdFcpxt7YY6A9DMTe0miDLfr1CUCbLPmsc5aE5edfGq5ffGV4w8uvCjcsvjJccsGl4S/adH+NTPoly5eG61+9PNz++uXh1luWh6uuXhZeemF7Jk0jx/XSJSvC8htfFa5edUO45k03Tn//0qWXttTiGzke182fCWNgDIrCAAEowGP8ZzKqvHcArrrwsnDXJTeEH1x1Wxi6ZtVJlyeuuj3cc8lN4dUXXtHRxnbRsqXh83dcGnZ854pwsHLlSZfJ3ivC6rsvC2+7/ZJw1rmdKzovXrw83PqR28Kneu8ID45/Pjy4+/jLN8Y/Fz7Te0d448duC3950SUdzawohcdxdI5HWcv6VAwQAAJwyga0+LxLwldW3Bx2zdH05xKB+LMHVtwSlpy34pS3eSoQG/n5i89fEj77oUvDRO/JTX8uEYg/2/rg5eHG1yxv63HFc7jxPa8L9+78xElN/0QJmPn3/dVPhpvfd2t44blL235sjWTsupoGBsrPAAEgAHM2nssvuCxsufKNJ632T9X4Z/+8/6rbw82Lr5zzdhdaVC5csjT0fe3yk1b7p2r8s3++v+/K8NF3t2fFfdZ5y8L/+8o75t34ZwRg5usHHnh3eNGF7ReUhebv78vfFIxxOmNMAAjASY366gsuD7WrVzbV/GdEYODqleGmFkvA+RcvDTu/O/d2/+xGf6bvP/n+Fu9QnLskfOS772u6+c9IwMcffn846zw7ARpQOg3IWOc71gSAABwnAHHbf+spHuufae7z/brz6tvDsvNb02xf9LIl4fv3N7fyP1EIDvRdGVbd2rrV9ls+/+YFN/8ZCXj7XW89bjwUyHwLpPzlX2YGCAABOK7hfPWSmxa08j9RDh667HXH3X6zk+n9b1/R1Lb/ic1/5t8jj14RXnbRwlfbr7jumjmf6DfT0Jv5esnNr2pJZs1m7e80PQykwQABIADHmk18tn8jT/g7sdmf6t8LfT7ASxcvCUM9C9/6n2n+M1/jEwkXWujuXP3+lq3+Z2Thk499aMHHtdDz8vdpNADjnPY4EwACcKzZ3LX8xpau/meE4IFLbzl2H80UnHesuqSlq/8ZARh55IrwFy9rfhfgwiuuaHnzn5GAi6/16Y/NsOJv0m5oxr+x8ScABGC6Occ3+TnV6/xnGnmzX7OrV4azF/Ayt4e+dFlbBCCKwA3XL2taTt7w0dvbJgC3f2JV08elCDZWBOUlr1QZIAAEYLrRxHf4a7bBz+fvrlvc/JsEDT8y/9f7z6zu5/v14+9t/kmKH/72e9smAB/73vsIQAHeYTLVxuC805AiAkAAphvN9Rde0VYBWHnR1U01tBefvzTEZ+3Pt6E3er177mz+eQCfWffhtgnAFzZ+tKm8FO40CrdxNs6tYIAAEIDpRvPGi65uqwC8++Jrm2poi5csbVvzj7Lw7S9e1tRxxcn35W13tk0A7uv/ZNPH1YrC4DY0GAyUnwECQACmG81rFl/ZVgFYeVFzT2qLb/vb6Kq+kevf+9fF3AH44qaPEQAPAWAAA21lgAAQgGnA4qf6zeex/GavEx9iaHZFEV+z30hTb+S6n3jfAp4D8J32PQcgvryw2bz8XflXbsbYGLeCAQJAAKYbTfxI3/ipfs02+NP93cA1q8I55zb/bPv4iX6NNPVGrnvLjc2/I+Btd65s20MAb/r0mwiA1R8GMNBWBggAATgGWPxI39M18mZ/980Fvg/Ae97anvcBGHvsivCi85pfSVx07dVtE4Al17/y2Li0wvTdRvPjLDvZlZUBAkAAjjWaV7fplQBveHlzrwCYmXTnXbQkxGbdyMp+Ptf98sebf/x/5tg+vfaOlkvA5/o+4uOBrfyOzcsZ1nwlIq1mgAAQgOMKzQMrbmnpLsCay18XXtiCYv7Rd7f2swDGv39luOAVzb8L4MxEXHHLdS0XgMtvvf64MZm5L181AAxgoJUMEAACcFyzWXLeipY9FyB+pPCVFzT/MrvZoP/l+UvCpgda82mAcXfgXW++5Ljznn1fjX7/7nvf3jIJeO/fvrNlx9Xoebi+5oKBtBggAATgpIYTXxI4cPXKBe0ExA8Vur3JN/85VRG6aNnSMLh64Q8F3P3x5p/5P9exnXXesvCJRz64YAn4dO8d4UUXNP9kybmOzc/SKujG23g3wgABIAAnCUAE6IbFV4YdVzf3qoD61SvDqoube93/meBdtmJp2Pat5iXgSx9dEc46t/VF4sWLl4c7vvWepiUgvvXv2Re3VkzOlKXft54Dmcq0mxggAARgTgGIEC87f0V46LLXNrQTEB/zb9W2/6km0jmLl4avfurSht4iuP69K8KqNzT/kr9THctxPz93SXjjx28Pf7frM/MWgXjd+ME/L1zApxIedwwteL6F29PEMJAGAwSAAJxSAGaKwM2LrwzxI33jyn6ulwLG1/l/69JbQny2fyue8Ddzv2f6evkVS8PfffrScLoPC4rPG7jjnStCfA7BmW6vVb8/Z9ml4S2ff3P40tZTv1Xwl7ffGd72xbeGc5e15jkSrTp2t9M5TmQt67wZIAAEYN6N8SXnLguvuvCKED/YJ763/6qLrgnxHf4W8iY/rZgAcUv/2lcuCytvvSS8/+0rwjtWXRJef/PyEJ8z0IrbX8htvPyaq8LVK28IN7/v9eHm998arll5Y4jvH7CQ2/S3GgcGMNAKBggAAdCMbJtjAAMYSJABAkAATPwEJ34rVg9uwyoUA93NAAEgAASAAGAAAxhIkAECQABM/AQnvpVbd6/cjJ/xawUDBIAAEAACgAEMYCBBBggAATDxE5z4rVg9uA2rUAx0NwMEgAAQAAKAAQxgIEEGCAABMPETnPhWbt29cjN+xq8VDBAAAkAACAAGMICBBBkgAATAxE9w4rdi9eA2rEIx0N0MEAACQAAIAAYwgIEEGSAABMDET3DiW7l198rN+Bm/VjBAAAgAASAAGMAABhJkgAAQABM/wYnfitWD27AKxUB3M0AACAABIAAYwAAGEmSAABAAEz/BiW/l1t0rN+Nn/FrBAAEgAASAAGAAAxhIkAECQABM/AQnfitWD27DKhQD3c0AASAABIAAYAADGEiQAQLQBQKwKftxmJzYHybiZc++sCdedu+dvuzePRl2jx+9jI9NhPGxPdOXsdE9YWx0dxgb2R1GR8anLyPDY2H6MjQahl1kgAEMYKCrGBgZGj1aw4fHjtX1WOOna/3o0dp/tAdMHOsLsUfM9IvYO2IPib0k9pTYW3q6oAc2coyLGrlyN1x36/CT4cC+Ay4ywAAGMICBljEQe0s39MBGjpEAmCAtmyDEi3hiAANlZYAAdMH2hx0ABaisBch5YRsD+TFAAAiA1bIdEwxgAAMJMkAACICJn+DEt+rKb9Ule9kXhQECQAAIAAHAAAYwkCADBIAAmPgJTvyirEAch9UwBvJjgAAQAAJAADCAAQwkyAABIAAmfoIT36orv1WX7GVfFAYIAAEgAAQAAxjAQIIMEAACYOInOPGLsgJxHFbDGMiPAQJAAAgAAcAABjCQIAMEgACY+AlOfKuu/FZdspd9URggAASAABAADGAAAwkyQAAIgImf4MQvygrEcVgNYyA/BggAASAABAADGMBAggwQAAJg4ic48a268lt1yV72RWGAABAAAkAAMIABDCTIAAEgACZ+ghO/KCsQx2E1jIH8GCAABIAAEAAMYAADCTJAAAiAiZ/gxLfqym/VJXvZF4UBAkAACAABwAAGMJAgAwSAAJj4CU78oqxAHIfVMAbyY4AAEAACQAAwgAEMJMgAASAAJn6CE9+qK79Vl+xlXxQGCAABIAAEAAMYwECCDBAAAmDiJzjxi7ICcRxWwxjIjwECQAAIAAHAAAYwkCADBIAAmPgJTnyrrvxWXbKXfVEYIAAEgAAQAAxgAAMJMkAACICJn+DEL8oKxHFYDWMgPwYIAAEgAAQAAxjAQIIMEAACYOInOPGtuvJbdcle9kVhgAAQAAJAADCAAQwkyAABIAAmfoITvygrEMdhNYyB/BggAASAABAADGAAAwkyQAAIgImf4MS36spv1SV72ReFAQJAAAgAAcAABjCQIAMEgAAUYuLvH9sT9m3dGSbXb3GRAQYwkCsD+7b1h/3jE4Woje3cLSAABCBXyPcNj4XxO78chl71ljB0zSoXGWAAA8Vg4Lq3hPFP3BP2D4/nWiMJwFToaaBPL2rkyt1w3Whp7YQgr9vePzQWRm57XzEmu6JrHDCAgTkYGFn5wdJKgB2ABswiL1koqwCMfewuBWeOgmMnxE4QBorFwPgn7i7lIowAEIBcwI7bakPXvpkAEAAMYKDwDAxf95YQn6eU125pu+6XABCAXKDeu2l74Se9VVixVmHGw3jkycDeLU/kUivb1fzj7RIAApAL1JPrNhMAKz8MYKBrGNi7/vFcaiUB8CTA0oFHAKzm8lzNuW/8NcoAAWisEef1nDmvAuiCN7QgAApwowXY9TGTJwMEgAA09HrEVhlQGV8FQAAU8zyLufvGX6MMEAACQABatLtAABTgRguw62MmTwYIAAEgAASga560lGexdN+addkYIAAEgAAQAALgmesYSJABAkAACAABUPwTLP5lW806n8Z3aAgAASAABIAAEAAMJMgAASAABIAAKP4JFn8r5sZXzGXLjAAQAAJAAAgAAcBAggwQAAJAAAiA4p9g8S/batb5NL6jQQAIAAEgAASAAGAgQQYIAAEgAARA8U+w+FsxN75iLltmBIAAEAACQAAIAAYSZIAAEAACQAAU/wSLf9lWs86n8R0NAkAACAABIAAEAAMJMkAACAABIACKf4LF34q58RVz2TIjAASAABAAAkAAMJAgAwSAABAAAqD4J1j8y7aadT6N72gQAAJAAAgAASAAGEiQAQJAAAgAAVD8Eyz+VsyNr5jLlhkBIAAEgAAQAAKAgQQZIAAEgAAQAMU/weJfttWs82l8R4MAEAACQAAIAAHAQIIMEAACQAAIgOKfYPG3Ym58xVy2zAgAASAABIAAEAAMJMgAASAABIAAKP4JFv+yrWadT+M7GgSAABAAAkAACAAGEmSAABAAAkAAFP8Ei78Vc+Mr5rJlRgAIAAEgAASAAGAgQQYIAAEgAARA8U+w+JdtNet8Gt/RIAAEgAAQAAJAADCQIAMEgAAQAAKg+CdY/K2YG18xly0zAkAACAABIAAEAAMJMkAACAABIACKf4LFv2yrWefT+I4GASAABIAAEAACgIEEGSAABIAAEADFP8Hib8Xc+Iq5bJkRAAJAAAgAASAAGEiQAQJAAAgAAVD8Eyz+ZVvNOp/GdzQIAAEgAASAABAADCTIAAEgAASAACj+CRZ/K+bGV8xly4wAEAACQAAIAAHAQIIMEAACQAAIgOKfYPEv22rW+TS+o0EACAABIAAEgABgIEEGCAABIAAEQPFPsPhbMTe+Yi5bZgSAABAAAkAACAAGEmSAABAAAkAAFP8Ei3/ZVrPOp/EdDQJAAAgAASAABAADCTJAAAgAASAAin+Cxd+KufEVc9kyIwAEgAAQAAJAADCQIAMEgAAQAAKg+CdY/Mu2mnU+je9oEAACQAAIAAEgABhIkAECQAAIAAFQ/BMs/lbMja+Yy5YZASAABIAAEAACgIEEGSAABIAAEADFP8HiX7bVrPNpfEeDABAAAkAACAABwECCDBAAAkAACIDin2Dxt2JufMVctswIAAEgAASAABAADCTIAAEgAASgVQLQuzEM3/rOMHzz28Lw9W8Kw6+8LQxd+fqwa8XNYdfS17jIAAMYyIeBFTdP16JYk6Zr0y1vm65Vk+u3hAMtqn9FuZ2tw0/m0tN6qu2TiUXtvPE8bjsOUlGAadVxTPR8Pwy8+GIXGWAAA13BwOQj60pXhwlAG02kVbJAAIgCWcIABvJlgAC0b9Xeql4Zb8cOQBdsU9kByLeYaSbyx0BjDBAAApDL4yV2ABqbqAqbvDCAgVYzQAAIAAFo0e6CHQAFutUF2u1hqp0MEAACQAAIQFc8YamdhdBta7QpMkAACAABIAAEwLPWMZAgAwSAABAAAqD4J1j8U1zxOufjd3oIAAEgAASAABAADCTIAAEgAASAACj+CRZ/q+HjV8Mp5kEACAABIAAEgABgIEEGCAABIAAEQPFPsPinuOJ1zsfvehAAAkAACAABIAAYSJABAkAACECLBGCyd4MimmARtao8flUpj+7JY2/FpwG28j3723VbPgugRU26VZ/8N9ft7B8eC4MvXUYCSAAGMFB8Bs5ZFvaP7fFpgF3w4XkEoAsEIErB6LvuKP7EV5yNEQaSZ2D0vR8rXfOPNdjHAXeB0ZTxw4AifPuHR8PQVbckX1xsA3fPNrCxSm+shl752rB/dJwAdEGv9HHAXbL6n3lYYP/IeBj7wF+HwfMvJQJWmhjAQGEYGLzgsjD2oU+G/aO7S9n87QB0idGUdQdgRgKmdwP27A37tveH+EQbFxlgAAN5MhBr0f49e0vb+Gdqr4cAukACUhCAGSB9PVD6omOMjTEGisEAASAAGk6XPWyieBajeBoH49DtDBAAAkAACAAGMICBBBkgAATAxE9w4nf7ysXxW31jYOEMEAACQAAIAAYwgIEEGSAABMDET3DiWz0tfPUkQxl2OwMEgAAQAAKAAQxgIEEGCAABMPETnPjdvnJx/FbfGFg4AwSAABAAAoABDGAgQQYIAAEw8ROc+FZPC189yVCG3c4AASAABIAAYAADGEiQAQJAAEz8BCd+t69cHL/VNwYWzgABIAAEgABgAAMYSJABAkAATPwEJ77V08JXTzKUYbczQAAIAAEgABjAAAYSZIAAEAATP8GJ3+0rF8dv9Y2BhTNAAAgAASAAGMAABhJkgAAQABM/wYlv9bTw1ZMMZdjtDBAAAkAACAAGMICBBBkgAATAxE9w4nf7ysXxW31jYOEMEAACQAAIAAYwgIEEGSAABMDET3DiWz0tfPUkQxl2OwMEgAAQAAKAAQxgIEEGCAABMPETnPjdvnJx/FbfGFg4AwSAABAAAoABDGAgQQYIAAEw8ROc+FZPC189yVCG3c4AASAABIAAYAADGEiQAQJAAEz8BCd+t69cHL/VNwYWzgABIAAEgABgAAMYSJABAkAATPwEJ77V08JXTzKUYbczQAAIAAEgABjAAAYSZIAAEAATP8GJ3+0rF8dv9Y2BhTNAAAgAASAAGMAABhJkgAAQgAJM/P3hwNjmcHDw2+Fg9lWXkmdwYODBcGB0fTi4b28B2JvfKmr6WEfXh3jsGE1gjg5+e7omHdi3v2sYbWZHhAAQgFwBPzi+PRzcsjIcrFzpkloGm28JB4Yey5W/eRXN4cfCwc034zM1PuP5Pr4qHBz/QfEZbXL3ggAQgPzg3v1EOLjxOoU1xcJ67JyvCgeGCywBw4+Eg5WrMHpsvBIU9Y2vDgfGd+RXJ5ts7vORWwJAAPIDe9s7FdaUC+vMuW+6KRzYO5kfh6cqsHsnwsFNN2F0ZpxS/rr9XcXj81TcNvBzAkAA8gF7z6CVVcoF9cRzH+7Nh8PTFMuDw9/X/E8cp2T/fVU4sGdX4Ridzyr/dNchAAQgF6gPjm5QXJMtpidvIx/Ivp4Lh6crjgeyr2EUo79kYHRD8Rg9jcCelu1n/44AEIB8oB5Z98uJpcjIIvtqPhyepoBOP9sfm9h8loEDI+sKx+h8mvzprkMACEA+UBMAhXV2cyUAeJjNQwG/JwBToacL+uWibjjIRo4xWtrpLK4rf0cAFPzZRZ4A4GE2DwX8ngAQgFwMiACc/Jix9w0oWSYEgAAUsOnPrjMEgAAQgNM8ZtrQToQdAAV/dsEnAHiYzUMBvycABIAAEACFuh3FmQDgqh1ctfA2CQABIAAEQKFuYVE9tsVKAHDVDq5aeJsEgAAQAAKgULewqBKAkj2Xox1sFOQ2CQABIAAEgAC0oyDbAcBVO7hq4W0SAAJAAAiAQt3ComoHwA7AMQbawVULb5MAEAACQAAIQAuL6rHibwcAV+3gqoW3SQAIAAEgAAp1C4sqAbADcIyBdnDVwtskAASAABAAAtDConqs+NsBwFV+ye+hAAAVqUlEQVQ7uGrhbRIAAkAACIBC3cKiSgDsABxjoB1ctfA2CQABIAAEgAC0sKgeK/52AHDVDq5aeJsEgAAQAAKgULewqBIAOwDHGGgHVy28TQJAAAgAASAALSyqx4q/HQBctYOrFt4mASAABIAAKNQtLKoEwA7AMQbawVULb5MAdIkA3LPx0Oa7Nx3acvfGp7bfvfHQE/dsOrTznk2Havdueiq7d9OhXfduPjR076anxu/bfGj8vk2HJu/b9NS++zY9dfD+zYd+dP/mwz++b/Ohn92/+dDP799y6PD9Ww4duX/zofCVLfldep74YdjePxp+0D8anqiOhh3V0bAzXmqjob82Gqq1kVCrH73Us5GQZcMhy0bCYDYcBgeGw66B4TBUsMvIE98Jex69JOx5ZEmYeGRxmFhzXpjsOTtM9rw4TPa8yKXUGbwkTKx5WZhYc2HY88grwp5Hl4exLZ8tHKPxmOKxxWOMxxqPebLnJdgsNZux9sQadPZ0TYq1KdaoWKtizSpaHY21Pdb4WOtjzY+1P/aAmX4Qe0PsEbFXxJ4Re0fsIbGXxJ4Se0uevS321ukeG3vt5kM/P9p7D/849uLYk4/25kOTsVfHnn20dx/aFXt57Omxt8ceP93rNx3aEnv/ors2PBXKdHno8QOhXs1KdRnc+vUw8dCfu8hgmoHhyocLx3c8JoyaozMMxJpVtjoce0uZemU8FwLQBbJAABTWmcIavxIAPMzmoYjfE4DuWFgTAAJg5dZlOwsEgAAUsenPPiYCQABy2S7xEIDiOLsQlfF7AoDxonNNAAgAAWjR7oKHABT82QWfAOBhNg9F/J4AEAACQAA8vNCGhxcIAAEoYtOffUwEgAAQAAJAAAgABtrAwOxmW8TvCQABIAAEQPFvQ/G3A2AHoIhNf/YxEQACQAAIAAEgABhoAwOzm20RvycABIAAEADFvw3F3w6AHYAiNv3Zx0QACAABIAAEgABgoA0MzG62RfyeABAAAkAAFP82FH87AHYAitj0Zx8TASAABIAAEAACgIE2MDC72RbxewJAAAgAAVD821D87QDYAShi0599TASAABAAAkAACAAG2sDA7GZbxO8JAAEgAARA8W9D8bcDYAegiE1/9jERAAJAAAgAASAAGGgDA7ObbRG/JwBdIgDf3P7k4IPbfjb+4PYnDz64/ckff2Pbk888sO3J0K2XR544GKr1kVDLRkI9GwqDA7u6/jK889Ew0XtdmPz+5S6JZzDR+8owsu1vC8d0PKZ4bBg1R2OtijWrDLU39pDYS2JPib2lW/tiPO7Y22OPn+712342Hnv/ogP7DgQXGWAAAxjAAAbSYoAAECACiAEMYAADCTJAABIcdJafluUbb+ONAQzMxQABIADMHwMYwAAGEmSAACQ46HOZoJ9ZIWAAAxhIiwECQACYPwYwgAEMJMgAAUhw0Fl+WpZvvI03BjAwFwMEgAAwfwxgAAMYSJABApDgoM9lgn5mhYABDGAgLQYIAAFg/hjAAAYwkCADBCDBQWf5aVm+8TbeGMDAXAwQAALA/DGAAQxgIEEGCECCgz6XCfqZFQIGMICBtBggAASA+WMAAxjAQIIMEIAEB53lp2X5xtt4YwADczEQBeAXc/3CzwCDAQxgAAMYKC8Di/bv3X/EAJd3gI2tscUABjCAgRMZ2L93/9OL9k/u//mJv/BvsGAAAxjAAAbKy8Deyb1Ti/ZO7PuxQS7vIBtbY4sBDGAAAycysHdi7+FFk+OTPzrxF/4NFgxgAAMYwEB5GZgYnzi0aGxknAB4JYCXAGEAAxjAQEIMjI+OH1o0MjTiIYCEBp3Rl9foja2xxQAG5svA8NDI4UWDA7s8CZAAMH8MYAADGEiIgcFs19SiejX7xf7J/QY+oYGfryG6ntUEBjCAgfIxsG/vvlCvZiEKQNize4IAEAAMYAADGMBAAgzsGd/zSwEYHhox6AkMOpMvn8kbU2OKAQw0ysDwrpFfCkDcBdi/18MAjYbo+iYeBjCAAQx0EwOx18eef+whgPjN+NhuuwB2ATCAAQxgAAMlZmD36O6TBWAw22XQSzzo3WSojtWKCgMYwEB7GIi9/qQdgPiD+MQAobcndLnKFQMYwAAG8mRgz9jRJ//NKQC7sl2eC2AXgARiAAMYwEDJGIiP/c9e/UcJmH4Z4IwNxK/jo+MGvmQDn6dxum8rHgxgAAP5MxB7++xeP6cAZLWBsG9yHwkgARjAAAYwgIESMBB7euztZxSAeIVdg0MGvQSDzrrzt25jYAwwgIG8GRgaGDqp+c/sABw50Qriv8dGxkgACcAABjCAAQx0MQNjIydv/T/b84/E5wD8cC4BiD+bGPcWwXmbm/u3esAABjCAgWYYmNg9MefK/9mefzAKwOipBGBaAvZMsr8utr9moPE3ig0GMICB7mZgcs9kqNeOvuPfXD2+Vs2GowA8PtcvZ342UB8Me/fsJQEkAAMYwAAGMNAFDMSendVPftLfTF9/9uvmKAD3n/DDk7YM4rMH41YCI+xuIzR+xg8DGMBAuRmY2D055zP+T+rz/fV7FtWrA3910i+e/aCAE3++2zsFkqAusF8FrtwFzvgaXwzMzcDusd3za/7VLNT6s7cuyqrZRSc2+tP9e2RoNBzYO/edGxS5YAADGMAABjrLQHyXv5Ghox/xe7r+Pft3WTVbvGhox9Bv1qvZL2b/4kzfx7cTjE8wMMidHWR5yxsDGMAABmYzMLl78qS3+D1TD489f2Bg4DcWxf/q/dmOefzBSc8NGNk14l0DbYkTQQxgAAMY6DAD8d39hnc1tuqf6fNZNds+3fzj/2r92QdnftHM19Hh0bBvwtsHz7Yy37N0DGAAAxhoNQN7J/eF+FB8M736l38z8N5jApDtzP7wl7849esGT3ed+EqB4cHhsGf3hE8U7LAJthowt6doYQADGCgWA3vG90z32Lne0/90vXmu39Vqtf92TADiN/Vq9oO5rtjMz+J7B8StifiMxL0T3kPARCrWRDIexgMDGCg6A7F3xh4ae+k8XtPfwI5AfdtxzX9aAPoHXtNMs5/v3+zKdk2fyMjwaBgdHgvx/YnjxxO6yAADGMAABlJlIPbC2BNjb4zNPvbK+fbVZq6X1bLrThKAoaGhf1KvDuxp5gb9TXMPm8hNbhjAAAYw0CkGatVsYmxs7FdPEoD4g6yavaFTB+J+QI8BDGAAAxjoHAO1/oHXztn84w+jGdSr2S4D0rkBkbWsMYABDGCgAwwMxJ3+UwpA/EWtNvCXHTiQtj7G4fhNJgxgAAMYwMAsBur1s0/b/Gd+Wa9mXxXcrOBO8dkIMpIRBjCAAQwUnYGsmt0709/P+HVoaOjXPBQA6qJD7fgwigEMYOCMDAwMDg7+yzM2/tlXqNfr/6tezQ4L94zhejjDDgkGMIABDBSRgUMD/QP/Y3Zvn/f3tdrAK+rV7BkSQAIwgAEMYAADXcXAM1k1e/m8G/5cV4xvGmDQu2rQi2ihjsnqCAMYwEBHGajfOFdPb/hnWTW7qdGPDCYNpAEDGMAABjDQcQaeqVfrNzTc6E/3B/X++tJ6NTtiMDs+mKy5o9ZsfM1xDGCgaxk4XO+vLzldL2/6d7Xa4P+uV7MxcHQtHGSCTGAAAxgoJwMjWX/2J003+Pn8Ya1W+/V6/8A3SQAJwAAGMIABDBSCgQd27Njxr+bTw1tynaw/O6dezUYNfiEGn9GX0+iNq3HFAAZOw8DAnlptYEVLmnqjN5Jl2b+oV+vvqFezvycCRAADGMAABjDQEQZ+VK8O/NWOHTue22jfbvn1j75zYH2V5wd0ZOBPY4PuX/HBAAYwUGIGRuvVgZUNv7Nfy7v+HDcYQviVWm3wBfVa/Qv1WjZZ4kHQhG3LYQADGMBA+xmIvbQ28PlqdeD5scfO0XqL96MQwnMGdg78fnw9Ytaffarenz1aq2YTpICdYwADGMAABk5mYLpH9mePHu2ZA6/JdmS/F3tp8Tr8Ao4oPm4xtGPoN+v1+n90kUG3M7Bjx47nbejb+NSGvo3BpSMZPBUz73ZuHL/aFxmIvbAQj+UvoKf7Uwkkm0DfY33P6+utBJfOZbB+/frfTRY4Jy4BCUhAAsVIoNJbOVvz71zzn856bd9LijH6jkICEpCABJJNYH1v5TUEoLMCUFlbuT5Z4Jy4BCQgAQkUI4H16yofJAAdFoDeygeKMfqOQgISkIAEkk2gr7fyNQLQWQFYv7byd8kC58QlIAEJSKAYCfStrWwjAJ0VgL7eytZijL6jkIAEJCCBZBPo6638hAB0XAB+kixwTlwCEpCABPJP4LHHtvwbzb/jzX/6JZeb1mz69fwJcAQSkIAEJJBkAuvWbfyfBCAfAdjQu+GPkoTOSUtAAhKQQP4J9PX2vYIA5CMA69duuDh/AhyBBCQgAQkkmUBlbeV2ApCPAPSt7bstSeictAQkIAEJ5J9ApbfyaQKQkwD09n0qfwIcgQQkIAEJJJnA+t7KwwQgJwFY2/e9JKFz0hKQgAQkkH8CfesquwhATgLQWxnMnwBHIAEJSEACySWwZs2af9jXWzlCAHITgKk4BsmB54QlIAEJSCDfBCqPVv6D5p9b859+L4D169f/Tr4UuHcJSEACEkgugQ3rNryAAOQrAJXeyvOTA88JS0ACEpBAvgls2LB1+ca+zds3VraMbdn4+E83b3w8bHFpawbPZvzTmHnMPo5BvhS4dwlIQAISSC6BrJa9q17Ngkt+GWS17J3JgeeEJSABCUgg3wTq/fV7NP/8mv909rWBu/OlwL1LQAISkEByCdSrWYUA5CwA/VlfcuA5YQlIQAISyDeBejXbRwByFoBqtjdfCty7BCQgAQkklcCOHTueq/nn3vynn38RxyIp+JysBCQgAQnkl0C1uusPCEAxBKC/f/C/5keCe5aABCQggaQSqNUGziMAxRCArJq9LCn4nKwEJCABCeSXQFbLbiYAhRGAm/IjwT1LQAISkEBSCdRr9Y8QgGIIQL068OGk4HOyEpCABCSQXwL1/oFvEoCCCEAtezA/EtyzBCQgAQkklUC9P9tBAAojAE8kBZ+TlYAEJCCBfBIIITynXs2eJAAFEYBq9vM4JvnQ4F4lIAEJSCCZBHbu3Plbmn9hmv/0ewEM7Rj6zWQAdKISkIAEJJBPAtXqwJ8RgGIJwED/wJ/mQ4N7lYAEJCCBZBLIqtlyAlAsAciq2bJkAHSiEpCABCSQTwJZLXszASiWANSr9TflQ4N7lYAEJCCBZBKo1wY+TwCKJgDZ55IB0IlKQAISkEA+CdSr2SMEoHACsCYfGtyrBCQgAQkkk0C9mo0SgMIJwEgyADpRCUhAAhLofAI7duz4R/Vq9gwBKJwAPJNl2T/uPBHuUQISkIAEkkigv3/wP2v+hWv+0+8FMLhz8D8lAaGTlIAEJCCBzieQ9WcvIgDFFICsP/uLzhPhHiUgAQlIIIkEsmr2KgJQTAGoV+vXJgGhk5SABCQggc4nUK8OvJcAFFUABt7TeSLcowQkIAEJJJFAvZp9hQAUVQCy+5OA0ElKQAISkEDnE6hXs80EoJgCUKtmmzpPhHuUgAQkIIEkEqhXsx8RgGIKQL2a/TAJCJ2kBCQgAQl0NoGhoaFf0/wL2/yPfizw0NCvdZYK9yYBCUhAAqVPINuZ/SEBKLYAZFn230sPohOUgAQkIIHOJpBVs8UEoNgCUO+vX9hZKtybBCQgAQmUPoF6tf56AlB0ARh4XelBdIISkIAEJNDZBOrV7E4CUGwBqFWzj3eWCvcmAQlIQAKlT6Bezb5LAAovAN8pPYhOUAISkIAEOptAvZrVCUCxBSCrZrXOUuHeJCABCUig1AmEEH6lXs0OEYBiC0AcozhWpYbRyUlAAhKQQOcSGBgY+Peaf+Gb//R7AWRZ9tudI8M9SUACEpBAqRPI+rP/QwC6QwDq9fqflxpGJycBCUhAAp1LoN5fv4wAdIcA1PoHLu0cGe5JAhKQgARKnUCtP3sbAegWAcjeWmoYnZwEJCABCXQugVo1u4sAdIkAVLO/6RwZ7kkCEpCABEqdQK2a9RKA7hCArJqtLTWMTk4CEpCABDqXQL06sIcAdIcA1KvZ7s6R4Z4kIAEJSKC0CYyNjf1qvZr9ggB0jQD8Ys+mPf+0tEA6MQlIQAIS6EwCWZY9T/PvmuY//V4A9Xr9dztDh3uRgAQkIIHSJlCv188mAN0lALXa4EtKC6QTk4AEJCCBziRQ7x94DQHoMgHoH7i+M3S4FwlIQAISKG0Ctf7sgwSguwQg688+UFognZgEJCABCXQmgVo1+zoB6DIBqGZf6wwd7kUCEpCABBaUQPwEt0pv5U/W925YVemt3NnXu+GTRbk8vnHrwcc3bQsu3ZPBlo3bDhSFn6PH0ffxyHbf2r4/9mmFCyoV/lgCEihTApXeyvP7ejds7+utBBcZJMDA1vXfX/9/yzSHnYsEJCCBhhOorK1c39dbeTqBok9uCN5sBp7u691wXcMTxh9IQAISKEMClXWV8/p6K7/Q/K36E2XgmfVr159bhrnsHCQgAQnMO4F169b9al9vZSzRwj97Jej7tHcGxjdt2uRdC+ddOVxRAhLo+gT6evsu1/yt/DFQCZW1lUu7fkI7AQlIQALzTaCvt/IVxZ8AYKASKusq98133rieBCQgga5PoK93w2bFnwBgYJqBjV0/oZ2ABCQggfkm0Le2sk3xJwAYqIQ4F+Y7b1xPAhKQQNcn0Ndb+ZbiTwAwMM3AN7t+QjsBCUhAAvNNYH1v5RbFnwBgoBL61vXdON9543oSkIAEuj6Bvr6+f9vXW/mpBkACEmfgJ729vb/R9RPaCUhAAhJoJIHK2srrEy/+3gMg7fcACHEnrJE547oSkIAESpFACOE569dVvkAC7AKkycCGz8U5UIrJ7CQkIAEJNJpALIDP7gR4OCDx1XBCEvCTuPLX/ButFq4vAQmUMoH4OGh8MlRlXeUbfb2VrX29lUEXGZSIga2R7fW9G27wmH8pS5iTkoAEJCABCUhAAhKQgAQkIAEJSEACEpCABCQgAQlIQAISkIAEJCABCUhAAhKQgAQkIAEJSEACEpCABCQgAQlIQAISkIAEJCABCUhAAhKQgAQkIAEJSEACEpCABCQgAQlIQAISkIAEJCABCUhAAhKQgAQkIAEJSEACEpCABCQgAQlIQAISkIAEJCABCUhAAhKQgAQkIAEJSEACEpCABCQgAQlIQAISkIAEJCABCUhAAhKQgAQkIAEJSEACEpCABCQgAQlIQAISkIAEJCABCUhAAhKQgAQkIAEJSEACEpCABCQgAQlIQAISkIAEJCABCUhAAhKQgAQkIAEJSEACEpCABCQgAQlIQAISkIAEJCABCUhAAhKQgAQkIAEJSEACEpCABCQgAQlI4MwJ/H8aul9C3qbv+AAAAABJRU5ErkJggg==;" vertex="1" parent="1">
          <mxGeometry x="752.5" y="340.5" width="62.5" height="62.5" as="geometry" />
        </mxCell>
        <mxCell id="32ch79hQAX0JlgT8ifrZ-95" value="" style="shape=image;verticalLabelPosition=bottom;labelBackgroundColor=default;verticalAlign=top;aspect=fixed;imageAspect=0;image=data:image/png,iVBORw0KGgoAAAANSUhEUgAAAgAAAAIACAYAAAD0eNT6AAAAAXNSR0IArs4c6QAAIABJREFUeAHtnQmcZUV5txuGVXAERUFcUVwANZ9LXCKGaIhf1KhRaWM04ATw9nnr9u1T1TPMJDHqNWqCMYkxJiKJC5Lvi4lbjMSgHxojqBFFJe6JIkQBEUY2kW2W/8c53WNYumd6ufecqlMPv9/8hum+956qp57zvm/VObfOxAT/QQACEIAABCAAAQhAAAIQgAAEIAABCEAAAhCAAAQgAAEIQAACEIAABCAAAQhAAAIQgAAEIAABCEAAAhCAAAQgAAEIQAACEIAABCAAAQhAAAIQgAAEIAABCEAAAhCAAAQgAAEIQAACEIAABCAAAQhAAAIQgAAEIAABCEAAAhCAAAQgAAEIQAACEIAABCAAAQhAAAIQgAAEIAABCEAAAhCAAAQgAAEIQAACEIAABCAAAQhAAAIQgAAEIAABCEAAAhCAAAQgAAEIQAACEIAABCAAAQhAAAIQgAAEIAABCEAAAhCAAAQgAAEIQAACEIAABCAAAQhAAAIQgAAEIAABCEAAAhCAAAQgAAEIQAACEIAABCAAAQhAAAIQgAAEIAABCEAAAhCAAAQgAAEIQAACEIAABCAAAQhAAAIQgAAEIAABCEAAAhCAAAQgAAEIQOAuBOTc/vLFgxWmnqBgx8q741TapIK9VN5683+8Stv0P/926+rXVK/z9iz54qla33ukBoN7azjc/S4H4QcQgAAEIAABCDRHQBuK+ygUT1QoXizvNsrb2+TtX+SLr8rbZfJ2s7xpDH82y9t/ytt58namvPsD+eJE+eIZCvYQ9Xp7NkeBI0EAAhCAAAQ6SkAbT7y7ZuzxKt0JCu4t8naOvF05hsQ+qmJhi7xdpGBnybvh3IpD/yhNTOzW0SGiWxCAAAQgAIHVEaiW2BWmHy1fmIL9rbx9V962R5zsl1M0XCNvH5cvXlNfjth44t1XR4t3QwACEIAABBIlUCf8sv8k+eJVKu1sebuuI8l+KYXBVpX2ZQX3Vnn3Qg0GaxMdRpoNAQhAAAIQ2DUBre8dVC+Lezv9thvvLs8o4e+qKNgqbxfUlw2qSx5cMti1TLwCAhCAAATiJqDp6cPm77T/grxtI+kv6ebEy1TaaZp1T9fk5Jq4R5jWQQACEIAABOYJaNY9QMGV8vaZDl3H39Usfly/r755cKaCe66Gwz2QDAIQgAAEIBAVgfp796U7ScE+S9Jf0ix/JQXDpfLFGzUz9bCoBp/GQAACEIBAfgTqr+lVX9ELdjXL+2NL/AsVCxfUGxj1enfLzzp6DAEIQAACrRBQCPuqLKbqO9nHs+HOQgmPny3M+sfy9mYFd3grMnBQCEAAAhDoPoF6S9y5rXO5g3/hZNxmkbKt3oAo2LHdN5EeQgACEIBAIwSq2eX8Tnw/ZZm/0WX+lRYUF9S7J3LTYCPnBweBAAQg0DkCmikeJW8f5Ot7SST9hYqF/5QvXsaDjDp3atIhCEAAAuMhUH93f26znmqDmoUSCz9Li8s36xUB9hQYzwnDp0IAAhBInUD9RDtvZ8gbiT+tBL/UguzC227cfB47DaZ+ptJ+CEAAAiMiUH+Hv3p63fgeo7vUBMXrmik8ztesPXlE+vAxEIAABCCQGoG5B/K4E+TdFSz1Z3epo3rS4pk6xR2Smre0FwIQgAAEVkFAvvglebuQxJ9d4r/zKssN9UOIhuv2WYVOvBUCEIAABGInILMDNXeD350TAf9uZvk9Vs7f1Uz/l2P3l/ZBAAIQgMAKCMw/ivdKZv3Zz/oXK0LmLguEk+65Ar14CwQgAAEIxEZA09OHyts/kvhJ/EtyoLQfyrvjYvOY9kAAAhCAwDII1Hv2e/vJkgJ/3kvgi82K8/15sPeJ1YBlnG28FAIQgEAEBLS+d5B88WESP7P+VTlQrwbYsyJQmiZAAAIQgMCuCCjYsfJ26aoCP6sB+c787zr22+tnQQwGe+/KPX4PAQhAAAItENBw3T7yxZ/LW3UzFwkMBqN1oLQva33vkS2ozSEhAAEIQGAxAhoM7i9vnyfxU/iM2YGfqHS/sZiH/BwCEIAABBokoGDHsJsfiX/Mif/Oqwmnq9fbs0HNORQEIAABCOwgUD3URcGV8ral4eB/52TAv7O83FB8mq2Ed5yN/A0BCECgIQLasGE/BfsAiZ+Zf7sOFD9Q6X6+Ie05DAQgAIG8Ccj37ivvvthu4Cfxwn/egdJu4r6AvGMSvYcABBogoNA/St4uIflQgETmwPbqoUINnAIcAgIQgEB+BKqHtcjbtZEFfq7/Z3n9f5ECLBR/reFwj/zOTnoMAQhAYEwE5N06ebuV5L9I4iEJx1SIfUS93t3GdCrwsRCAAATyIaDgnLxtI/mT/BNy4FwNBmvzOUvpKQQgAIERE1BpmxIK+jHNQmlL+6siF6jfv9eITwk+DgIQgED3CVQ3VZH8mfUn7UCwb1SPo+7+2UoPIQABCIyAQL3Bz9ye/sxi25/FMgarHYPSfavaqnoEpwYfAQEIQKDbBBTsj5Oe9a02YfD+LhYd36n2r+j2mUvvIAABCKyCgHzxepI/y/4ddeBr3BOwiuDAWyEAge4SUHCho4G/izNa+rSylZqvyOzA7p7F9AwCEIDAMgmoLKZJ/sz883DAfU7O7b/MU4SXQwACEOgeAfnieHnbnkfwJ8kzzrUDH+Nxwt2LZfQIAhBYBgGV/V+Ut5tJChQG+Tng3rmMU4WXQgACEOgOAXl3hIJdnV/gJ9kz5j9z4He7c0bTEwhAAAJLIKD1vYPk7Tskgp8lAm6qW9lNdalz267SfmsJpwwvgQAEIJA+gepBKfJ2Psmf5I8DtQM3a8Ydnf6ZTQ8gAAEI7IKAvL2HwE/yx4E7OLBZvnjwLk4dfg0BCEAgXQJ81/8OQT/15WvaP8rLFqV9WSHsm+7ZTcshAAEILEJAM+4X5O0WZn4UATiwqAOnL3L68GMIQAACaRLQKe4QebuMwL9o4Gc2PcrZdNqfdXKaZzmthgAEIHAnAtWGJ/LucyR/kj8OLMGB0m7SjD3+TqcR/4QABCCQHgGV7o8I/EsI/GnPWlnBGO34fVcbT7x7emc7LYYABCAwT0DBniZvWykAKABwYJkOBHsHgQQCEIBAkgTk/QHydgmBf5mBf7QzSWbmKfMs3W8kefLTaAhAIG8C8sXfkfxJ/jiwKgeu0UzvgXlHEnoPAQgkRWD+CX/MPlOefdL2WPz9pIbD3ZMKADQWAhDIk0D9lT8e8hNL8qAdXShkghV5RhN6DQEIJEVAvng/y76rWvYlaXchaY+2D9dpMLh/UoGAxkIAAnkRkLfnkPxJ/jgwFgf+Oa9oQm8hAIFkCGgwWCtf/IDgP5bgz6rAaGfUifJ0xyUTEGgoBCCQDwF593aSP8kfB8boQGk/lNmB+UQVegoBCERPQL7/OHnbRvAfY/BnBpzorH3ETgT31ugDAg2EAATyIKCJid3k7TyS/4gDPQmfhL+wA1sVph+dR3ShlxCAQNQEFOylJH+SPw406EAoPhF1UKBxEIBA9wkohH3Z7rfBwL/wjJCZco5cyuLXuh9h6CEEIBAtAfniNcz8KABwoBUHvqvBYO9ogwMNgwAEukug3vHP2w0E/1aCP7P+HGf9d+5zWcx0N8LQMwhAIFoCCu4tJH+SPw606ED1tcBe727RBgkaBgEIdI+ApqcPlbcbCf4tBv87zwb5d6arIm5D9yIMPYIABKIloNJOI/mT/HEgCgeu0sYT7x5tsKBhEIBAdwhoff9B8nYLwT+K4J/prBf2dzz/3Cu7E2HoCQQgEC0BeffOOwYfgjE8cKBVB6rHb2/q3SPaoEHDIACB9AkoFPdj9k+yazXZca/Dwqs+pW1KP8LQAwhAIFoC8sUbCf4UADgQpQOXaTi5V7TBg4ZBAALpEqhuNJK3awj+UQb/hWeFzJbz4lK6E9KNMLQcAhCIloCCCyR/kj8OxOxA8dXq4VzRBhEaBgEIpEdAk5Nr5O0ign/MwZ+24adJwT0zvQhDiyEAgWgJyLvjCK4kWBxIwIHSzo42kNAwCEAgPQLydg7BP4HgzzX/vK75Lzze2+SLB6cXZWgxBCAQHQFNTx8mb9soACgAcCAVB9wfRBdIaBAEIJAeAXn7QwJ/KoGfduJq7cCl1X076UUbWgwBCERDQMPhHvJ2GUGVxIoDiTlQFr8WTSChIRCAQHoE5O3XCfyJBf6FrwtzbTw7LsWH04s4tBgCEIiGgHzxYQoACgAcSNKBLdpQ3CeaYEJDIACBdAhoMFir0m4i+CcZ/JnxZzfjX8jTwtKJOLQUAhCIhoCCvZzkv1BQ5Wd4kYwDn4omoNAQCEAgHQIq3UcJ9MkEemb8zPgXcmCbpqcPTSfq0FIIQKB1AjI7kMf+kvwpADvgQFlMtx5QaAAEIJAOAZXuJIJ/B4I/s+KFZsW5/ezcdCIPLYUABFonoGBnUQBQAOBAJxzYxrcBWg+pNAACaRDQYLC3vP2E4N+J4J/bbJf+LrjqUxyfRvShlRCAQKsEqseJkvxJ/jjQIQdK+7+tBhUODgEIpEFA3t5M8O9Q8F9wRkj/MnP8Kg2Hu6cRgWglBCDQGgF5+3ZmwZFlY4qE7jsQiie2FlQ4MAQgED+B+Uf/dj8YkvAY4+wcKF4TfwSihRCAQGsE5O1kZv8sj+NAJx04r7XAwoEhAIH4CcjbGQT/TgZ/ZvzZzfjv4vHNGq7bJ/4oRAshAIFWCMjbdygA7hI4SZ4kz244MON+oZXAwkEhAIG4CVSbhZD8Sf440GUH3Ma4oxCtgwAEWiGgULyA4N/l4E/f8Nv+qZXgwkEhAIG4CcjbmwiQJEkc6LQDV2liYre4IxGtgwAEGicgb+cS/Dsd/LtxHZv7EVY3jjNTD2s8uHBACEAgXgLVrEDerqMAoADAgY47UBYvijcS0TIIQKBxAmwA1PGgz6x5dbPmTvFzw8YDDAeEAATiJaDQfz4zP4oAHMjAgdJ9KN5IRMsgAIHGCcgXryL4ZxD8OzWTZbxWeM5+t/EAwwEhAIF4CSjY+1YYTFhaJaniQFoObJNz+8cbjWgZBCDQKAF5+yYFADNKHMjEgbL/pEYDDAeDAATiJFB/A6C0mwj+mQT/tGarrC6MZbzcb8YZjWgVBCDQKAFNTx9K8if540BGDgT7vUaDDAeDAATiJCBfPJXgn1HwH8uMEn5JnUOh+Os4oxGtggAEGiUgX7wsqeBFAmNZHAdW6YD7f40GGQ4GAQjESUDevZICgBksDmTlwHfijEa0CgIQaJSAvP0NwT+r4L/K2SOsOnC+3KrJyTWNBhoOBgEIxEdApftoBwIaSY1lcRxYjgPlyQfHF41oEQQg0CgBeTufAoBZLQ5k5sBg6shGAw0HgwAE4iMgb98l+GcW/JczU+S13VxZKPu/GF80okUQgECjBOTtWgoACgAcyMyBULyg0UDDwSAAgbgIqNfbU962E/wzC/7M6rs5q1/OuJbuFXFFI1oDAQg0SkDlyQeT/En+OJChA6H4nUaDDQeDAATiIqD1vUcS/DMM/suZKfLabq4WBPvjuKIRrYEABBoloNnisRQAFAA4kKUDf9FosOFgEIBAXARU9p9E8M8y+HdzVstqxTLG1b09rmhEayAAgUYJKNjTKAAoAHAgRweKdzcabDgYBCAQFwEFO5bgn2Pwp894X/xdXNGI1kAAAo0S0MzUswmEJEMcyNCBYB9oNNhwMAhAIC4CCsULCP4ZBn+ulS/jWnlH/Qh2VlzRiNZAAAKNEqAA6GhwJ8GT4HftwD83Gmw4GAQgEBcBeXsOKwAUATiQpQMfjCsa0RoIQKBRAiqnfoXgn2XwZ4a86xlytxmV9t5Ggw0HgwAE4iKgsv+LFAAUADiQpQNnxBWNaA0EINAoAc3akwn+WQb/bs9uc5/dL63/pzcabDgYBCAQFwH5/uMoACgAcCBLB9gKOK5wTGsg0CwBDaaOJPhnGfxZAVjaLLnLnN7UbLThaBCAQFQE5Hv3pQCgAMCBDB0I9ntRBSMaAwEINEtAvd6e8radBJBhAmAG3OXZ/VL61ms22nA0CEAgOgLydh0FAAUADmTmQFm8KLpgRIMgAIFmCSjY9wj+mQV/Zv9LmSF3+zXBjmk20nA0CEAgOgLy9gUKAAoAHMjMgZniUdEFIxoEAQg0S0ClnU3wzyz4swLQ7dn9Usb3FHdIs5GGo0EAAtERUGnvogCgAMCBrBzYUt0AHF0wokEQgECzBOSL1xD8swr+zH6XMkPu9msubjbKcDQIQCBKAgr2cgoACgAcyMqBT0UZjGgUBCDQLAEFO4bgn1XwZwWg27P7XY9vae9qNspwNAhAIEoCmuk9kAKAAgAHMnKgtFdHGYxoFAQg0CwBTU6ukbdbSQAZJYDcZ8DZ9784vtkow9EgAIFoCcjbdygAKABwIBcHiqdGG4xoGAQg0CwBle5DBP9cgj/9zNz17fL+gGYjDEeDAASiJaBgr808KO76xqnsl40pHDpyjlwSbSCiYRCAQPME5N1xHQluJHIKFRzYmQPBzmo+wnBECEAgWgKa7T+cAoAZLg5k4EBpb4g2ENEwCECgeQIaDneXtxtIABkkgJ3NDvld91cPQvGS5iMMR4QABKImIG/nUwBQAOBAxx0I/aOiDkQ0DgIQaJ6AvP0Fwb/jwZ8Zfvdn+Dsf4+uqfT+ajy4cEQIQiJqASvcbFAAUADjQYQdKOzvqIETjIACBdggoFPcj+Hc4+O98Zpj7zDiP/pf2++1EF44KAQhET0Devk8RQBGAAx11YNY9PfogRAMhAIF2CKi09xL8Oxr8WQHIY5a/+DhvkXP7txNZOCoEIBA9AZXFNAUABQAOdNEB98XoAxANhAAE2iOgwdSRBP8uBn/6lL3Xpfuj9iILR4YABJIgIG+XZB8sF19GzX0Zmf6n6kawY5IIQDQSAhBoj4C8ezsFADNmHOiUA9er19uzvajCkSEAgSQIKPSfT/DvVPBn1p7qrH1U7S7dh5IIPjQSAhBol4A2bNhP3m6mCKAIwIHOONBrN6pwdAhAIBkC8vZJgn9ngj8rAKOaSaf6Oev7D0om+NBQCECgXQLyNqAAoADAgS44UHyp3WjC0SEAgaQI6BR3iLxtJQF0IQHQh7w9dhuTCj40FgIQaJ+AvH0q78BJ4mT8O+DAoPfQ9qMJLYAABJIiIF8YCaADCSDV69a0exT3bpyfVNChsRCAQBwENBjcW962UARQBOBAog6EYn0c0YRWQAACyRGQt3MI/okGf2bQo5hBp/wZ2zXTe2ByQYcGQwACcRCQL46nAKAAwIEkHfhkHFGEVkAAAkkSUAj7KtjVJIAkE0DKs1favuoVHPebSQYdGg0BCMRDQMG9lQKAAgAHknJgs4br9oknitASCEAgSQIK048m+CcV/Jk9r3r2nPx4vznJYEOjIQCB+AjI2/kUAcknBQqDXAqD0D8qvihCiyAAgSQJqHQnUQBQAOBAAg4E+2ySQYZGQwACcRLQYLC3SvshCSCBBJDLLJd+LryiU9pknFGEVkEAAskSkC9eQwFAAYADETsQ7HsaDvdINsjQcAhAIE4CCifdU95uIAFEnACYFS88K86FS1lMxxk9aBUEIJA8AZV2GgUABQAOROnAj+Xc/skHGToAAQjESUAzUw+Tt20kgCgTQN6z31xm+Yv1M9jr4owatAoCEOgMAXn7IAUABQAOROXAT3WKO6QzQYaOQAACcRJQ6B/FKkBUwZ+Z/2Kz4nx+/qY4owWtggAEOkdA3v6eGSBFAA5E4cAN2lDcp3NBhg5BAAJxEtBs/+HytoUEEEUCYAUgn5n+Xce6tDfEGSVoFQQg0FkC8nYmBQAFAA606sC11ddzOxtk6BgEIBAnAQ16D5W3W0kArSaAu84Ic54NZ9f34jVxRgdaBQEIdJ6AgnsLBQAFAA604EC1NfdgsLbzQYYOQgACcRKQ2YHydhUJoIUEkN1sF8Z3PM+K4+OMCrQKAhDIhsBtBUD/joGJQA0PHBizAxdoONw9myBDRyEAgTgJaHJyjXzx1TEHPK51M+PHgTkHtmvGHR1nNKBVEIBAdgTki2dQADDrxYEmHHD/J7sAQ4chAIG4CSjYB0gATSQAjpGxZ9cqFPeLOxLQOghAIDsC1V7kCnZ1xsGZJWouU4zXgWBFdoGFDkMAAmkQUOleQQHADB0HxuBAaf/OjX9pxEFaCYEsCWhiYjeF4hMkgDEkAGbX451dx833Zg2mjswyqNBpCEAgHQKamXqYvN1IEUARgAOjcqB4VToRgJZCAAJZE5B3Gwj+owr+fE7mLl2o4eReWQcUOg8BCKRDoLpWyaUAEnfmiXv1lyxKu0lh+tHpnPm0FAIQgMDExET1dSV520wSoBDAgRU6EJwjmEAAAhBIkoBC8QKC/wqDf9w3pa1+dkv/ds6wtLOrm2qTPPFpNAQgAIGKgEp7F0UARQAOLMuBH1X7ahBBIAABCCRNQM7tr9J9iwSwrASw89khs+cu89mm4J6Z9ElP4yEAAQjsIKDSHiFv11EEUATgwK4ccK/ccd7wNwQgAIFOEFDoP1/etpMAdpUA+H3GjnyE3f46Ee7oBAQgcGcC8sUbMw7uXV62pm+rvyzzX/L+gDufM/wbAhCAQCcI1PsDePsYRQCzfBy4gwM3aKZ4VCdOcjoBAQhAYDECWt87SN6+QwK4QwJgBr36GXSqDLepLF602PnCzyEAAQh0ioAGvYfK25UUARQB2TsQivWdOrnpDAQgAIFdEdCMO1rVVqf5zvxSnbHS7lE5G4q/3tV5wu8hAAEIdJKAQvFiedtGEcBKQIYO/IuGwz06eWLTKQhAAAJLISBvv5th8GcWPapZdJKfU3yp2iBrKecHr4EABCDQaQJ8PZAVgIyKwP9im99OhzM6BwEILIdA9dATeXtbRkmAFYAkZ+6rLtT+W+v7D1rOucFrIQABCHSeQF0EBHsHRcCqkwzFRZzFxaUK9pDOn8h0EAIQgMBKCGhyco28/T1FAEVAxxy4UoOpI1dyTvAeCEAAAtkQ0HByL5XuQx1LAMzK45yVNzEuP1Jpj8nmBKajEIAABFZDYH4l4AyKAFYCEnfgcoX+Uas5F3gvBCAAgewIzN0T4N6aeAJoYobJMeJcXbi42vEyuxOXDkMAAhAYBYH5bwf8KUUAKwFJOVC6b2kwuP8ozgE+AwIQgEDWBOTdMKkEEOeMlJWCRsbFfVGDwb2zPmHpPAQgAIFREpB3627bNfAWCgFWA6J1oLSztfHEu4/Sez4LAhCAAAQmJibki2fI2zXRJoBGZpgUAJGO/+ns7U+YggAEIDBGAtVd1fJ2SaRJgGX2/Iqg7dUlqjEqz0dDAAIQgMAOAvK9+6q0f6cIYDWgZQeuV+g/f4eX/A0BCEAAAg0QqJZbFezUlhMAM/78Zvw7xvw/+Y5/Ayc6h4AABCCwGAGV9lvy9lMKAVYDGnTgn7Spd4/FnOTnEIAABCDQEAF5978U7HsNJoAds0D+zmsFYKtK21TtT9GQ2hwGAhCAAAR2RUD9/r3k7R8pAlgJGI8DxQ/ki1/alYf8HgIQgAAEWiKg0p0gbz8ZTxIguWbK9YNVgdmS0hwWAhCAAASWSkDT04fJu89lmqy4LDG6yxI3Krhyqd7xOghAAAIQiIBA/VjhuW8JbKUQYOViBQ58XsEdHoHKNAECEIAABFZCQLPFY+WLL60gATCTHt1MOiWWN9Y3+k1OrlmJb7wHAhCAAAQiIlDvGVDdvV3aTRQCrAbsxIF/02z/4RGpS1MgAAEIQGAUBKolXXn75E4SQEozVdo6qhWKYFfLW4+v943iLOMzIAABCERKoAryCvbbtwX8yykEsl8NqL7Xf5rW9w6KVFeaBQEIQAACoyagDRv2qx7iwmWBTIuA0v5Vs1M/N2qv+DwIQAACEEiEgGbdA+TtTHnbzopAFsXA96u9IhLRk2ZCAAIQgMC4CSjY0+SLT1MEdLUIcFdU3+nXYLD3uF3i8yEAAQhAIEECmnFHy9u/UQh0phDYXF/qGQzWJqgjTYYABCAAgaYJKNix8u6LFALJFgLX14+L5ql9TZ86HA8CEIBANwjUKwLBzuIegUQKgdJ+WM/4zQ7shoH0AgIQgAAEWiVQ3TEub6fL282sCkRZDFxYPwiq19uzVVE4OAQgAAEIdJNA/a2BYH8sb1dSCLReCFTPefhIdbmmm7bRKwhAAAIQiI7A3MOG3HMV7H3yxgOHRrUr39I+59L6+v76/oOiE4MGQQACEIBAPgQU7CHyxevl7VJWBca2KnBzXWwF90wNh7vnYxc9hQAEIACB6AlUiWnupkH3FrYaHkkhUK2sfKb+/j7b9UbvPw2EAAQgAIGJiQlNTq7RrHu6vHu7vP2IlYElFwS3yNvH5IsTxZ38nEsQgAAEIJA6AYX+UfVz5r2dI2+3UhDcriCov7pnZ6q0SfG9/dRVp/0QgAAEILAYgWpmq1C8WMHeodJ9K8NiYHN99763WXl3xGKc+DkEIAABCECg0wQ0GKyd33lwqGqFoLSbOlYUXD5/A1+pGXs8N/F1Wmc6BwEIQAACKyWg4XCP+UsGk/WudnM7EV6UwG6EtyjYN+qnK5a2ScE9V+XJB6+UA++DAAQgAAEIQKC6sTCcdE+F4on15YMqwZZ2mko7W96+LW83NLBqsEXeLpu7M9/+VsFeV9+s54tnaHr6ME1M7MZAQQACEIAABCDQMAEN1+2jUNxPpT2m/gZCdZ+Bt56821jfgFjaq+sNdIKdKm9vq7c2Lt2f1D+r9jGYKyo2yVtfvjheM1PPVtl/koI7nJvzGh5MDgcBCEAAAhCAAAQgAAEIQAACEIAABCAAAQhAAAIQgAAEIAABCEAAAhCAAAQgAAEIQAACEIAABCAAAQhAAAIQgAAEIAABCEAAAhCAAAQgAAEIQAACEIAABCAAAQhAAAIQgAAEIAABCEAAAhCAAAQgAAEIQAACEIAABCAAAQhAAAIQgAAEIAABCEAAAhCAAAQgAAG3zqy6AAAXdElEQVQIQAACEIAABCAAAQhAAAIQgAAEIAABCEAAAhCAAAQgAAEIQAACEIAABCAAAQhAAAIQgAAEIAABCEAAAhCAAAQgAAEIQAACPyOgXm9PmR14hz+huJ+CPWTBP94dodIes+DvqvdMTx92h8+qPtu5/X92QP4HAhCAAAQgAIGlEdBgsLempw/VTPEozdqTFexYlTYp79apLKZV2iYFO1Xe/lK+eLd88X55O0fePiVvF8z/uUjeqj9XKtjVt73nJnlTw3+218euju/tkvn2fG2ufe5z823+iHzxd/J2unzxRpX2anmblbeeQvFizUw9W8GO0Yw9Xr54sAaDtUujyKsgAAEIQAACLRLQxMRuKk8+WGH60SqL/63SnaDggnzxenl7m7z7B4XiE/L2FXn7b3m7oeEk3XRRMIrj3SrvrlCwb8jbefLFh1Xau+TtTfL2uyrdKxT6z6+Lp1n3gKqgalEBDg0BCEAAAl0joHDSPTVbPFalPU/e+gr2Wnn7GwU7S959Ud4ulbdbSeiNrzwsVGRslrevzxdbZ9bFQlWIBXupZtzRqgqFyck1XXOU/kAAAhCAwAoI1MvwfuopCsVL5N1GlcVfzSV3+/pty9TXk9ijSOwLJfuV/uxWBfve/KWUM+TdUMF+W754hga9h2o4udcKNOItEIAABCAQI4H6Brbq+nJ1jb26tu6tmh1W19FJ8M3fM7DSxN3k+y6fv3fh9NqXypvQP4rVgxjPbtoEAQhkT6C+Dl/drV4t1Qf7vfkk/3l5+zGz+M7N4pssBm5/rJvlrbrB8YP1DZrVvR7V5SHuP8g+/gAAAhBoiIC8P6C+plvfRe7eMj9bu4pET6JvyYEt9bcf5u4LGdYrTdWKwXC4e0OnBIeBAAQg0D0Cqr+/3n++gr1OpZ0tb5e1FORvPxPk/7l0sBQHrlOwz9b3lVRf76y+8slNiN0LUvQIAhBYPQFt6t2jntkHV9ZL+HM3ay0l0PIaEnIqDlRfAf2MgnvL3NdFb1spmJjYbfVnD58AAQhAIBEC1UxIvv84Vck+2PvmN5FJJYjTTgqO0Tkwt4nSx+uvmJZTv8Iui4kEMZoJAQgsjYCGwz3qnd7mdrg7q949jiQyuiQCyy6x3Dq/AVL1LYRJDQb3XtpZxqsgAAEIREBAvd7d6l3xvP3h3E5uVt1B3aUgTV8Yz6YcqLZb/oZKO02+eJl8774RnOI0AQIQgMD/EJh7mEx9/f6clvalbyogcxySf9sOVM+AmFsh2Hji3f/nLOT/IAABCDRAoN7/vn6ATfWQl3pL3LaDIscnMefnwNxDoKqie1N9mY2bChuIfhwCApkRqL7XrHrb3PopddVWufkFW/rMmMfvwOX1EyRD8YLqUlxmYYruQgACoyKg4bp96kfVVl9bYpZP8os/+TFGtx+jHasD1bdtTnGHjCou8DkQgEBHCdR7588t7Vd75l/HTJ+VDhzohAPb6j0IqksFpT2io+GLbkEAAssloMFgrYK9XN4+Jm/V1qbMpGCAA9124EJ590pNTx+23HjB6yEAgcQJVA8xUXDPnX9wTrVDGQEfBjiQpwMX1JtyncJlgsTDOs2HwOIE6hv5ZtzR9Vak3niATp7BniTPuC/mwNb6MkH1oK3BYO3ikYTfQAACyRDQYOpIeXuzvLuCmT4rHTiAA0tw4EZ59w/y9iyebJhMqKehEJgjUN/BP3cz3znytn0JJ/xiswJ+zowRB/J24FIFO1Xr+w8ivkIAAhETuK1qP6I+Wb1tJukz08MBHBihA9U3CapNhyar53tEHAZpGgTyIaANG/ZT6V5x23Ld+SM82Zn15T3rY/wZ/5058H15N9Sse0A+kZaeQiAiAtXmHvVJyGx/Z4GK35HIcGB8DmxTsLPki6dGFBppCgS6S0CzxWPnv753KzN+lnhxAAciceACle4ELg90N/fQs5YI1F/hm/vefnVTHzMaGOAADsTpQLDv1Q8n8v6AlsIlh4VANwgohH3lbSBv1SNA4zzhaRfjggM4cFcHrpW3N2kwuH83ojG9gEBDBOqd+qoNOXgID4H1roEVJjBJyYFb6kuWwR7SUPjkMBBIk0D1CM96W05vlzHjZ8UDB3CgQw5QCKSZlmj1uAnUX+WrHtvp7fIOnfApzVJoK7NqHGjGAQqBcScUPj8NAnPX+N1GebuSxM9sDwdwICMHqkLgbewlkEauopUjJKCJid3qHbW8XZzRCc8Mq5kZFpzhnJIDt9QPKNvUu8cIQywfBYE4CWim/8sq7cskfmZ7OIADOPAzBzbXXx8cTu4VZ+SmVRBYBQGt7z1Swd7HCf+zEz6lWQptZVaNA8048O1qdXQVoZa3QiAeAlrfO6he4vK2heRP8scBHMCBJTnwyWrX03giOS2BwDIIVFtiytusvP2EE35JJzwzrGZmWHCGcyoObJN371S/f69lhF5eCoF2Ccj3HydvXyDxk/hxAAdwYJUOBLv6tq9I96qbp9uN7BwdAjshIO8PmF/u38pJv8qTnllaKrM02omrTTlwrgZTR+4kBPMrCLRDQPXDeoofkPhJ/DiAAzgwNgduVbBTNVy3TzuRnqNC4HYEFNzh8sZT+pgFNTUL4ji4hgPevq1Z9/TbhWL+FwLNEag38wlWyNsNVPtjq/YJdCQ7HMCBxRzYLu/eXm2l3lzk50jZE1B58sHy9hESP4kfB3AAB1p2INj3NOOOzj4xAWD8BOa38N3MSd/ySc+saLFZET/HjRwd2DJ3bwA7CY4/C2Z4BG3q3UPeTifxk/hxAAdwIFoHvqDSHpFhiqLL4yKg4J4pb5dy0kd70uc446HPzPRxYGEHfqrgHPsGjCsjZvK5Gg53V7DXyts2kj/JHwdwAAeScuAj1d4smaQrujlKAtX2kyrtbE74pE54ZkQLz4jgApdcHfhvle7nR5kb+KyOE9CMPV7VnaUEjVyDBv3GfRzoigOl3aTSndTxtEX3RkGg3nPa2y0kf2b+OIADONApB85UCPuOIk/wGR0jUImh0t7FCd+pE55ZXFdmcfQDl0fiQPEl+eLBHUtfdGc1BDTTe6B88VWSP8kfB3AABzrvwJXyxS+tJmfw3o4Q0OzUz8nzEB+CXueDHjPIkcwg8aQjseIW+eL4jqQxurESAgruV+Xt+o4ITYAnwOMADuDA0h2oniUwXEnu4D2JE1BwpbxtJfkzo8EBHMCBnB0o3q1eb8/EUxrNXwoBTU6ukbe/4ITP+YSn7/iPAzhwOwdC8Ylqu/el5BBekyiB6rGRCnYW4t9O/KUvl7G0CCscwIEuO/AfGgzun2h6o9k7I6DBYK28fYbkT/LHARzAARxY2IHiBzxMaGeZNMHfVftBy9vnFx5wTgS44AAO4AAO7HDAXaEw/egEUx1NvjMBbSjuI28XIvcOufkbF3AAB3BgFw5cWX1F/M75hH8nREDlyQfL29d2MdBdvqZF37hmiwM4gAMrcSDY1QrFExNKeTR1BwHNugfI23+R/Kn0cQAHcAAHVujANZq1J+/IK/ydAAFNTx8mbxevcMCplldSLfMevMEBHOimA9fKTz0lgdRHEzU9fSiP8qXap/jDARzAgRE6cL3K/pPIsBETqDZykLevjHDQqei7WdEzrowrDuDAch3YLO+OiDgF5tu0+nG+3s4j+VP14wAO4AAOjMmBS6unx+abaSPsebWPs0r30TEN+HKrRF7PzAIHcAAHuupAsG8onHTPCFNhfk3SxMRu8nYGyZ+KHwdwAAdwoCEHPl9tLZ9fxo2sx/L25oYGnIq+qxU9/cJtHMCB5TvwzxoO94gsJebTHIXid0j+VPw4gAM4gAPtOFC8u1qFzifrRtJTBfer8ra1nUHnZIM7DuAADuBA5YDbGElazKMZWt97pLxdi3wEIBzAARzAgZYd2KaZqWfnkX1b7qXMDmSLX074lk94rpcu/3opzGDWXQfq5wa4w1tOj90+vCYn1/B1P5I/yR8HcAAHonOgdN/SYLC221m4xd6pLP4sukGnqu9uVc/YMrY4gAPLcqD4MDcFjqFIkC+OJ/lT9eMADuAADsTtQPGqMaTAfD9SoX+UvN0Y96BzUjI+OIADOIADtk3enpNvxh5hzzVct4+8XYhUBBYcwAEcwIFEHLhKvnffEabCPD9KZfFXiQw418qWda2MQIbXOIADnXbg49wPsIq6Rd6eJW/bOUk6fZJQOFE44QAOdNWBwSpSYL5v1fT0ofJ2Fcmf5I8DOIADOJCoAzertMfkm8lX0HMNh7vL2zmJDnhXK1n6xSwNB3AAB5bvwNere9lWkArzfAsP+aHap/jDARzAgQ458Kd5ZvNl9lozxaPk7dYODTwV8/IrZpjBDAdwoEsObFOwY5eZDvN6+fzS/2dI/lT+OIADOIADHXPgEm3YsF9eWX0ZvVVwrmMD3qUKlr4wI8MBHMCB1ThQ2huWkRLzealOcYfI2zUUAFT9OIADOIADHXXgFg2mjswnsy+xpwr2gY4OOBXzaipm3os/OIAD3XLgXDYIul1hoJmpZ5P8qfhxAAdwAAeycCDYb98uBeb7v9VNEfJ2cRaD3q0qllkJ44kDOIADK3NgswaDe+eb+ed7rrL4M5I/VT8O4AAO4EBWDpT2rqwLAAV3uLzdktWgr6xapMqGGw7gAA50y4Ht8lNPybYIkC/eT/Kn6scBHMABHMjUgXOzLABU9p/Ek/446TM96ZnJdWsmx3gynqtx4DnZFQHydh7BnwIAB3AAB3AgbweKr1a74GZTBMi7F+Y94JzwjD8O4AAO4MC8A6U7IYsCQMPhHvL2TQaekx8HcAAHcAAHagcu0WCwd+eLAHnrM+Cc9DiAAziAAzhwBwd8pwsA9Xp3k3dXMOh3GPTV3DzCe7n5CAdwAAe64cBVGgzWdrYIUFlMk/xJ/jiAAziAAziwgAOl/X4nC4D5a/9s+duNSpUZB+OIAziAA6N34EcKYd/OFQHyxfFUfAtUfKMXiJMSpjiAAziQrAOFdaoAqB59KG9fowCgAMABHMABHMCBnTpwkSYn13SmCFBpz2PAdzrgVOvJVuuMK+c2DuDAqB1wx3WnAAj2WQQZtSB8Hk7hAA7gQEcd+EInCgAFO6ajA8SsnVk7DuAADuDAeBwIdkzyRYBK91EKAKp0HMABHMABHFiGA6X7aNIFgKanD5O3bQz6Mgadano81TRc4YoDOJCWA9vl3RHJFgEq7Q0kf5I/DuAADuAADqzAgdL9SZIFwPzGP5cx6CsY9LSqVGYVjBcO4AAOjMeBzUk+JIhH/pL4Kf5wAAdwAAdW6UBZvCi5VQB5+xgDv8qBH09FSaUOVxzAARxIx4F/SaoA4OY/Ej/FHw7gAA7gwEgc2KaZ3gOTKQK4+W8kg06Fnk6FzlgxVjiAA+NzoLRXJ1EAcPMfyZ+qHwdwAAdwYKQOXKzhcPfoiwCVxa8x8CMd+PFVlVTssMUBHMCBNBwop34l/gLA23soACgAcAAHcAAHcGCkDrwn6gJAw8m9FOxqBn2kg55GdcosgnHCARzAgXE6cE2VY6MtAlj+J/FT/OEADuAADozJgeCeGW8BwPL/OKs/PpvZBQ7gAA5k7YB7e5QFgHq9PVn+H1PVl7XwMGU2hQM4gANzDrgrNDm5JroiQN6eg6RIigM4gAM4gANjdCDY02IsAM5g0Mc46KwCsPSJAziAAzhQFn8WVQFQL/97+zEFAAUADuAADuAADozVge9rYmK3aIoABTuWAR/rgFP1MvPBARzAARyYcyBMPSGmAuBUCgAKABzAARzAARxowgE3jKcAKO3LDHoTg84x8AwHcAAHcKD4dBQFgNb3DpK3bQwIJyUO4AAO4AAONOLALdqwYb/WiwCF4iUMeCMDzvU/rv/hAA7gAA7M3wcQwa6A8u6dFAAUADiAAziAAzjQoAOl+6P2VwC8XcygNzjoVL/MgHAAB3AAB7yd32oBoNIeQfIn+eMADuAADuBA4w5slfcHtFYEqCymGfTGB53Kl9kPDuAADuCAVNrz2isAvP0jBQAFAA7gAA7gAA604UDx520WAJcz6G0MOsfEOxzAARzAAfuPVgoAzboHAJ8TEAdwAAdwAAdac2BrK/sBqCxexKC3Nuhc/+P6Hw7gAA7ggDTjfqHxVQAFY/9/5CMA4QAO4AAOtOvAoPkCoLR/ZQWAFQAcwAEcwAEcaNWBMxotAKpnEcvbNQx6q4NO1d1u1Q1/+OMADsTgwNeaLQC8O4LkT/LHARzAARzAgdYdaPZGQAV7OYPe+qDHUHnSBmZAOIADONC2A03eCChvf0kBQAGAAziAAziAA1E40NyNgPJ2HoMexaBTebddeXN8HMQBHGjfgeZuBJS3yygAKABwAAdwAAdwIAoHLmzkRkAN1+0jb9sZ9CgGncq7/cqbMWAMcAAH2nbgmmYKgEHvoSR/kj8O4AAO4AAOROSAc/uPvQjQ+t4jGfSIBp3Ku+3Km+PjIA7gQPsOBHf4+AuAmeJRFAAUADiAAziAAzgQkQOz/YePvwAI/aMY9IgGncq7/cqbMWAMcAAH2nagtEeMvwDYUNyHAoACAAdwAAdwAAciciDYQ8ZfAMw9B+BWBj6igW+78uT4zH5wAAdwoE0Htlff0Bt7AVAdQN4upgCgAMABHMABHMCBCBwo7YeNJP/5AuCDDHoEg07F3WbFzbHxDwdwIBYHzm2uAChtEwUABQAO4AAO4AAOROBAsFObKwB88VQGPYJBp/qOpfqmHbiIAzjQngOlPa+5AmA43F2l/ZAigCIAB3AAB3AAB1p0oLSbtKl3j8YKgOpAKu00Br3FQafabq/ahj3scQAHonGgeH+jyb8uAPzUUygAKABwAAdwAAdwoFUHfr3xAmCuCHCfY+BbHXiq8GiqcDwgFuAADjTuwEUaDvdoqwB4IQPe+ICT9En6OIADOIADUule0Uryr1cAql0BS/t3igCKABzAARzAARxo1IGLNJzcq7UCoC4CfP9x8raNgW904Kn+qf5xAAdwIG8HntNq8t9xcJXFX1EAUADgAA7gAA7gQAMOlPbeHfm39b+rhxDI24UMfAMDn3fFy4yH8ccBHMjdgUvU79+r9cR/+wZoMHWkvF1PEUARgAM4gAM4gANjceBGzRaPvX3ujeb/5YtnyNvNDPxYBj73qpf+M/PDARzI2YEtCsULokn4CzVEZfEiedtCEUARgAM4gAM4gAMjcWCrQvGShXJudD/TzNSz5e0GBn4kA59zxUvfmfHhAA7k7sBP5d0Lo0v0O2uQSvfz8nYZRQBFAA7gAA7gAA6syIHLFKaesLNcG+3v5P0BKu29DPyKBj73qpf+M/PDARzI2IHi/RoM7h1tgl9qw1S6E1gNoAigEMQBHMABHNiVA8UPkrnev+QiYMOG/eTdUN6uRYBdCcDvcQQHcAAHMnPgx/Juo0LYd6l5NbnXybn9FayQL76a2eBmvJRFIMN1HMABHFjQgfp5Om6der27JZfQV9NgzUw9TMEFefuYvF21IByugVE44AAO4AAOdMeBy+Xtn+Ynwg9eTQ7t1HtVnnywgh2j0ibl7eTbdhacVWmb+AMDHMABHMCB5Bzw5uWLE+XdcfLFUxVOumenkjadgQAEIAABCEAAAhCAAAQgAAEIQAACEIAABCAAAQhAAAIQgAAEIAABCEAAAhCAAAQgAAEIQAACEIAABCAAAQhAAAIQgAAEIAABCEAAAhCAAAQgAAEIQAACEIAABCAAAQhAAAIQgAAEIAABCEAAAhCAAAQgAAEIQAACEIAABCAAAQhAAAIQgAAEIAABCEAAAhCAAAQgAAEIQAACEIAABCAAAQhAAAIQgAAEIAABCEAAAhCAAAQgAAEIQAACEIAABCAAAQhAAAIQgAAEIAABCEAAAhCAAAQgAAEIQAACEIAABCAAAQhAAAIQgAAEIAABCEAAAhCAAAQgAAEIQAACEIAABCAAAQhAAAIQgAAEIAABCEAAAhCAAAQgAAEIQAACEIAABCAAAQhAAAIQgAAEIAABCEAAAhCAAAQgAAEIQAACEIAABCAAAQhM/H/EkydKVbKc9gAAAABJRU5ErkJggg==;" vertex="1" parent="1">
          <mxGeometry x="890" y="346.5" width="42" height="42" as="geometry" />
        </mxCell>
        <mxCell id="32ch79hQAX0JlgT8ifrZ-96" value="User" style="text;html=1;align=center;verticalAlign=middle;whiteSpace=wrap;rounded=0;" vertex="1" parent="1">
          <mxGeometry x="881" y="388.5" width="60" height="30" as="geometry" />
        </mxCell>
        <mxCell id="32ch79hQAX0JlgT8ifrZ-99" value="" style="endArrow=classic;html=1;rounded=0;" edge="1" parent="1">
          <mxGeometry relative="1" as="geometry">
            <mxPoint x="800" y="120" as="sourcePoint" />
            <mxPoint x="800" y="340" as="targetPoint" />
          </mxGeometry>
        </mxCell>
        <mxCell id="32ch79hQAX0JlgT8ifrZ-100" value="http Response" style="edgeLabel;resizable=0;html=1;;align=center;verticalAlign=middle;rotation=270;" connectable="0" vertex="1" parent="32ch79hQAX0JlgT8ifrZ-99">
          <mxGeometry relative="1" as="geometry">
            <mxPoint y="-17" as="offset" />
          </mxGeometry>
        </mxCell>
        <mxCell id="32ch79hQAX0JlgT8ifrZ-102" value="" style="endArrow=classic;html=1;rounded=0;" edge="1" parent="1">
          <mxGeometry relative="1" as="geometry">
            <mxPoint x="760" y="340" as="sourcePoint" />
            <mxPoint x="760" y="120" as="targetPoint" />
          </mxGeometry>
        </mxCell>
        <mxCell id="32ch79hQAX0JlgT8ifrZ-103" value="http Request" style="edgeLabel;resizable=0;html=1;;align=center;verticalAlign=middle;rotation=270;" connectable="0" vertex="1" parent="32ch79hQAX0JlgT8ifrZ-102">
          <mxGeometry relative="1" as="geometry">
            <mxPoint y="-18" as="offset" />
          </mxGeometry>
        </mxCell>
        <mxCell id="32ch79hQAX0JlgT8ifrZ-105" value="" style="endArrow=none;dashed=1;html=1;dashPattern=1 3;strokeWidth=2;rounded=0;strokeColor=#8c8787;" edge="1" parent="1">
          <mxGeometry width="50" height="50" relative="1" as="geometry">
            <mxPoint x="200" y="460" as="sourcePoint" />
            <mxPoint x="200" y="-40" as="targetPoint" />
          </mxGeometry>
        </mxCell>
        <mxCell id="32ch79hQAX0JlgT8ifrZ-106" value="" style="endArrow=none;dashed=1;html=1;dashPattern=1 3;strokeWidth=2;rounded=0;strokeColor=#8c8787;" edge="1" parent="1">
          <mxGeometry width="50" height="50" relative="1" as="geometry">
            <mxPoint x="560" y="220" as="sourcePoint" />
            <mxPoint x="560" y="-40" as="targetPoint" />
          </mxGeometry>
        </mxCell>
        <mxCell id="32ch79hQAX0JlgT8ifrZ-107" value="" style="endArrow=none;dashed=1;html=1;dashPattern=1 3;strokeWidth=2;rounded=0;strokeColor=#8c8787;" edge="1" parent="1">
          <mxGeometry width="50" height="50" relative="1" as="geometry">
            <mxPoint x="561" y="460" as="sourcePoint" />
            <mxPoint x="561" y="440" as="targetPoint" />
          </mxGeometry>
        </mxCell>
        <mxCell id="32ch79hQAX0JlgT8ifrZ-112" value="" style="endArrow=classic;html=1;rounded=0;entryX=1;entryY=0.5;entryDx=0;entryDy=0;entryPerimeter=0;" edge="1" parent="1">
          <mxGeometry width="50" height="50" relative="1" as="geometry">
            <mxPoint x="760" y="260" as="sourcePoint" />
            <mxPoint x="702" y="260.5" as="targetPoint" />
          </mxGeometry>
        </mxCell>
        <mxCell id="32ch79hQAX0JlgT8ifrZ-117" value="" style="sketch=0;points=[[0,0,0],[0.25,0,0],[0.5,0,0],[0.75,0,0],[1,0,0],[0,1,0],[0.25,1,0],[0.5,1,0],[0.75,1,0],[1,1,0],[0,0.25,0],[0,0.5,0],[0,0.75,0],[1,0.25,0],[1,0.5,0],[1,0.75,0]];outlineConnect=0;fontColor=#232F3E;fillColor=#7AA116;strokeColor=#ffffff;dashed=0;verticalLabelPosition=bottom;verticalAlign=top;align=center;html=1;fontSize=12;fontStyle=0;aspect=fixed;shape=mxgraph.aws4.resourceIcon;resIcon=mxgraph.aws4.s3;" vertex="1" parent="1">
          <mxGeometry x="665" y="252" width="37" height="37" as="geometry" />
        </mxCell>
        <mxCell id="32ch79hQAX0JlgT8ifrZ-118" value="" style="endArrow=classic;html=1;rounded=0;" edge="1" parent="1">
          <mxGeometry width="50" height="50" relative="1" as="geometry">
            <mxPoint x="800" y="282" as="sourcePoint" />
            <mxPoint x="705" y="282" as="targetPoint" />
          </mxGeometry>
        </mxCell>
        <mxCell id="32ch79hQAX0JlgT8ifrZ-120" value="S3 Bucket" style="text;html=1;align=center;verticalAlign=middle;whiteSpace=wrap;rounded=0;" vertex="1" parent="1">
          <mxGeometry x="643.62" y="290.75" width="84.25" height="27.5" as="geometry" />
        </mxCell>
        <mxCell id="32ch79hQAX0JlgT8ifrZ-121" value="" style="shape=image;verticalLabelPosition=bottom;labelBackgroundColor=default;verticalAlign=top;aspect=fixed;imageAspect=0;image=https://www.greenmarimba.com/files/sites/229/2020/01/aws-cloud.png;" vertex="1" parent="1">
          <mxGeometry x="683.5" y="4" width="56.51" height="36" as="geometry" />
        </mxCell>
        <mxCell id="32ch79hQAX0JlgT8ifrZ-122" value="Frontend UI" style="text;html=1;align=center;verticalAlign=middle;whiteSpace=wrap;rounded=1;" vertex="1" parent="1">
          <mxGeometry x="564.62" y="390.5" width="79" height="21.5" as="geometry" />
        </mxCell>
        <mxCell id="32ch79hQAX0JlgT8ifrZ-123" value="" style="swimlane;startSize=0;" vertex="1" parent="1">
          <mxGeometry x="20" y="-90" width="920" height="570" as="geometry" />
        </mxCell>
        <mxCell id="32ch79hQAX0JlgT8ifrZ-128" value="&lt;b&gt;&lt;font style=&quot;font-size: 20px;&quot;&gt;Medicare Claim Fraud Detection High Level Architecture&lt;/font&gt;&lt;/b&gt;" style="rounded=1;whiteSpace=wrap;html=1;" vertex="1" parent="32ch79hQAX0JlgT8ifrZ-123">
          <mxGeometry x="125" width="670" height="40" as="geometry" />
        </mxCell>
      </root>
    </mxGraphModel>
  </diagram>
</mxfile>
